<svg width="670" height="397" viewBox="0 0 670 397" fill="none" xmlns="http://www.w3.org/2000/svg">
<g clip-path="url(#clip0_2_1434)">
<path opacity="0.3" d="M594.497 364.02C590.626 216.278 469.852 97.7041 321.43 97.7041C173.022 97.7041 52.2566 216.258 48.3648 363.98C48.2986 366.425 48.2666 368.878 48.2666 371.339C48.2666 372.409 48.273 373.478 48.2858 374.547C55.1499 374.891 62.667 375.22 70.7793 375.534C70.7558 374.138 70.743 372.741 70.743 371.339C70.743 368.545 70.7878 365.762 70.8796 362.99C75.275 228.166 185.767 120.219 321.43 120.219C457.101 120.219 567.602 228.183 571.98 363.022C572.07 365.783 572.114 368.556 572.114 371.339C572.114 372.73 572.104 374.119 572.08 375.504C580.203 375.186 587.718 374.852 594.574 374.506C594.587 373.452 594.593 372.397 594.593 371.341C594.593 368.893 594.561 366.452 594.497 364.02Z" fill="white"/>
<path opacity="0.3" d="M555.898 362.443C551.227 236.758 448.039 136.301 321.43 136.301C194.828 136.301 91.6446 236.743 86.9633 362.415C86.8524 365.375 86.7969 368.35 86.7969 371.339C86.7969 372.933 86.8118 374.525 86.8438 376.111C89.6795 376.208 92.5728 376.299 95.5237 376.389C95.4853 374.711 95.4661 373.027 95.4661 371.339C95.4661 368.256 95.528 365.187 95.6517 362.135C100.472 241.392 199.71 144.985 321.43 144.985C443.157 144.985 542.404 241.405 547.21 362.163C547.331 365.206 547.393 368.265 547.393 371.339C547.393 373.019 547.374 374.694 547.338 376.364C550.288 376.272 553.182 376.178 556.015 376.084C556.047 374.504 556.062 372.924 556.062 371.339C556.062 368.359 556.007 365.395 555.898 362.443Z" fill="white"/>
<path opacity="0.1" d="M335 397.002C520.015 397.002 670 391.247 670 384.148C670 377.049 520.015 371.294 335 371.294C149.985 371.294 0 377.049 0 384.148C0 391.247 149.985 397.002 335 397.002Z" fill="black"/>
<path d="M641.982 369.265H0V383.926H641.982V369.265Z" fill="white"/>
<path d="M641.982 383.926C641.982 384.614 639.759 385.285 635.526 385.935C605.716 390.5 476.224 393.937 320.992 393.937C185.176 393.937 69.0595 391.306 22.1756 387.589C7.86057 386.454 0 385.219 0 383.926C0 382.63 7.90964 381.389 22.3079 380.252C69.2792 376.539 185.304 373.914 320.99 373.914C476.093 373.914 605.502 377.345 635.451 381.906C639.733 382.56 641.982 383.233 641.982 383.926Z" fill="white"/>
<path d="M641.982 369.265C641.982 369.954 639.759 370.623 635.526 371.272C627.934 372.435 613.877 373.525 594.574 374.504C587.718 374.852 580.203 375.186 572.08 375.502C566.961 375.701 561.602 375.896 556.016 376.081C553.18 376.178 550.286 376.272 547.338 376.361C489.299 378.161 409.311 379.275 320.992 379.275C233.116 379.275 153.488 378.174 95.5238 376.387C92.5729 376.297 89.6796 376.205 86.8439 376.109C81.26 375.923 75.9001 375.731 70.7792 375.532C62.6669 375.218 55.1498 374.889 48.2857 374.545C38.0887 374.034 29.3278 373.493 22.1756 372.927C7.86057 371.796 0 370.561 0 369.265C0 367.968 7.90964 366.728 22.3079 365.591C29.4536 365.027 38.1954 364.486 48.3625 363.977C55.2352 363.633 62.7586 363.304 70.8795 362.988C76.0068 362.789 81.3709 362.597 86.9612 362.413C89.7991 362.317 92.6966 362.225 95.6497 362.133C153.603 360.352 233.18 359.252 320.99 359.252C409.244 359.252 489.181 360.361 547.208 362.161C550.161 362.253 553.058 362.347 555.896 362.441C561.488 362.629 566.855 362.823 571.978 363.022C580.109 363.341 587.633 363.674 594.495 364.02C613.775 364.997 627.832 366.085 635.451 367.246C639.733 367.9 641.982 368.573 641.982 369.265Z" fill="#F0F0F0"/>
<path opacity="0.3" d="M385.893 41.9483H299.273C298.2 40.1529 297.583 38.0497 297.583 35.8033C297.583 29.1774 302.945 23.8062 309.56 23.8062C311.683 23.8062 313.674 24.3598 315.402 25.328C317.435 21.5683 321.411 19.0142 325.983 19.0142C327.807 19.0142 329.536 19.4224 331.083 20.1491C334.846 13.0915 342.272 8.28662 350.819 8.28662C363.167 8.28662 373.178 18.3152 373.178 30.6864C373.178 30.8125 373.176 30.9386 373.176 31.0647H373.737C380.002 31.0647 385.206 35.8439 385.893 41.9483Z" fill="white"/>
<path d="M230.732 200.752L230.726 200.769L230.69 200.752H230.732Z" fill="#FBB040"/>
<path d="M338.896 217.272H303.961V357.253H338.896V217.272Z" fill="white"/>
<path d="M338.896 217.272H303.961V313.165H338.896V217.272Z" fill="#EAEAEA"/>
<path d="M463.075 305.313H179.781C178.587 305.313 177.609 304.334 177.609 303.137V111.358C177.609 110.161 178.587 109.182 179.781 109.182H463.075C464.27 109.182 465.248 110.161 465.248 111.358V303.137C465.248 304.332 464.27 305.313 463.075 305.313Z" fill="white"/>
<path d="M462.145 111.901H180.714V294.044H462.145V111.901Z" fill="#11304C"/>
<path d="M386.204 364.059H256.652V362.02C256.652 359.388 258.782 357.253 261.411 357.253H381.446C384.073 357.253 386.204 359.386 386.204 362.02V364.059Z" fill="white"/>
<path d="M325.176 111.68C321.534 111.68 318.101 110.251 315.509 107.654C312.916 105.057 311.489 101.618 311.489 97.9692V90.6721C311.489 87.0236 312.916 83.5846 315.509 80.9876C318.101 78.3907 321.534 76.9608 325.176 76.9608C328.819 76.9608 332.252 78.3907 334.844 80.9876C337.437 83.5846 338.864 87.0236 338.864 90.6721V97.9692C338.864 101.618 337.437 105.057 334.844 107.654C332.252 110.251 328.819 111.68 325.176 111.68ZM325.176 79.9574C319.279 79.9574 314.478 84.7644 314.478 90.6743V97.9713C314.478 103.879 319.277 108.688 325.176 108.688C331.074 108.688 335.875 103.881 335.875 97.9713V90.6743C335.873 84.7644 331.074 79.9574 325.176 79.9574Z" fill="#F2F2F3"/>
<path d="M340.898 127.563H309.451C307.706 127.563 306.291 126.146 306.291 124.398V99.5529C306.291 97.8045 307.706 96.3875 309.451 96.3875H340.898C342.643 96.3875 344.058 97.8045 344.058 99.5529V124.396C344.06 126.144 342.645 127.563 340.898 127.563Z" fill="#FACA0D"/>
<path d="M329.345 110.386C329.718 108.084 328.157 105.914 325.858 105.54C323.56 105.167 321.394 106.73 321.021 109.033C320.648 111.335 322.209 113.505 324.507 113.878C326.806 114.252 328.971 112.688 329.345 110.386Z" fill="#3F4040"/>
<path d="M326.8 119.3H323.551L324.773 108.573H325.578L326.8 119.3Z" fill="#3F4040"/>
<path d="M190.166 24.2231C176.265 24.2231 166.335 16.5221 166.335 16.5221C166.335 16.5221 156.405 24.2231 142.504 24.2231C142.504 24.2231 134.88 59.6481 166.335 75.8837C197.79 59.6481 190.166 24.2231 190.166 24.2231Z" fill="#1CCAFF"/>
<path d="M166.333 77.709L165.593 77.3264C158.169 73.494 152.246 68.2916 147.992 61.8603C144.59 56.7198 142.248 50.7993 141.031 44.2653C139.954 38.4794 139.977 33.2663 140.186 29.9149C140.415 26.26 140.899 23.9815 140.918 23.8853L141.194 22.605H142.499C149.391 22.605 155.253 20.5895 158.959 18.9009C162.962 17.0756 165.317 15.261 165.341 15.2439L166.331 14.4766L167.321 15.2439C167.344 15.261 169.766 17.1162 173.794 18.9416C177.481 20.613 183.313 22.605 190.162 22.605H191.468L191.743 23.8853C191.765 23.9815 192.249 26.26 192.475 29.9149C192.684 33.2685 192.708 38.4794 191.63 44.2653C190.414 50.8014 188.073 56.7198 184.67 61.8603C180.413 68.2916 174.492 73.4962 167.069 77.3264L166.333 77.709ZM143.867 25.8218C143.718 26.805 143.526 28.3225 143.411 30.227C143.218 33.401 143.206 38.3276 144.234 43.7822C146.797 57.3803 154.231 67.5607 166.333 74.054C178.472 67.5414 185.912 57.3226 188.453 43.669C189.962 35.5597 189.217 28.579 188.799 25.8218C185.937 25.7213 183.046 25.311 180.183 24.5949C177.535 23.9324 174.904 23.009 172.363 21.8505C169.542 20.5638 167.468 19.2771 166.331 18.5098C165.193 19.2771 163.12 20.5617 160.299 21.8505C157.76 23.009 155.129 23.9324 152.479 24.5949C149.62 25.311 146.726 25.7213 143.867 25.8218Z" fill="#11304C"/>
<path d="M164.739 50.825C164.319 50.825 163.898 50.6647 163.578 50.3441L156.482 43.2351L158.803 40.9096L164.739 46.8559L178.644 32.9265L180.966 35.252L165.9 50.3441C165.58 50.6625 165.159 50.825 164.739 50.825Z" fill="white"/>
<path d="M534.166 129.744V249.766C534.166 250.538 533.541 251.162 532.773 251.162H437.977C437.207 251.162 436.583 250.536 436.583 249.766V129.744C436.583 128.972 437.209 128.348 437.977 128.348H532.773C533.543 128.348 534.166 128.972 534.166 129.744Z" fill="white"/>
<path d="M534.166 128.348V134.337H436.583V128.348C436.583 127.576 437.209 126.952 437.977 126.952H532.773C533.543 126.95 534.166 127.576 534.166 128.348Z" fill="#40BEEE"/>
<path d="M510.813 130.257V131.032C510.813 131.597 510.352 132.056 509.791 132.056H442.21C441.647 132.056 441.188 131.595 441.188 131.032V130.257C441.188 129.692 441.649 129.233 442.21 129.233H509.791C510.354 129.233 510.813 129.692 510.813 130.257Z" fill="white"/>
<path d="M516.988 131.84C517.648 131.84 518.183 131.305 518.183 130.643C518.183 129.982 517.648 129.447 516.988 129.447C516.328 129.447 515.793 129.982 515.793 130.643C515.793 131.305 516.328 131.84 516.988 131.84Z" fill="#F3786C"/>
<path d="M520.89 131.84C521.55 131.84 522.085 131.305 522.085 130.643C522.085 129.982 521.55 129.447 520.89 129.447C520.231 129.447 519.696 129.982 519.696 130.643C519.696 131.305 520.231 131.84 520.89 131.84Z" fill="#FFC448"/>
<path d="M525.986 130.643C525.986 131.304 525.45 131.84 524.791 131.84C524.132 131.84 523.596 131.304 523.596 130.643C523.596 129.983 524.132 129.447 524.791 129.447C525.452 129.449 525.986 129.983 525.986 130.643Z" fill="#1EA3A3"/>
<path d="M484.566 193.91H441.342V212.995H484.566V193.91Z" fill="#FFE2B3"/>
<path d="M496.039 147.55H483.817C483.13 147.55 482.567 146.986 482.567 146.298V146.144C482.567 145.456 483.13 144.891 483.817 144.891H496.039C496.726 144.891 497.289 145.456 497.289 146.144V146.298C497.289 146.986 496.726 147.55 496.039 147.55Z" fill="#E8E8E8"/>
<path d="M478.827 147.55H466.605C465.918 147.55 465.354 146.986 465.354 146.298V146.144C465.354 145.456 465.918 144.891 466.605 144.891H478.827C479.514 144.891 480.077 145.456 480.077 146.144V146.298C480.077 146.986 479.514 147.55 478.827 147.55Z" fill="#E8E8E8"/>
<path d="M518.083 147.55H499.782C499.095 147.55 498.531 146.986 498.531 146.298V146.144C498.531 145.456 499.095 144.891 499.782 144.891H518.083C518.77 144.891 519.333 145.456 519.333 146.144V146.298C519.333 146.986 518.77 147.55 518.083 147.55Z" fill="#E8E8E8"/>
<path d="M528.38 147.55H522.35C521.663 147.55 521.1 146.986 521.1 146.298V146.144C521.1 145.456 521.663 144.891 522.35 144.891H528.38C529.067 144.891 529.63 145.456 529.63 146.144V146.298C529.63 146.986 529.067 147.55 528.38 147.55Z" fill="#E8E8E8"/>
<path d="M506.712 152.958H499.869C499.144 152.958 498.551 152.364 498.551 151.637V151.62C498.551 150.893 499.144 150.299 499.869 150.299H506.712C507.437 150.299 508.031 150.893 508.031 151.62V151.637C508.031 152.364 507.437 152.958 506.712 152.958Z" fill="#FFCE5F"/>
<path d="M474.988 152.958H466.682C465.952 152.958 465.354 152.359 465.354 151.628C465.354 150.897 465.952 150.299 466.682 150.299H474.988C475.718 150.299 476.315 150.897 476.315 151.628C476.315 152.359 475.718 152.958 474.988 152.958Z" fill="#E8E8E8"/>
<path d="M495.879 152.958H479.578C478.987 152.958 478.504 152.472 478.504 151.883V151.376C478.504 150.784 478.989 150.301 479.578 150.301H495.879C496.47 150.301 496.952 150.786 496.952 151.376V151.883C496.952 152.475 496.47 152.958 495.879 152.958Z" fill="#E8E8E8"/>
<path d="M528.38 152.958H510.832C510.145 152.958 509.582 152.393 509.582 151.705V151.551C509.582 150.863 510.145 150.299 510.832 150.299H528.38C529.067 150.299 529.63 150.863 529.63 151.551V151.705C529.63 152.393 529.067 152.958 528.38 152.958Z" fill="#E8E8E8"/>
<path d="M499.748 158.365H485.97C485.326 158.365 484.799 157.837 484.799 157.192V156.882C484.799 156.236 485.326 155.708 485.97 155.708H499.748C500.392 155.708 500.919 156.236 500.919 156.882V157.192C500.921 157.837 500.392 158.365 499.748 158.365Z" fill="#E8E8E8"/>
<path d="M516.638 158.365H503.81C503.123 158.365 502.56 157.801 502.56 157.113V156.959C502.56 156.271 503.123 155.706 503.81 155.706H516.638C517.325 155.706 517.888 156.271 517.888 156.959V157.113C517.888 157.801 517.325 158.365 516.638 158.365Z" fill="#E8E8E8"/>
<path d="M528.38 158.365H520.856C520.169 158.365 519.606 157.801 519.606 157.113V156.959C519.606 156.271 520.169 155.706 520.856 155.706H528.38C529.067 155.706 529.63 156.271 529.63 156.959V157.113C529.63 157.801 529.067 158.365 528.38 158.365Z" fill="#FFCE5F"/>
<path d="M477.177 163.773H466.682C465.952 163.773 465.354 163.174 465.354 162.443C465.354 161.712 465.952 161.114 466.682 161.114H477.177C477.907 161.114 478.505 161.712 478.505 162.443C478.505 163.174 477.907 163.773 477.177 163.773Z" fill="#E8E8E8"/>
<path d="M481.24 158.365H466.682C465.952 158.365 465.354 157.767 465.354 157.036C465.354 156.305 465.952 155.706 466.682 155.706H481.24C481.97 155.706 482.567 156.305 482.567 157.036C482.567 157.767 481.97 158.365 481.24 158.365Z" fill="#E8E8E8"/>
<path d="M491.13 163.773H481.739C481.052 163.773 480.489 163.209 480.489 162.52V162.367C480.489 161.678 481.052 161.114 481.739 161.114H491.13C491.817 161.114 492.38 161.678 492.38 162.367V162.52C492.38 163.209 491.817 163.773 491.13 163.773Z" fill="#E8E8E8"/>
<path d="M509.928 163.773H495.282C494.595 163.773 494.031 163.209 494.031 162.52V162.367C494.031 161.678 494.595 161.114 495.282 161.114H509.928C510.615 161.114 511.178 161.678 511.178 162.367V162.52C511.178 163.209 510.615 163.773 509.928 163.773Z" fill="#E8E8E8"/>
<path d="M469.805 172.06H476.998C477.728 172.06 478.325 171.461 478.325 170.73C478.325 169.999 477.728 169.401 476.998 169.401H469.805C469.076 169.401 468.478 169.999 468.478 170.73C468.478 171.461 469.076 172.06 469.805 172.06Z" fill="#F38EB1"/>
<path d="M451.234 172.06H466.106C466.835 172.06 467.433 171.461 467.433 170.73C467.433 169.999 466.835 169.401 466.106 169.401H451.234C450.504 169.401 449.906 169.999 449.906 170.73C449.906 171.461 450.504 172.06 451.234 172.06Z" fill="#F38EB1"/>
<path d="M461.132 177.467H477.54C478.27 177.467 478.867 176.869 478.867 176.138C478.867 175.407 478.27 174.808 477.54 174.808H461.132C460.402 174.808 459.805 175.407 459.805 176.138C459.805 176.869 460.402 177.467 461.132 177.467Z" fill="#E8E8E8"/>
<path d="M442.558 177.467H456.796C457.526 177.467 458.123 176.869 458.123 176.138C458.123 175.407 457.526 174.808 456.796 174.808H442.558C441.828 174.808 441.231 175.407 441.231 176.138C441.231 176.869 441.828 177.467 442.558 177.467Z" fill="#E8E8E8"/>
<path d="M502.468 182.875H517.046C517.775 182.875 518.373 182.276 518.373 181.545C518.373 180.814 517.775 180.216 517.046 180.216H502.468C501.738 180.216 501.141 180.814 501.141 181.545C501.141 182.276 501.738 182.875 502.468 182.875Z" fill="#E8E8E8"/>
<path d="M483.894 182.875H498.132C498.862 182.875 499.459 182.276 499.459 181.545C499.459 180.814 498.862 180.216 498.132 180.216H483.894C483.164 180.216 482.567 180.814 482.567 181.545C482.567 182.276 483.164 182.875 483.894 182.875Z" fill="#A6D6B0"/>
<path d="M466.748 182.875H479.559C480.288 182.875 480.886 182.276 480.886 181.545C480.886 180.814 480.288 180.216 479.559 180.216H466.748C466.018 180.216 465.421 180.814 465.421 181.545C465.421 182.276 466.018 182.875 466.748 182.875Z" fill="#A6D6B0"/>
<path d="M452.45 182.875H462.713C463.443 182.875 464.04 182.276 464.04 181.545C464.04 180.814 463.443 180.216 462.713 180.216H452.45C451.72 180.216 451.123 180.814 451.123 181.545C451.123 182.276 451.72 182.875 452.45 182.875Z" fill="#E8E8E8"/>
<path d="M442.558 182.875H448.351C449.081 182.875 449.678 182.276 449.678 181.545C449.678 180.814 449.081 180.216 448.351 180.216H442.558C441.828 180.216 441.231 180.814 441.231 181.545C441.231 182.276 441.828 182.875 442.558 182.875Z" fill="#E8E8E8"/>
<path d="M472.193 188.282H479.558C480.288 188.282 480.886 187.684 480.886 186.953C480.886 186.222 480.288 185.623 479.558 185.623H472.193C471.463 185.623 470.866 186.222 470.866 186.953C470.866 187.684 471.461 188.282 472.193 188.282Z" fill="#E8E8E8"/>
<path d="M456.355 188.282H468.147C468.877 188.282 469.475 187.684 469.475 186.953C469.475 186.222 468.877 185.623 468.147 185.623H456.355C455.625 185.623 455.027 186.222 455.027 186.953C455.027 187.684 455.625 188.282 456.355 188.282Z" fill="#E8E8E8"/>
<path d="M442.558 188.282H451.33C452.059 188.282 452.657 187.684 452.657 186.953C452.657 186.222 452.059 185.623 451.33 185.623H442.558C441.828 185.623 441.231 186.222 441.231 186.953C441.231 187.684 441.828 188.282 442.558 188.282Z" fill="#E8E8E8"/>
<path d="M496.673 172.06H481.402C480.672 172.06 480.075 171.461 480.075 170.73C480.075 169.999 480.672 169.401 481.402 169.401H496.673C497.403 169.401 498 169.999 498 170.73C498 171.461 497.403 172.06 496.673 172.06Z" fill="#E8E8E8"/>
<path d="M513.905 172.06H509.36C508.63 172.06 508.033 171.461 508.033 170.73C508.033 169.999 508.63 169.401 509.36 169.401H513.905C514.634 169.401 515.232 169.999 515.232 170.73C515.232 171.461 514.634 172.06 513.905 172.06Z" fill="#E8E8E8"/>
<path d="M528.303 177.467H525.487C524.757 177.467 524.159 176.869 524.159 176.138C524.159 175.407 524.757 174.808 525.487 174.808H528.303C529.033 174.808 529.63 175.407 529.63 176.138C529.63 176.869 529.033 177.467 528.303 177.467Z" fill="#E8E8E8"/>
<path d="M505.088 172.06H500.543C499.814 172.06 499.216 171.461 499.216 170.73C499.216 169.999 499.814 169.401 500.543 169.401H505.088C505.818 169.401 506.415 169.999 506.415 170.73C506.415 171.461 505.818 172.06 505.088 172.06Z" fill="#E8E8E8"/>
<path d="M528.303 172.06H518.652C517.922 172.06 517.325 171.461 517.325 170.73C517.325 169.999 517.922 169.401 518.652 169.401H528.303C529.033 169.401 529.63 169.999 529.63 170.73C529.63 171.461 529.033 172.06 528.303 172.06Z" fill="#E8E8E8"/>
<path d="M489.128 177.467H481.914C481.184 177.467 480.587 176.869 480.587 176.138C480.587 175.407 481.184 174.808 481.914 174.808H489.128C489.858 174.808 490.455 175.407 490.455 176.138C490.455 176.869 489.858 177.467 489.128 177.467Z" fill="#E8E8E8"/>
<path d="M516.186 196.569H528.303C529.033 196.569 529.63 195.97 529.63 195.239C529.63 194.509 529.033 193.91 528.303 193.91H516.186C515.456 193.91 514.858 194.509 514.858 195.239C514.858 195.97 515.456 196.569 516.186 196.569Z" fill="#E8E8E8"/>
<path d="M497.614 196.569H512.486C513.215 196.569 513.813 195.97 513.813 195.239C513.813 194.509 513.215 193.91 512.486 193.91H497.614C496.884 193.91 496.287 194.509 496.287 195.239C496.287 195.97 496.884 196.569 497.614 196.569Z" fill="#E8E8E8"/>
<path d="M488.938 196.569H493.472C494.202 196.569 494.8 195.97 494.8 195.239C494.8 194.509 494.202 193.91 493.472 193.91H488.938C488.209 193.91 487.611 194.509 487.611 195.239C487.611 195.97 488.209 196.569 488.938 196.569Z" fill="#E8E8E8"/>
<path d="M507.512 201.974H528.303C529.033 201.974 529.63 201.376 529.63 200.645C529.63 199.914 529.033 199.315 528.303 199.315H507.512C506.782 199.315 506.185 199.914 506.185 200.645C506.185 201.378 506.782 201.974 507.512 201.974Z" fill="#E8E8E8"/>
<path d="M488.938 201.974H503.176C503.906 201.974 504.504 201.376 504.504 200.645C504.504 199.914 503.906 199.315 503.176 199.315H488.938C488.209 199.315 487.611 199.914 487.611 200.645C487.611 201.378 488.209 201.974 488.938 201.974Z" fill="#E8E8E8"/>
<path d="M513.128 207.382H528.303C529.033 207.382 529.63 206.783 529.63 206.052C529.63 205.321 529.033 204.723 528.303 204.723H513.128C512.398 204.723 511.801 205.321 511.801 206.052C511.801 206.783 512.398 207.382 513.128 207.382Z" fill="#E8E8E8"/>
<path d="M498.83 207.382H509.093C509.823 207.382 510.42 206.783 510.42 206.052C510.42 205.321 509.823 204.723 509.093 204.723H498.83C498.1 204.723 497.503 205.321 497.503 206.052C497.503 206.783 498.1 207.382 498.83 207.382Z" fill="#E8E8E8"/>
<path d="M488.938 207.382H494.731C495.461 207.382 496.058 206.783 496.058 206.052C496.058 205.321 495.461 204.723 494.731 204.723H488.938C488.209 204.723 487.611 205.321 487.611 206.052C487.611 206.783 488.209 207.382 488.938 207.382Z" fill="#E8E8E8"/>
<path d="M518.573 212.79H528.305C529.035 212.79 529.632 212.191 529.632 211.46C529.632 210.729 529.035 210.131 528.305 210.131H518.573C517.844 210.131 517.246 210.729 517.246 211.46C517.246 212.191 517.841 212.79 518.573 212.79Z" fill="#E8E8E8"/>
<path d="M502.735 212.79H514.528C515.258 212.79 515.855 212.191 515.855 211.46C515.855 210.729 515.258 210.131 514.528 210.131H502.735C502.005 210.131 501.408 210.729 501.408 211.46C501.408 212.191 502.005 212.79 502.735 212.79Z" fill="#E8E8E8"/>
<path d="M488.938 212.79H497.71C498.44 212.79 499.037 212.191 499.037 211.46C499.037 210.729 498.44 210.131 497.71 210.131H488.938C488.209 210.131 487.611 210.729 487.611 211.46C487.611 212.191 488.209 212.79 488.938 212.79Z" fill="#E8E8E8"/>
<path d="M528.303 182.875H521.089C520.359 182.875 519.762 182.276 519.762 181.545C519.762 180.814 520.359 180.216 521.089 180.216H528.303C529.033 180.216 529.63 180.814 529.63 181.545C529.63 182.276 529.033 182.875 528.303 182.875Z" fill="#E8E8E8"/>
<path d="M505.088 177.467H493.342C492.613 177.467 492.015 176.869 492.015 176.138C492.015 175.407 492.613 174.808 493.342 174.808H505.088C505.818 174.808 506.415 175.407 506.415 176.138C506.415 176.869 505.818 177.467 505.088 177.467Z" fill="#E8E8E8"/>
<path d="M521.104 177.467H509.358C508.628 177.467 508.031 176.869 508.031 176.138C508.031 175.407 508.628 174.808 509.358 174.808H521.104C521.833 174.808 522.431 175.407 522.431 176.138C522.431 176.869 521.833 177.467 521.104 177.467Z" fill="#E8E8E8"/>
<path d="M469.805 222.119H476.998C477.728 222.119 478.325 221.521 478.325 220.79C478.325 220.059 477.728 219.46 476.998 219.46H469.805C469.076 219.46 468.478 220.059 468.478 220.79C468.478 221.521 469.076 222.119 469.805 222.119Z" fill="#F38EB1"/>
<path d="M451.234 222.119H466.106C466.835 222.119 467.433 221.521 467.433 220.79C467.433 220.059 466.835 219.46 466.106 219.46H451.234C450.504 219.46 449.906 220.059 449.906 220.79C449.906 221.521 450.504 222.119 451.234 222.119Z" fill="#F38EB1"/>
<path d="M461.132 227.527H477.54C478.27 227.527 478.867 226.928 478.867 226.197C478.867 225.466 478.27 224.868 477.54 224.868H461.132C460.402 224.868 459.805 225.466 459.805 226.197C459.805 226.928 460.402 227.527 461.132 227.527Z" fill="#E8E8E8"/>
<path d="M442.558 227.527H456.796C457.526 227.527 458.123 226.928 458.123 226.197C458.123 225.466 457.526 224.868 456.796 224.868H442.558C441.828 224.868 441.231 225.466 441.231 226.197C441.231 226.928 441.828 227.527 442.558 227.527Z" fill="#E8E8E8"/>
<path d="M502.468 232.934H517.046C517.775 232.934 518.373 232.336 518.373 231.605C518.373 230.874 517.775 230.276 517.046 230.276H502.468C501.738 230.276 501.141 230.874 501.141 231.605C501.141 232.336 501.738 232.934 502.468 232.934Z" fill="#63C7ED"/>
<path d="M483.894 232.934H498.132C498.862 232.934 499.459 232.336 499.459 231.605C499.459 230.874 498.862 230.276 498.132 230.276H483.894C483.164 230.276 482.567 230.874 482.567 231.605C482.567 232.336 483.164 232.934 483.894 232.934Z" fill="#E8E8E8"/>
<path d="M466.748 232.934H479.559C480.288 232.934 480.886 232.336 480.886 231.605C480.886 230.874 480.288 230.276 479.559 230.276H466.748C466.018 230.276 465.421 230.874 465.421 231.605C465.421 232.336 466.018 232.934 466.748 232.934Z" fill="#E8E8E8"/>
<path d="M452.45 232.934H462.713C463.443 232.934 464.04 232.336 464.04 231.605C464.04 230.874 463.443 230.276 462.713 230.276H452.45C451.72 230.276 451.123 230.874 451.123 231.605C451.123 232.336 451.72 232.934 452.45 232.934Z" fill="#E8E8E8"/>
<path d="M442.558 232.934H448.351C449.081 232.934 449.678 232.336 449.678 231.605C449.678 230.874 449.081 230.276 448.351 230.276H442.558C441.828 230.276 441.231 230.874 441.231 231.605C441.231 232.336 441.828 232.934 442.558 232.934Z" fill="#E8E8E8"/>
<path d="M472.193 238.342H479.558C480.288 238.342 480.886 237.744 480.886 237.013C480.886 236.282 480.288 235.683 479.558 235.683H472.193C471.463 235.683 470.866 236.282 470.866 237.013C470.866 237.744 471.461 238.342 472.193 238.342Z" fill="#E8E8E8"/>
<path d="M456.355 238.342H468.147C468.877 238.342 469.475 237.744 469.475 237.013C469.475 236.282 468.877 235.683 468.147 235.683H456.355C455.625 235.683 455.027 236.282 455.027 237.013C455.027 237.744 455.625 238.342 456.355 238.342Z" fill="#E8E8E8"/>
<path d="M442.558 238.342H451.33C452.059 238.342 452.657 237.744 452.657 237.013C452.657 236.282 452.059 235.683 451.33 235.683H442.558C441.828 235.683 441.231 236.282 441.231 237.013C441.231 237.744 441.828 238.342 442.558 238.342Z" fill="#E8E8E8"/>
<path d="M496.673 222.119H481.402C480.672 222.119 480.075 221.521 480.075 220.79C480.075 220.059 480.672 219.46 481.402 219.46H496.673C497.403 219.46 498 220.059 498 220.79C498 221.521 497.403 222.119 496.673 222.119Z" fill="#E8E8E8"/>
<path d="M513.905 222.119H509.36C508.63 222.119 508.033 221.521 508.033 220.79C508.033 220.059 508.63 219.46 509.36 219.46H513.905C514.634 219.46 515.232 220.059 515.232 220.79C515.232 221.521 514.634 222.119 513.905 222.119Z" fill="#E8E8E8"/>
<path d="M528.303 227.527H525.487C524.757 227.527 524.159 226.928 524.159 226.197C524.159 225.466 524.757 224.868 525.487 224.868H528.303C529.033 224.868 529.63 225.466 529.63 226.197C529.63 226.928 529.033 227.527 528.303 227.527Z" fill="#E8E8E8"/>
<path d="M505.088 222.119H500.543C499.814 222.119 499.216 221.521 499.216 220.79C499.216 220.059 499.814 219.46 500.543 219.46H505.088C505.818 219.46 506.415 220.059 506.415 220.79C506.415 221.521 505.818 222.119 505.088 222.119Z" fill="#E8E8E8"/>
<path d="M528.303 222.119H518.652C517.922 222.119 517.325 221.521 517.325 220.79C517.325 220.059 517.922 219.46 518.652 219.46H528.303C529.033 219.46 529.63 220.059 529.63 220.79C529.63 221.521 529.033 222.119 528.303 222.119Z" fill="#E8E8E8"/>
<path d="M489.128 227.527H481.914C481.184 227.527 480.587 226.928 480.587 226.197C480.587 225.466 481.184 224.868 481.914 224.868H489.128C489.858 224.868 490.455 225.466 490.455 226.197C490.455 226.928 489.858 227.527 489.128 227.527Z" fill="#E8E8E8"/>
<path d="M528.303 232.934H521.089C520.359 232.934 519.762 232.336 519.762 231.605C519.762 230.874 520.359 230.276 521.089 230.276H528.303C529.033 230.276 529.63 230.874 529.63 231.605C529.63 232.336 529.033 232.934 528.303 232.934Z" fill="#E8E8E8"/>
<path d="M505.088 227.527H493.342C492.613 227.527 492.015 226.928 492.015 226.197C492.015 225.466 492.613 224.868 493.342 224.868H505.088C505.818 224.868 506.415 225.466 506.415 226.197C506.415 226.928 505.818 227.527 505.088 227.527Z" fill="#E8E8E8"/>
<path d="M521.104 227.527H509.358C508.628 227.527 508.031 226.928 508.031 226.197C508.031 225.466 508.628 224.868 509.358 224.868H521.104C521.833 224.868 522.431 225.466 522.431 226.197C522.431 226.928 521.833 227.527 521.104 227.527Z" fill="#63C7ED"/>
<path d="M453.444 157.931H446.601L445.402 160.725C445.108 161.413 444.958 161.926 444.958 162.266C444.958 162.535 445.086 162.773 445.342 162.978C445.598 163.183 446.153 163.315 447.005 163.375V163.858H441.438V163.375C442.176 163.245 442.654 163.074 442.872 162.867C443.315 162.45 443.806 161.599 444.344 160.321L450.561 145.748H451.018L457.17 160.477C457.665 161.661 458.115 162.428 458.518 162.781C458.921 163.134 459.485 163.333 460.206 163.375V163.858H453.233V163.375C453.937 163.341 454.413 163.224 454.66 163.023C454.908 162.822 455.032 162.578 455.032 162.292C455.032 161.909 454.859 161.304 454.511 160.477L453.444 157.931ZM453.079 156.965L450.081 149.809L447.005 156.965H453.079Z" fill="#92D6E5"/>
<path d="M104.658 170.418C107.923 170.418 110.571 167.766 110.571 164.495C110.571 161.224 107.923 158.573 104.658 158.573C101.393 158.573 98.7456 161.224 98.7456 164.495C98.7456 167.766 101.393 170.418 104.658 170.418Z" fill="#A3E5F9"/>
<path d="M112.211 145.855C109.805 144.878 107.263 144.382 104.656 144.382C102.049 144.382 99.5073 144.878 97.1005 145.855C94.6083 146.868 92.3743 148.354 90.4583 150.273L93.8764 153.697C99.8209 147.742 109.491 147.742 115.435 153.697L118.854 150.273C116.94 148.354 114.704 146.868 112.211 145.855Z" fill="#A3E5F9"/>
<path d="M116.933 134.206C113.024 132.618 108.894 131.812 104.656 131.812C100.418 131.812 96.2897 132.618 92.3786 134.206C88.331 135.85 84.6994 138.267 81.5842 141.386L85.0024 144.81C95.8395 133.954 113.472 133.954 124.31 144.81L127.728 141.386C124.615 138.265 120.983 135.85 116.933 134.206Z" fill="#A3E5F9"/>
<path d="M121.608 122.671C116.21 120.478 110.507 119.366 104.656 119.366C98.8054 119.366 93.102 120.478 87.7037 122.671C82.1134 124.941 77.0992 128.277 72.7998 132.584L76.218 136.008C91.8986 120.301 117.413 120.301 133.094 136.008L136.512 132.584C132.213 128.277 127.199 124.943 121.608 122.671Z" fill="#A3E5F9"/>
<path d="M488.765 102.804H472.071C468.216 102.804 465.062 99.6449 465.062 95.7826V95.0196C465.062 91.1573 468.216 87.9983 472.071 87.9983H488.765C492.621 87.9983 495.775 91.1573 495.775 95.0196V95.7826C495.775 99.6449 492.621 102.804 488.765 102.804Z" fill="#1CCAFF"/>
<path d="M482.972 102.804L487.268 106.164C487.509 106.352 487.842 106.098 487.724 105.816L486.465 102.804H482.972Z" fill="#1CCAFF"/>
<path d="M487.199 97.2126C488.359 97.2126 489.299 96.271 489.299 95.1094C489.299 93.9479 488.359 93.0062 487.199 93.0062C486.04 93.0062 485.1 93.9479 485.1 95.1094C485.1 96.271 486.04 97.2126 487.199 97.2126Z" fill="white"/>
<path d="M482.544 96.1966C482.988 95.1245 482.479 93.8951 481.407 93.4505C480.336 93.006 479.108 93.5148 478.665 94.5868C478.221 95.6589 478.731 96.8883 479.802 97.3328C480.873 97.7774 482.101 97.2687 482.544 96.1966Z" fill="white"/>
<path d="M475.94 96.4893C476.383 95.4173 475.874 94.1878 474.802 93.7433C473.731 93.2987 472.503 93.8075 472.06 94.8796C471.617 95.9516 472.126 97.181 473.197 97.6256C474.268 98.0701 475.496 97.5614 475.94 96.4893Z" fill="white"/>
<path d="M453.408 83.2939H471.307C475.44 83.2939 478.822 79.9062 478.822 75.766V74.9474C478.822 70.8073 475.44 67.4196 471.307 67.4196H453.408C449.275 67.4196 445.893 70.8073 445.893 74.9474V75.766C445.893 79.9062 449.275 83.2939 453.408 83.2939Z" fill="#11304C"/>
<path d="M459.619 83.2939L455.014 86.8976C454.756 87.1006 454.398 86.8249 454.526 86.5235L455.876 83.2961H459.619V83.2939Z" fill="#11304C"/>
<path d="M456.675 76.6404C457.554 75.7598 457.554 74.3321 456.675 73.4515C455.796 72.5709 454.371 72.5708 453.492 73.4514C452.613 74.332 452.613 75.7598 453.492 76.6404C454.371 77.521 455.796 77.521 456.675 76.6404Z" fill="white"/>
<path d="M463.756 76.9532C464.635 76.0726 464.635 74.6449 463.756 73.7643C462.877 72.8837 461.452 72.8837 460.573 73.7643C459.694 74.6449 459.694 76.0726 460.573 76.9532C461.452 77.8338 462.877 77.8338 463.756 76.9532Z" fill="white"/>
<path d="M471.484 76.0251C471.683 74.7958 470.849 73.6375 469.622 73.438C468.395 73.2385 467.239 74.0733 467.04 75.3026C466.84 76.5319 467.674 77.6902 468.901 77.8897C470.128 78.0892 471.284 77.2544 471.484 76.0251Z" fill="white"/>
<path d="M535.374 68.7704C535.374 80.8701 524.71 99.6043 521.26 105.35C520.754 106.19 519.555 106.234 518.989 105.433C515.396 100.342 505.018 84.2899 505.018 68.7682C505.018 60.3704 511.814 53.5629 520.197 53.5629C528.578 53.565 535.374 60.3726 535.374 68.7704Z" fill="#F15F61"/>
<path d="M520.195 79.8313C525.933 79.8313 530.584 75.172 530.584 69.4244C530.584 63.6768 525.933 59.0175 520.195 59.0175C514.457 59.0175 509.806 63.6768 509.806 69.4244C509.806 75.172 514.457 79.8313 520.195 79.8313Z" fill="white"/>
<path d="M428.51 6.12788V269.537C428.51 271.23 427.14 272.602 425.45 272.602H217.407C215.717 272.602 214.348 271.23 214.348 269.537V6.12788C214.348 4.43507 215.717 3.06287 217.407 3.06287H425.45C427.14 3.065 428.51 4.43507 428.51 6.12788Z" fill="white"/>
<path d="M428.51 3.06501V16.2099H214.348V3.06501C214.348 1.3722 215.717 0 217.407 0H425.45C427.14 0 428.51 1.3722 428.51 3.06501Z" fill="#1CCAFF"/>
<path d="M377.258 7.25427V8.95562C377.258 10.191 376.249 11.2042 375.013 11.2042H226.7C225.466 11.2042 224.455 10.1932 224.455 8.95562V7.25427C224.455 6.01886 225.464 5.00574 226.7 5.00574H375.013C376.249 5.00574 377.258 6.01672 377.258 7.25427Z" fill="white"/>
<path d="M393.403 8.51939C393.634 7.0885 392.664 5.74028 391.236 5.50805C389.808 5.27583 388.462 6.24754 388.23 7.67843C387.998 9.10932 388.968 10.4575 390.396 10.6898C391.825 10.922 393.171 9.95027 393.403 8.51939Z" fill="#F3786C"/>
<path d="M401.966 8.52012C402.198 7.08923 401.228 5.74101 399.799 5.50879C398.371 5.27656 397.025 6.24828 396.793 7.67916C396.561 9.11005 397.531 10.4583 398.96 10.6905C400.388 10.9227 401.734 9.95101 401.966 8.52012Z" fill="#FFC448"/>
<path d="M410.529 8.52073C410.761 7.08984 409.791 5.74162 408.363 5.5094C406.934 5.27717 405.588 6.24889 405.357 7.67977C405.125 9.11066 406.095 10.4589 407.523 10.6911C408.952 10.9233 410.297 9.95162 410.529 8.52073Z" fill="#1EA3A3"/>
<path d="M420.769 231.583H223.584V265.303H420.769V231.583Z" fill="#D7F6FF"/>
<path d="M283.239 108.797H223.584V149.083H283.239V108.797Z" fill="#D7F6FF"/>
<path d="M260.754 190.783H223.584V222.175H260.754V190.783Z" fill="#D7F6FF"/>
<path d="M306.379 190.783H269.209V222.175H306.379V190.783Z" fill="#D7F6FF"/>
<path d="M352.004 190.783H314.834V222.175H352.004V190.783Z" fill="#CFEBEE"/>
<path d="M352.003 108.797H292.349V149.083H352.003V108.797Z" fill="#D7F6FF"/>
<path d="M420.769 108.797H361.115V149.083H420.769V108.797Z" fill="#CFEBEE"/>
<path d="M352.004 157.919H223.584V162.879H352.004V157.919Z" fill="#D7F6FF"/>
<path d="M352.004 165.35H223.584V170.311H352.004V165.35Z" fill="#D7F6FF"/>
<path d="M352.004 172.782H223.584V177.743H352.004V172.782Z" fill="#D7F6FF"/>
<path d="M352.004 180.211H223.584V185.172H352.004V180.211Z" fill="#D7F6FF"/>
<path d="M361.437 25.2084H223.584V99.9271H361.437V25.2084Z" fill="#D7F6FF"/>
<path d="M392.262 25.0074H366.884V44.7761H392.262V25.0074Z" fill="#E32E34"/>
<path d="M377.258 29.8635V39.3706L383.922 34.6171L377.258 29.8635Z" fill="white"/>
<path d="M420.769 25.1976H395.902V29.8443H420.769V25.1976Z" fill="#E8E8E8"/>
<path d="M420.769 32.2937H395.902V36.9404H420.769V32.2937Z" fill="#E8E8E8"/>
<path d="M392.262 52.584H366.884V72.3527H392.262V52.584Z" fill="#E32E34"/>
<path d="M420.769 52.584H395.902V57.2307H420.769V52.584Z" fill="#E8E8E8"/>
<path d="M420.769 59.6801H395.902V64.3267H420.769V59.6801Z" fill="#E8E8E8"/>
<path d="M392.262 80.1583H366.884V99.927H392.262V80.1583Z" fill="#E32E34"/>
<path d="M420.769 80.1583H395.902V84.805H420.769V80.1583Z" fill="#E8E8E8"/>
<path d="M420.769 87.2545H395.902V91.9012H420.769V87.2545Z" fill="#E8E8E8"/>
<path d="M377.258 57.6132V67.1202L383.922 62.3667L377.258 57.6132Z" fill="white"/>
<path d="M377.258 85.365V94.8699L383.922 90.1164L377.258 85.365Z" fill="white"/>
<path d="M389.382 157.946H361.437V177.715H389.382V157.946Z" fill="#134160"/>
<path d="M420.766 157.946H393.387V162.593H420.766V157.946Z" fill="#D7F6FF"/>
<path d="M420.766 165.506H393.387V170.153H420.766V165.506Z" fill="#D7F6FF"/>
<path d="M420.766 172.938H393.387V177.585H420.766V172.938Z" fill="#D7F6FF"/>
<path d="M389.382 182.721H361.437V202.489H389.382V182.721Z" fill="#134160"/>
<path d="M420.766 182.721H393.387V187.367H420.766V182.721Z" fill="#D7F6FF"/>
<path d="M420.766 190.283H393.387V194.93H420.766V190.283Z" fill="#D7F6FF"/>
<path d="M420.766 197.714H393.387V202.361H420.766V197.714Z" fill="#D7F6FF"/>
<path d="M420.766 207.615H361.718V214.234H420.766V207.615Z" fill="#D7F6FF"/>
<path d="M420.766 215.983H361.718V222.175H420.766V215.983Z" fill="#D7F6FF"/>
<path opacity="0.1" d="M390.222 370.736C402.465 370.736 412.389 369.811 412.389 368.671C412.389 367.531 402.465 366.606 390.222 366.606C377.98 366.606 368.055 367.531 368.055 368.671C368.055 369.811 377.98 370.736 390.222 370.736Z" fill="black"/>
<path d="M408.916 356.441C408.916 356.441 411.57 358.271 411.184 359.547C410.798 360.823 406.255 366.264 404.949 366.98C403.643 367.696 401.132 368.278 400.453 367.891C399.777 367.504 404.074 363.853 405.598 358.418L408.916 356.441Z" fill="#88491F"/>
<path d="M391.569 305.338C391.569 305.338 393.992 311.977 394.377 315.427C394.758 318.877 397.054 332.058 397.054 332.058C397.054 332.058 401.518 335.869 402.156 339.064C402.794 342.26 406.62 352.863 408.916 356.441C408.916 356.441 407.002 358.737 405.6 358.42C405.6 358.42 391.825 336.136 390.549 333.894C389.273 331.654 380.431 306.794 380.431 306.794L391.569 305.338Z" fill="#404040"/>
<path d="M384.978 363.373C384.978 363.373 386.049 367.218 385.304 368.487C385.304 368.487 382.55 368.224 381.414 368.793C380.277 369.362 372.015 370.195 371.01 369.319C371.01 369.319 371.36 368.487 373.283 368.049C375.205 367.611 379.701 364.52 380.01 363.373H384.978Z" fill="#88491F"/>
<path d="M375.308 306.952C375.308 306.952 376.788 330.696 377.094 337.068C377.399 343.439 380.012 363.373 380.012 363.373C380.012 363.373 382.714 364.108 384.978 363.373C384.978 363.373 384.28 352.427 384.978 350.508C385.675 348.588 386.198 339.686 384.367 336.719C384.367 336.719 391.878 313.165 388.658 305.792L375.308 306.952Z" fill="#4A4A4A"/>
<path d="M358.3 253.389C358.3 253.389 356.03 256.897 360.848 258.694C360.848 258.694 368.896 268.49 369.69 269.041C370.012 269.266 371.128 270.428 372.453 271.811C373.272 269.27 374.569 268.148 375.395 267.671C374.395 266.81 373.607 266.113 373.304 265.741C372.065 264.215 362.911 257.942 362.704 257.183C362.497 256.424 362.979 254.563 361.328 253.667C359.676 252.771 356.853 249.739 356.442 250.014C356.03 250.286 358.3 253.389 358.3 253.389Z" fill="#FEDEBB"/>
<path d="M372.453 271.809C374.384 273.823 376.759 276.302 377.779 277.037C379.498 278.279 381.991 277.313 382.914 275.795C383.648 274.588 378.493 270.334 375.397 267.669C374.572 268.146 373.274 269.268 372.453 271.809Z" fill="#EE8281"/>
<path d="M379.153 268.832L379.532 270.336L379.904 271.816L380.335 273.517L385.36 272.816L385.123 270.398L384.741 268.011L379.153 268.832Z" fill="#FEDEBB"/>
<path d="M383.902 272.489C381.801 272.867 376.345 273.173 374.761 284.296C373.178 295.419 375.308 306.952 375.308 306.952C375.308 306.952 383.875 307.689 391.569 305.34C391.569 305.34 390.613 291.866 391.131 287.22C391.65 282.573 389.522 271.478 383.902 272.489Z" fill="#EF5B59"/>
<path d="M376.17 305.242C376.217 306.619 377.591 309.132 378.205 309.179C378.822 309.226 381.519 307.615 380.217 303.727C380.217 303.727 389.661 294.812 389.661 292.345C389.661 291.433 389.26 289.994 388.66 288.378C387.374 288.906 385.197 289.894 384.265 290.875C384.265 290.875 379.641 300.548 378.474 301.117C377.305 301.686 376.121 303.866 376.17 305.242Z" fill="#FEDEBB"/>
<path d="M379.955 283.856C381.28 286.275 384.263 290.875 384.263 290.875C385.193 289.894 387.372 288.906 388.658 288.378C387.639 285.627 386.043 282.361 384.88 280.301C383.034 277.029 382.181 275.558 379.957 277.029C377.706 278.514 378.63 281.436 379.955 283.856Z" fill="#EE8281"/>
<path opacity="0.1" d="M379.532 270.337L379.904 271.816C380.612 271.516 382.34 270.689 382.4 269.695L379.532 270.337Z" fill="black"/>
<path d="M382.951 260.346C380.224 259.816 379.223 260.496 378.528 261.939C377.832 263.381 376.688 270.101 377.235 270.948C377.781 271.794 383.843 271.296 384.739 268.011C385.635 264.726 386.529 261.043 382.951 260.346Z" fill="#FEDEBB"/>
<path d="M381.316 265.512C381.316 265.512 380.52 263.948 380.868 261.671C380.868 261.671 378.128 261.789 378.508 258.694C378.508 258.694 382.968 259.308 385.415 258.927C387.862 258.547 389.552 263.51 387.222 266.72C384.892 269.93 385.125 270.398 385.125 270.398C385.125 270.398 381.269 270.373 381.316 265.512Z" fill="#83421D"/>
<path d="M380.548 264.969C380.548 264.969 381.481 263.452 382.325 264.356C383.17 265.26 381.743 266.925 380.548 266.953V264.969Z" fill="#FEDEBB"/>
<path d="M416.356 139.998L411.081 145.282L425.186 159.412L430.461 154.128L416.356 139.998Z" fill="#F6892E"/>
<path d="M348.08 76.8839C329.457 95.539 329.457 125.785 348.08 144.44C366.702 163.095 396.897 163.095 415.52 144.44C434.142 125.785 434.142 95.539 415.52 76.8839C396.897 58.2288 366.702 58.2288 348.08 76.8839ZM412.202 141.117C395.411 157.936 368.188 157.936 351.397 141.117C334.607 124.298 334.607 97.0266 351.397 80.2075C368.188 63.3885 395.411 63.3885 412.202 80.2075C428.992 97.0266 428.992 124.298 412.202 141.117Z" fill="#1D4463"/>
<path opacity="0.5" d="M381.801 153.729C405.546 153.729 424.795 134.447 424.795 110.661C424.795 86.875 405.546 67.5927 381.801 67.5927C358.056 67.5927 338.806 86.875 338.806 110.661C338.806 134.447 358.056 153.729 381.801 153.729Z" fill="#9EDCF2"/>
<path d="M431.155 152.505L485.878 207.322C487.372 208.818 487.372 211.263 485.878 212.76L483.719 214.923C482.226 216.419 479.785 216.417 478.291 214.923L423.568 160.105C422.663 159.199 422.307 157.942 422.501 156.76L427.816 151.436C428.996 151.239 430.251 151.596 431.155 152.505Z" fill="#1D4463"/>
<path d="M431.615 152.971L424.029 160.57L477.671 214.304L485.257 206.705L431.615 152.971Z" fill="#1D4463"/>
<path d="M242.171 82.5971L241.667 81.7336L275.999 61.6828L276.123 61.6785L310.221 67.5542L341.371 41.9291L341.877 42.7926L310.511 68.5438L310.388 68.5502L276.287 62.6724L242.171 82.5971Z" fill="#68C6B7"/>
<path d="M337.887 41.243L341.804 46.0906L346.195 38.7401L337.887 41.243Z" fill="#68C6B7"/>
<path d="M244.105 84.3575C245.313 83.1472 245.313 81.1849 244.105 79.9746C242.896 78.7643 240.937 78.7643 239.729 79.9746C238.521 81.1849 238.521 83.1472 239.729 84.3575C240.937 85.5678 242.896 85.5678 244.105 84.3575Z" fill="#1D4463"/>
<path d="M279.164 62.9079C279.557 61.2421 278.527 59.5729 276.864 59.1795C275.201 58.7862 273.535 59.8177 273.142 61.4835C272.75 63.1493 273.779 64.8185 275.442 65.2118C277.105 65.6052 278.772 64.5737 279.164 62.9079Z" fill="#1D4463"/>
<path d="M311.558 70.908C313.136 70.2529 313.886 68.4399 313.232 66.8585C312.578 65.2771 310.768 64.5262 309.189 65.1812C307.611 65.8363 306.861 67.6493 307.515 69.2307C308.169 70.8121 309.979 71.563 311.558 70.908Z" fill="#1D4463"/>
<path d="M610.049 189.02C609.416 187.526 608.511 186.183 607.359 185.029C606.207 183.875 604.867 182.969 603.375 182.334C601.826 181.673 600.183 181.34 598.493 181.34H583.527C587.946 183.227 589.333 185.912 590.353 187.806H598.493C601.854 187.806 604.587 190.544 604.587 193.91C604.587 197.276 601.854 200.014 598.493 200.014H588.196L579.153 199.704C576.732 198.897 574.978 196.605 574.978 193.91C574.978 193.004 575.176 192.145 575.53 191.371H568.781C568.611 192.2 568.523 193.049 568.523 193.91C568.523 195.603 568.858 197.246 569.515 198.8C569.692 199.217 569.891 199.623 570.111 200.016C570.111 200.016 573.226 205.58 579.153 206.335C579.785 206.433 580.425 206.482 581.074 206.482H598.493C600.181 206.482 601.824 206.149 603.375 205.488C604.867 204.853 606.207 203.947 607.359 202.793C608.511 201.639 609.416 200.296 610.049 198.802C610.709 197.251 611.042 195.605 611.042 193.912C611.042 192.219 610.707 190.574 610.049 189.02ZM588.789 189.02C588.612 188.603 588.414 188.197 588.194 187.803C586.005 183.005 579.151 181.485 579.151 181.485C578.52 181.387 577.88 181.338 577.233 181.338H559.813C558.124 181.338 556.483 181.673 554.932 182.332C553.44 182.967 552.1 183.873 550.948 185.027C549.796 186.181 548.891 187.523 548.257 189.018C547.598 190.571 547.265 192.215 547.265 193.908C547.265 195.601 547.6 197.244 548.257 198.798C548.891 200.292 549.796 201.635 550.948 202.789C552.1 203.943 553.44 204.849 554.932 205.484C556.481 206.144 558.124 206.478 559.813 206.478H574.308C572.306 205.227 569.991 204.77 567.776 200.012H559.813C556.453 200.012 553.72 197.274 553.72 193.908C553.72 190.541 556.453 187.803 559.813 187.803H570.111L579.153 188.113C581.577 188.921 583.329 191.213 583.329 193.908C583.329 195.006 583.039 196.039 582.529 196.93H589.416C589.662 195.947 589.783 194.936 589.783 193.908C589.781 192.217 589.448 190.574 588.789 189.02Z" fill="#A3E5F9"/>
</g>
<defs>
<clipPath id="clip0_2_1434">
<rect width="670" height="397" fill="white"/>
</clipPath>
</defs>
</svg>
