<svg width="1124" height="269" viewBox="0 0 1124 269" fill="none" xmlns="http://www.w3.org/2000/svg">
<path d="M61.725 6.01C63.225 6.01 64.555 6.325 65.715 6.955C66.875 7.585 67.805 8.42 68.505 9.46C69.205 10.5 69.62 11.63 69.75 12.85H67.23C67.06 11.98 66.74 11.185 66.27 10.465C65.81 9.745 65.195 9.17 64.425 8.74C63.655 8.31 62.74 8.095 61.68 8.095C60.28 8.095 59.1 8.42 58.14 9.07C57.19 9.72 56.47 10.715 55.98 12.055C55.5 13.385 55.26 15.08 55.26 17.14C55.26 20.24 55.8 22.525 56.88 23.995C57.97 25.465 59.57 26.2 61.68 26.2C62.74 26.2 63.655 25.98 64.425 25.54C65.195 25.09 65.81 24.5 66.27 23.77C66.74 23.03 67.06 22.225 67.23 21.355H69.75C69.64 22.245 69.39 23.11 69 23.95C68.62 24.78 68.095 25.525 67.425 26.185C66.765 26.835 65.955 27.35 64.995 27.73C64.045 28.11 62.955 28.3 61.725 28.3C59.795 28.3 58.155 27.865 56.805 26.995C55.465 26.115 54.44 24.845 53.73 23.185C53.02 21.515 52.665 19.49 52.665 17.11C52.665 14.73 53.015 12.715 53.715 11.065C54.425 9.415 55.455 8.16 56.805 7.3C58.155 6.44 59.795 6.01 61.725 6.01ZM79.7913 28.3C78.3913 28.3 77.1613 28 76.1013 27.4C75.0513 26.79 74.2363 25.89 73.6563 24.7C73.0763 23.51 72.7863 22.045 72.7863 20.305C72.7863 18.685 73.0513 17.265 73.5813 16.045C74.1213 14.825 74.9113 13.88 75.9513 13.21C76.9913 12.53 78.2763 12.19 79.8063 12.19C81.2063 12.19 82.4213 12.5 83.4513 13.12C84.4913 13.73 85.2963 14.64 85.8663 15.85C86.4463 17.05 86.7363 18.535 86.7363 20.305C86.7363 21.885 86.4763 23.275 85.9563 24.475C85.4363 25.675 84.6613 26.615 83.6313 27.295C82.6113 27.965 81.3313 28.3 79.7913 28.3ZM79.8063 26.41C80.7763 26.41 81.6013 26.17 82.2813 25.69C82.9713 25.21 83.4963 24.51 83.8563 23.59C84.2263 22.67 84.4113 21.555 84.4113 20.245C84.4113 19.065 84.2513 18.01 83.9313 17.08C83.6113 16.15 83.1113 15.42 82.4313 14.89C81.7513 14.35 80.8763 14.08 79.8063 14.08C78.8163 14.08 77.9713 14.32 77.2713 14.8C76.5813 15.27 76.0513 15.965 75.6813 16.885C75.3113 17.805 75.1263 18.925 75.1263 20.245C75.1263 21.425 75.2863 22.48 75.6063 23.41C75.9363 24.33 76.4463 25.06 77.1363 25.6C77.8263 26.14 78.7163 26.41 79.8063 26.41ZM90.5484 28V12.49H92.7984V14.755C93.0584 14.305 93.4134 13.89 93.8634 13.51C94.3234 13.13 94.8784 12.825 95.5284 12.595C96.1884 12.365 96.9284 12.25 97.7484 12.25C98.7484 12.25 99.6584 12.45 100.478 12.85C101.308 13.24 101.968 13.85 102.458 14.68C102.948 15.51 103.193 16.575 103.193 17.875V28H100.853V18.085C100.853 16.765 100.518 15.79 99.8484 15.16C99.1784 14.53 98.2934 14.215 97.1934 14.215C96.4434 14.215 95.7384 14.335 95.0784 14.575C94.4184 14.815 93.8884 15.18 93.4884 15.67C93.0884 16.16 92.8884 16.775 92.8884 17.515V28H90.5484ZM112.793 28.3C111.713 28.3 110.718 28.135 109.808 27.805C108.908 27.465 108.163 26.95 107.573 26.26C106.993 25.56 106.628 24.67 106.478 23.59H108.653C108.793 24.21 109.048 24.735 109.418 25.165C109.788 25.595 110.258 25.925 110.828 26.155C111.408 26.375 112.063 26.485 112.793 26.485C113.893 26.485 114.778 26.275 115.448 25.855C116.118 25.425 116.453 24.77 116.453 23.89C116.453 23.28 116.278 22.79 115.928 22.42C115.588 22.05 115.068 21.78 114.368 21.61L111.023 20.755C109.803 20.445 108.833 19.98 108.113 19.36C107.393 18.73 107.028 17.855 107.018 16.735C107.018 15.845 107.228 15.06 107.648 14.38C108.078 13.7 108.718 13.165 109.568 12.775C110.418 12.385 111.483 12.19 112.763 12.19C114.393 12.19 115.708 12.555 116.708 13.285C117.708 14.015 118.238 15.105 118.298 16.555H116.168C116.068 15.765 115.728 15.14 115.148 14.68C114.568 14.21 113.768 13.975 112.748 13.975C111.698 13.975 110.843 14.19 110.183 14.62C109.533 15.05 109.208 15.715 109.208 16.615C109.208 17.215 109.433 17.685 109.883 18.025C110.333 18.355 110.988 18.63 111.848 18.85L115.118 19.705C115.798 19.885 116.358 20.125 116.798 20.425C117.248 20.715 117.603 21.045 117.863 21.415C118.133 21.775 118.323 22.16 118.433 22.57C118.553 22.98 118.613 23.375 118.613 23.755C118.613 24.685 118.388 25.49 117.938 26.17C117.488 26.85 116.828 27.375 115.958 27.745C115.098 28.115 114.043 28.3 112.793 28.3ZM129.768 14.245H126.258V24.25C126.258 24.85 126.313 25.29 126.423 25.57C126.543 25.84 126.748 26.015 127.038 26.095C127.338 26.165 127.753 26.2 128.283 26.2H129.873V27.82C129.683 27.89 129.398 27.95 129.018 28C128.648 28.04 128.203 28.06 127.683 28.06C126.693 28.06 125.923 27.92 125.373 27.64C124.833 27.36 124.453 26.945 124.233 26.395C124.013 25.845 123.903 25.155 123.903 24.325V14.245H121.383V12.49H123.963L124.518 8.02H126.258V12.475H129.768V14.245ZM138.094 28.3C137.084 28.3 136.199 28.125 135.439 27.775C134.679 27.415 134.084 26.905 133.654 26.245C133.234 25.585 133.024 24.79 133.024 23.86C133.024 22.14 133.609 20.865 134.779 20.035C135.959 19.205 137.864 18.755 140.494 18.685L143.494 18.595V17.305C143.494 16.295 143.184 15.49 142.564 14.89C141.954 14.28 141.009 13.98 139.729 13.99C138.769 13.99 137.934 14.215 137.224 14.665C136.524 15.105 136.079 15.815 135.889 16.795H133.759C133.819 15.825 134.094 15 134.584 14.32C135.074 13.63 135.764 13.105 136.654 12.745C137.544 12.375 138.609 12.19 139.849 12.19C141.129 12.19 142.204 12.38 143.074 12.76C143.954 13.13 144.619 13.69 145.069 14.44C145.519 15.18 145.744 16.1 145.744 17.2V28H143.734L143.569 25.015C142.949 26.245 142.159 27.1 141.199 27.58C140.249 28.06 139.214 28.3 138.094 28.3ZM138.754 26.545C139.314 26.545 139.869 26.445 140.419 26.245C140.979 26.045 141.489 25.77 141.949 25.42C142.409 25.07 142.779 24.68 143.059 24.25C143.339 23.82 143.484 23.38 143.494 22.93V20.17L140.989 20.215C139.679 20.235 138.604 20.365 137.764 20.605C136.934 20.845 136.314 21.215 135.904 21.715C135.504 22.205 135.304 22.85 135.304 23.65C135.304 24.56 135.624 25.27 136.264 25.78C136.904 26.29 137.734 26.545 138.754 26.545ZM150.695 28V12.49H152.945V14.755C153.205 14.305 153.56 13.89 154.01 13.51C154.47 13.13 155.025 12.825 155.675 12.595C156.335 12.365 157.075 12.25 157.895 12.25C158.895 12.25 159.805 12.45 160.625 12.85C161.455 13.24 162.115 13.85 162.605 14.68C163.095 15.51 163.34 16.575 163.34 17.875V28H161V18.085C161 16.765 160.665 15.79 159.995 15.16C159.325 14.53 158.44 14.215 157.34 14.215C156.59 14.215 155.885 14.335 155.225 14.575C154.565 14.815 154.035 15.18 153.635 15.67C153.235 16.16 153.035 16.775 153.035 17.515V28H150.695ZM174.563 14.245H171.053V24.25C171.053 24.85 171.108 25.29 171.218 25.57C171.338 25.84 171.543 26.015 171.833 26.095C172.133 26.165 172.548 26.2 173.078 26.2H174.668V27.82C174.478 27.89 174.193 27.95 173.812 28C173.442 28.04 172.998 28.06 172.478 28.06C171.488 28.06 170.718 27.92 170.168 27.64C169.628 27.36 169.248 26.945 169.028 26.395C168.808 25.845 168.698 25.155 168.698 24.325V14.245H166.178V12.49H168.758L169.313 8.02H171.053V12.475H174.563V14.245ZM190.067 28.3C189.057 28.3 188.172 28.125 187.412 27.775C186.652 27.415 186.057 26.905 185.627 26.245C185.207 25.585 184.997 24.79 184.997 23.86C184.997 22.14 185.582 20.865 186.752 20.035C187.932 19.205 189.837 18.755 192.467 18.685L195.467 18.595V17.305C195.467 16.295 195.157 15.49 194.537 14.89C193.927 14.28 192.982 13.98 191.702 13.99C190.742 13.99 189.907 14.215 189.197 14.665C188.497 15.105 188.052 15.815 187.862 16.795H185.732C185.792 15.825 186.067 15 186.557 14.32C187.047 13.63 187.737 13.105 188.627 12.745C189.517 12.375 190.582 12.19 191.822 12.19C193.102 12.19 194.177 12.38 195.047 12.76C195.927 13.13 196.592 13.69 197.042 14.44C197.492 15.18 197.717 16.1 197.717 17.2V28H195.707L195.542 25.015C194.922 26.245 194.132 27.1 193.172 27.58C192.222 28.06 191.187 28.3 190.067 28.3ZM190.727 26.545C191.287 26.545 191.842 26.445 192.392 26.245C192.952 26.045 193.462 25.77 193.922 25.42C194.382 25.07 194.752 24.68 195.032 24.25C195.312 23.82 195.457 23.38 195.467 22.93V20.17L192.962 20.215C191.652 20.235 190.577 20.365 189.737 20.605C188.907 20.845 188.287 21.215 187.877 21.715C187.477 22.205 187.277 22.85 187.277 23.65C187.277 24.56 187.597 25.27 188.237 25.78C188.877 26.29 189.707 26.545 190.727 26.545ZM202.668 28V12.49H204.918V14.755C205.178 14.305 205.533 13.89 205.983 13.51C206.443 13.13 206.998 12.825 207.648 12.595C208.308 12.365 209.048 12.25 209.868 12.25C210.868 12.25 211.778 12.45 212.598 12.85C213.428 13.24 214.088 13.85 214.578 14.68C215.068 15.51 215.313 16.575 215.313 17.875V28H212.973V18.085C212.973 16.765 212.638 15.79 211.968 15.16C211.298 14.53 210.413 14.215 209.313 14.215C208.563 14.215 207.858 14.335 207.198 14.575C206.538 14.815 206.008 15.18 205.608 15.67C205.208 16.16 205.008 16.775 205.008 17.515V28H202.668ZM225.401 28.3C223.401 28.3 221.811 27.62 220.631 26.26C219.451 24.89 218.861 22.865 218.861 20.185C218.861 18.575 219.096 17.175 219.566 15.985C220.036 14.785 220.741 13.855 221.681 13.195C222.631 12.525 223.816 12.19 225.236 12.19C226.036 12.19 226.736 12.295 227.336 12.505C227.936 12.705 228.446 12.96 228.866 13.27C229.286 13.58 229.626 13.895 229.886 14.215C230.146 14.535 230.331 14.81 230.441 15.04V5.71H232.811V28H230.966L230.726 24.82C230.636 25.09 230.486 25.42 230.276 25.81C230.066 26.2 229.761 26.585 229.361 26.965C228.961 27.345 228.436 27.665 227.786 27.925C227.136 28.175 226.341 28.3 225.401 28.3ZM225.761 26.44C227.461 26.44 228.666 25.94 229.376 24.94C230.086 23.93 230.441 22.295 230.441 20.035C230.431 18.785 230.271 17.715 229.961 16.825C229.651 15.935 229.161 15.255 228.491 14.785C227.831 14.305 226.946 14.065 225.836 14.065C224.466 14.065 223.356 14.545 222.506 15.505C221.666 16.465 221.246 17.975 221.246 20.035C221.246 22.035 221.621 23.605 222.371 24.745C223.131 25.875 224.261 26.44 225.761 26.44ZM250.019 28.3C248.939 28.3 247.944 28.135 247.034 27.805C246.134 27.465 245.389 26.95 244.799 26.26C244.219 25.56 243.854 24.67 243.704 23.59H245.879C246.019 24.21 246.274 24.735 246.644 25.165C247.014 25.595 247.484 25.925 248.054 26.155C248.634 26.375 249.289 26.485 250.019 26.485C251.119 26.485 252.004 26.275 252.674 25.855C253.344 25.425 253.679 24.77 253.679 23.89C253.679 23.28 253.504 22.79 253.154 22.42C252.814 22.05 252.294 21.78 251.594 21.61L248.249 20.755C247.029 20.445 246.059 19.98 245.339 19.36C244.619 18.73 244.254 17.855 244.244 16.735C244.244 15.845 244.454 15.06 244.874 14.38C245.304 13.7 245.944 13.165 246.794 12.775C247.644 12.385 248.709 12.19 249.989 12.19C251.619 12.19 252.934 12.555 253.934 13.285C254.934 14.015 255.464 15.105 255.524 16.555H253.394C253.294 15.765 252.954 15.14 252.374 14.68C251.794 14.21 250.994 13.975 249.974 13.975C248.924 13.975 248.069 14.19 247.409 14.62C246.759 15.05 246.434 15.715 246.434 16.615C246.434 17.215 246.659 17.685 247.109 18.025C247.559 18.355 248.214 18.63 249.074 18.85L252.344 19.705C253.024 19.885 253.584 20.125 254.024 20.425C254.474 20.715 254.829 21.045 255.089 21.415C255.359 21.775 255.549 22.16 255.659 22.57C255.779 22.98 255.839 23.375 255.839 23.755C255.839 24.685 255.614 25.49 255.164 26.17C254.714 26.85 254.054 27.375 253.184 27.745C252.324 28.115 251.269 28.3 250.019 28.3ZM266.994 14.245H263.484V24.25C263.484 24.85 263.539 25.29 263.649 25.57C263.769 25.84 263.974 26.015 264.264 26.095C264.564 26.165 264.979 26.2 265.509 26.2H267.099V27.82C266.909 27.89 266.624 27.95 266.244 28C265.874 28.04 265.429 28.06 264.909 28.06C263.919 28.06 263.149 27.92 262.599 27.64C262.059 27.36 261.679 26.945 261.459 26.395C261.239 25.845 261.129 25.155 261.129 24.325V14.245H258.609V12.49H261.189L261.744 8.02H263.484V12.475H266.994V14.245ZM272.372 20.785C272.372 21.825 272.542 22.77 272.882 23.62C273.222 24.47 273.747 25.15 274.457 25.66C275.167 26.17 276.067 26.425 277.157 26.425C278.207 26.425 279.112 26.18 279.872 25.69C280.632 25.19 281.107 24.485 281.297 23.575H283.547C283.357 24.615 282.942 25.485 282.302 26.185C281.672 26.885 280.907 27.415 280.007 27.775C279.117 28.125 278.177 28.3 277.187 28.3C275.767 28.3 274.512 27.99 273.422 27.37C272.342 26.74 271.497 25.835 270.887 24.655C270.287 23.475 269.987 22.055 269.987 20.395C269.987 18.745 270.262 17.305 270.812 16.075C271.362 14.835 272.157 13.88 273.197 13.21C274.247 12.53 275.512 12.19 276.992 12.19C278.422 12.19 279.632 12.5 280.622 13.12C281.612 13.73 282.367 14.605 282.887 15.745C283.407 16.885 283.667 18.245 283.667 19.825V20.785H272.372ZM272.387 19.12H281.387C281.387 18.16 281.227 17.295 280.907 16.525C280.587 15.755 280.102 15.145 279.452 14.695C278.802 14.245 277.977 14.02 276.977 14.02C275.917 14.02 275.047 14.275 274.367 14.785C273.697 15.285 273.197 15.925 272.867 16.705C272.537 17.485 272.377 18.29 272.387 19.12ZM291.698 28.3C290.688 28.3 289.803 28.125 289.043 27.775C288.283 27.415 287.688 26.905 287.258 26.245C286.838 25.585 286.628 24.79 286.628 23.86C286.628 22.14 287.213 20.865 288.383 20.035C289.563 19.205 291.468 18.755 294.098 18.685L297.098 18.595V17.305C297.098 16.295 296.788 15.49 296.168 14.89C295.558 14.28 294.613 13.98 293.333 13.99C292.373 13.99 291.538 14.215 290.828 14.665C290.128 15.105 289.683 15.815 289.493 16.795H287.363C287.423 15.825 287.698 15 288.188 14.32C288.678 13.63 289.368 13.105 290.258 12.745C291.148 12.375 292.213 12.19 293.453 12.19C294.733 12.19 295.808 12.38 296.678 12.76C297.558 13.13 298.223 13.69 298.673 14.44C299.123 15.18 299.348 16.1 299.348 17.2V28H297.338L297.173 25.015C296.553 26.245 295.763 27.1 294.803 27.58C293.853 28.06 292.818 28.3 291.698 28.3ZM292.358 26.545C292.918 26.545 293.473 26.445 294.023 26.245C294.583 26.045 295.093 25.77 295.553 25.42C296.013 25.07 296.383 24.68 296.663 24.25C296.943 23.82 297.088 23.38 297.098 22.93V20.17L294.593 20.215C293.283 20.235 292.208 20.365 291.368 20.605C290.538 20.845 289.918 21.215 289.508 21.715C289.108 22.205 288.908 22.85 288.908 23.65C288.908 24.56 289.228 25.27 289.868 25.78C290.508 26.29 291.338 26.545 292.358 26.545ZM309.863 28.3C307.863 28.3 306.273 27.62 305.093 26.26C303.913 24.89 303.323 22.865 303.323 20.185C303.323 18.575 303.558 17.175 304.028 15.985C304.498 14.785 305.203 13.855 306.143 13.195C307.093 12.525 308.278 12.19 309.698 12.19C310.498 12.19 311.198 12.295 311.798 12.505C312.398 12.705 312.908 12.96 313.328 13.27C313.748 13.58 314.088 13.895 314.348 14.215C314.608 14.535 314.793 14.81 314.903 15.04V5.71H317.273V28H315.428L315.188 24.82C315.098 25.09 314.948 25.42 314.738 25.81C314.528 26.2 314.223 26.585 313.823 26.965C313.423 27.345 312.898 27.665 312.248 27.925C311.598 28.175 310.803 28.3 309.863 28.3ZM310.223 26.44C311.923 26.44 313.128 25.94 313.838 24.94C314.548 23.93 314.903 22.295 314.903 20.035C314.893 18.785 314.733 17.715 314.423 16.825C314.113 15.935 313.623 15.255 312.953 14.785C312.293 14.305 311.408 14.065 310.298 14.065C308.928 14.065 307.818 14.545 306.968 15.505C306.128 16.465 305.708 17.975 305.708 20.035C305.708 22.035 306.083 23.605 306.833 24.745C307.593 25.875 308.723 26.44 310.223 26.44ZM323.372 32.95C322.502 32.95 321.912 32.89 321.602 32.77C321.292 32.66 321.137 32.605 321.137 32.605V31.075L322.727 31.09C323.277 31.11 323.737 31.07 324.107 30.97C324.487 30.87 324.792 30.73 325.022 30.55C325.252 30.38 325.432 30.185 325.562 29.965C325.702 29.755 325.817 29.545 325.907 29.335L326.522 27.7L320.462 12.49H322.832L327.647 24.97L332.402 12.49H334.697L328.097 29.455C327.727 30.355 327.307 31.055 326.837 31.555C326.377 32.065 325.857 32.425 325.277 32.635C324.697 32.845 324.062 32.95 323.372 32.95ZM347.47 12.49V28H345.19V12.49H347.47ZM347.545 6.325V8.905H345.085V6.325H347.545ZM352.785 28V12.49H355.035V14.755C355.295 14.305 355.65 13.89 356.1 13.51C356.56 13.13 357.115 12.825 357.765 12.595C358.425 12.365 359.165 12.25 359.985 12.25C360.985 12.25 361.895 12.45 362.715 12.85C363.545 13.24 364.205 13.85 364.695 14.68C365.185 15.51 365.43 16.575 365.43 17.875V28H363.09V18.085C363.09 16.765 362.755 15.79 362.085 15.16C361.415 14.53 360.53 14.215 359.43 14.215C358.68 14.215 357.975 14.335 357.315 14.575C356.655 14.815 356.125 15.18 355.725 15.67C355.325 16.16 355.125 16.775 355.125 17.515V28H352.785ZM376.013 12.19C377.083 12.19 378.053 12.39 378.923 12.79C379.793 13.19 380.513 13.765 381.083 14.515C381.653 15.255 382.018 16.15 382.178 17.2H380.033C379.933 16.62 379.708 16.1 379.358 15.64C379.008 15.17 378.548 14.8 377.978 14.53C377.418 14.26 376.768 14.125 376.028 14.125C374.618 14.125 373.468 14.63 372.578 15.64C371.698 16.64 371.258 18.185 371.258 20.275C371.258 22.145 371.658 23.645 372.458 24.775C373.268 25.895 374.468 26.455 376.058 26.455C376.798 26.455 377.448 26.32 378.008 26.05C378.578 25.77 379.038 25.4 379.388 24.94C379.738 24.47 379.958 23.955 380.048 23.395H382.163C382.013 24.415 381.648 25.295 381.068 26.035C380.488 26.765 379.763 27.325 378.893 27.715C378.033 28.105 377.073 28.3 376.013 28.3C374.633 28.3 373.413 28 372.353 27.4C371.293 26.8 370.463 25.905 369.863 24.715C369.273 23.525 368.978 22.05 368.978 20.29C368.978 18.68 369.248 17.27 369.788 16.06C370.328 14.84 371.118 13.89 372.158 13.21C373.208 12.53 374.493 12.19 376.013 12.19ZM392.155 28.3C390.755 28.3 389.525 28 388.465 27.4C387.415 26.79 386.6 25.89 386.02 24.7C385.44 23.51 385.15 22.045 385.15 20.305C385.15 18.685 385.415 17.265 385.945 16.045C386.485 14.825 387.275 13.88 388.315 13.21C389.355 12.53 390.64 12.19 392.17 12.19C393.57 12.19 394.785 12.5 395.815 13.12C396.855 13.73 397.66 14.64 398.23 15.85C398.81 17.05 399.1 18.535 399.1 20.305C399.1 21.885 398.84 23.275 398.32 24.475C397.8 25.675 397.025 26.615 395.995 27.295C394.975 27.965 393.695 28.3 392.155 28.3ZM392.17 26.41C393.14 26.41 393.965 26.17 394.645 25.69C395.335 25.21 395.86 24.51 396.22 23.59C396.59 22.67 396.775 21.555 396.775 20.245C396.775 19.065 396.615 18.01 396.295 17.08C395.975 16.15 395.475 15.42 394.795 14.89C394.115 14.35 393.24 14.08 392.17 14.08C391.18 14.08 390.335 14.32 389.635 14.8C388.945 15.27 388.415 15.965 388.045 16.885C387.675 17.805 387.49 18.925 387.49 20.245C387.49 21.425 387.65 22.48 387.97 23.41C388.3 24.33 388.81 25.06 389.5 25.6C390.19 26.14 391.08 26.41 392.17 26.41ZM402.912 28V12.49H405.162V14.755C405.572 14.065 406.142 13.465 406.872 12.955C407.612 12.445 408.582 12.19 409.782 12.19C410.362 12.19 410.947 12.285 411.537 12.475C412.127 12.665 412.667 12.95 413.157 13.33C413.647 13.71 414.022 14.18 414.282 14.74C414.762 13.96 415.412 13.34 416.232 12.88C417.052 12.42 417.982 12.19 419.022 12.19C419.562 12.19 420.122 12.27 420.702 12.43C421.292 12.59 421.842 12.875 422.352 13.285C422.862 13.685 423.272 14.26 423.582 15.01C423.902 15.75 424.062 16.705 424.062 17.875V28H421.722V18.085C421.722 17.055 421.562 16.265 421.242 15.715C420.922 15.155 420.507 14.765 419.997 14.545C419.487 14.325 418.942 14.215 418.362 14.215C417.842 14.215 417.292 14.315 416.712 14.515C416.142 14.705 415.652 15.04 415.242 15.52C414.842 16 414.642 16.665 414.642 17.515V28H412.302V17.155C412.302 16.505 412.127 15.965 411.777 15.535C411.437 15.095 411.012 14.765 410.502 14.545C409.992 14.325 409.482 14.215 408.972 14.215C408.412 14.215 407.842 14.325 407.262 14.545C406.692 14.765 406.212 15.12 405.822 15.61C405.442 16.1 405.252 16.735 405.252 17.515V28H402.912ZM430.165 20.785C430.165 21.825 430.335 22.77 430.675 23.62C431.015 24.47 431.54 25.15 432.25 25.66C432.96 26.17 433.86 26.425 434.95 26.425C436 26.425 436.905 26.18 437.665 25.69C438.425 25.19 438.9 24.485 439.09 23.575H441.34C441.15 24.615 440.735 25.485 440.095 26.185C439.465 26.885 438.7 27.415 437.8 27.775C436.91 28.125 435.97 28.3 434.98 28.3C433.56 28.3 432.305 27.99 431.215 27.37C430.135 26.74 429.29 25.835 428.68 24.655C428.08 23.475 427.78 22.055 427.78 20.395C427.78 18.745 428.055 17.305 428.605 16.075C429.155 14.835 429.95 13.88 430.99 13.21C432.04 12.53 433.305 12.19 434.785 12.19C436.215 12.19 437.425 12.5 438.415 13.12C439.405 13.73 440.16 14.605 440.68 15.745C441.2 16.885 441.46 18.245 441.46 19.825V20.785H430.165ZM430.18 19.12H439.18C439.18 18.16 439.02 17.295 438.7 16.525C438.38 15.755 437.895 15.145 437.245 14.695C436.595 14.245 435.77 14.02 434.77 14.02C433.71 14.02 432.84 14.275 432.16 14.785C431.49 15.285 430.99 15.925 430.66 16.705C430.33 17.485 430.17 18.29 430.18 19.12ZM53.985 41.31H67.155V43.395H56.415V51.03H66.15V53.115H56.415V63H53.985V41.31ZM71.066 63V47.49H73.286V50.295C73.546 49.565 73.911 48.975 74.381 48.525C74.861 48.065 75.396 47.73 75.986 47.52C76.586 47.3 77.191 47.19 77.801 47.19C78.051 47.19 78.296 47.21 78.536 47.25C78.776 47.28 78.966 47.335 79.106 47.415V49.695C78.946 49.615 78.731 49.56 78.461 49.53C78.201 49.5 77.981 49.485 77.801 49.485C77.251 49.455 76.716 49.495 76.196 49.605C75.676 49.715 75.201 49.91 74.771 50.19C74.351 50.47 74.016 50.845 73.766 51.315C73.526 51.785 73.406 52.36 73.406 53.04V63H71.066ZM83.7002 55.785C83.7002 56.825 83.8702 57.77 84.2102 58.62C84.5502 59.47 85.0752 60.15 85.7852 60.66C86.4952 61.17 87.3952 61.425 88.4852 61.425C89.5352 61.425 90.4402 61.18 91.2002 60.69C91.9602 60.19 92.4352 59.485 92.6252 58.575H94.8752C94.6852 59.615 94.2702 60.485 93.6302 61.185C93.0002 61.885 92.2352 62.415 91.3352 62.775C90.4452 63.125 89.5052 63.3 88.5152 63.3C87.0952 63.3 85.8402 62.99 84.7502 62.37C83.6702 61.74 82.8252 60.835 82.2152 59.655C81.6152 58.475 81.3152 57.055 81.3152 55.395C81.3152 53.745 81.5902 52.305 82.1402 51.075C82.6902 49.835 83.4852 48.88 84.5252 48.21C85.5752 47.53 86.8402 47.19 88.3202 47.19C89.7502 47.19 90.9602 47.5 91.9502 48.12C92.9402 48.73 93.6952 49.605 94.2152 50.745C94.7352 51.885 94.9952 53.245 94.9952 54.825V55.785H83.7002ZM83.7152 54.12H92.7152C92.7152 53.16 92.5552 52.295 92.2352 51.525C91.9152 50.755 91.4302 50.145 90.7802 49.695C90.1302 49.245 89.3052 49.02 88.3052 49.02C87.2452 49.02 86.3752 49.275 85.6952 49.785C85.0252 50.285 84.5252 50.925 84.1952 51.705C83.8652 52.485 83.7052 53.29 83.7152 54.12ZM100.546 55.785C100.546 56.825 100.716 57.77 101.056 58.62C101.396 59.47 101.921 60.15 102.631 60.66C103.341 61.17 104.241 61.425 105.331 61.425C106.381 61.425 107.286 61.18 108.046 60.69C108.806 60.19 109.281 59.485 109.471 58.575H111.721C111.531 59.615 111.116 60.485 110.476 61.185C109.846 61.885 109.081 62.415 108.181 62.775C107.291 63.125 106.351 63.3 105.361 63.3C103.941 63.3 102.686 62.99 101.596 62.37C100.516 61.74 99.6709 60.835 99.0609 59.655C98.4609 58.475 98.1609 57.055 98.1609 55.395C98.1609 53.745 98.4359 52.305 98.9859 51.075C99.5359 49.835 100.331 48.88 101.371 48.21C102.421 47.53 103.686 47.19 105.166 47.19C106.596 47.19 107.806 47.5 108.796 48.12C109.786 48.73 110.541 49.605 111.061 50.745C111.581 51.885 111.841 53.245 111.841 54.825V55.785H100.546ZM100.561 54.12H109.561C109.561 53.16 109.401 52.295 109.081 51.525C108.761 50.755 108.276 50.145 107.626 49.695C106.976 49.245 106.151 49.02 105.151 49.02C104.091 49.02 103.221 49.275 102.541 49.785C101.871 50.285 101.371 50.925 101.041 51.705C100.711 52.485 100.551 53.29 100.561 54.12ZM122.687 63V47.49H124.907V50.295C125.167 49.565 125.532 48.975 126.002 48.525C126.482 48.065 127.017 47.73 127.607 47.52C128.207 47.3 128.812 47.19 129.422 47.19C129.672 47.19 129.917 47.21 130.157 47.25C130.397 47.28 130.587 47.335 130.727 47.415V49.695C130.567 49.615 130.352 49.56 130.082 49.53C129.822 49.5 129.602 49.485 129.422 49.485C128.872 49.455 128.337 49.495 127.817 49.605C127.297 49.715 126.822 49.91 126.392 50.19C125.972 50.47 125.637 50.845 125.387 51.315C125.147 51.785 125.027 52.36 125.027 53.04V63H122.687ZM135.321 55.785C135.321 56.825 135.491 57.77 135.831 58.62C136.171 59.47 136.696 60.15 137.406 60.66C138.116 61.17 139.016 61.425 140.106 61.425C141.156 61.425 142.061 61.18 142.821 60.69C143.581 60.19 144.056 59.485 144.246 58.575H146.496C146.306 59.615 145.891 60.485 145.251 61.185C144.621 61.885 143.856 62.415 142.956 62.775C142.066 63.125 141.126 63.3 140.136 63.3C138.716 63.3 137.461 62.99 136.371 62.37C135.291 61.74 134.446 60.835 133.836 59.655C133.236 58.475 132.936 57.055 132.936 55.395C132.936 53.745 133.211 52.305 133.761 51.075C134.311 49.835 135.106 48.88 136.146 48.21C137.196 47.53 138.461 47.19 139.941 47.19C141.371 47.19 142.581 47.5 143.571 48.12C144.561 48.73 145.316 49.605 145.836 50.745C146.356 51.885 146.616 53.245 146.616 54.825V55.785H135.321ZM135.336 54.12H144.336C144.336 53.16 144.176 52.295 143.856 51.525C143.536 50.755 143.051 50.145 142.401 49.695C141.751 49.245 140.926 49.02 139.926 49.02C138.866 49.02 137.996 49.275 137.316 49.785C136.646 50.285 136.146 50.925 135.816 51.705C135.486 52.485 135.326 53.29 135.336 54.12ZM156.894 68.13C154.544 68.13 152.699 67.775 151.359 67.065C150.029 66.365 149.364 65.335 149.364 63.975C149.364 63.405 149.489 62.92 149.739 62.52C149.999 62.11 150.304 61.77 150.654 61.5C151.014 61.23 151.349 61.015 151.659 60.855C151.969 60.685 152.174 60.56 152.274 60.48C152.094 60.37 151.884 60.245 151.644 60.105C151.404 59.955 151.194 59.765 151.014 59.535C150.844 59.295 150.759 58.99 150.759 58.62C150.759 58.15 150.979 57.72 151.419 57.33C151.859 56.93 152.514 56.63 153.384 56.43C152.504 55.97 151.809 55.37 151.299 54.63C150.799 53.88 150.549 53.06 150.549 52.17C150.549 51.17 150.804 50.3 151.314 49.56C151.834 48.82 152.584 48.25 153.564 47.85C154.544 47.45 155.734 47.25 157.134 47.25C158.124 47.25 158.964 47.37 159.654 47.61C160.344 47.84 160.984 48.18 161.574 48.63C161.724 48.56 161.964 48.455 162.294 48.315C162.634 48.175 163.009 48.025 163.419 47.865C163.829 47.695 164.209 47.535 164.559 47.385C164.919 47.235 165.189 47.12 165.369 47.04V49.38L162.639 49.92C162.809 50.26 162.944 50.63 163.044 51.03C163.144 51.42 163.194 51.795 163.194 52.155C163.194 53.075 162.964 53.905 162.504 54.645C162.044 55.375 161.344 55.95 160.404 56.37C159.474 56.79 158.299 57 156.879 57C156.779 57 156.654 57 156.504 57C156.354 57 156.224 56.995 156.114 56.985C154.924 57.015 154.104 57.15 153.654 57.39C153.214 57.62 152.994 57.865 152.994 58.125C152.994 58.425 153.219 58.64 153.669 58.77C154.119 58.89 154.904 58.99 156.024 59.07C156.434 59.09 156.924 59.115 157.494 59.145C158.074 59.175 158.719 59.215 159.429 59.265C160.979 59.355 162.184 59.755 163.044 60.465C163.914 61.175 164.349 62.155 164.349 63.405C164.349 64.795 163.734 65.93 162.504 66.81C161.284 67.69 159.414 68.13 156.894 68.13ZM157.329 66.525C158.819 66.525 159.979 66.29 160.809 65.82C161.639 65.36 162.054 64.655 162.054 63.705C162.054 63.045 161.809 62.505 161.319 62.085C160.829 61.655 160.089 61.405 159.099 61.335L154.524 61.05C154.154 61.03 153.749 61.135 153.309 61.365C152.869 61.585 152.489 61.9 152.169 62.31C151.859 62.72 151.704 63.185 151.704 63.705C151.704 64.585 152.159 65.275 153.069 65.775C153.989 66.275 155.409 66.525 157.329 66.525ZM156.954 55.41C158.144 55.41 159.104 55.14 159.834 54.6C160.574 54.06 160.944 53.25 160.944 52.17C160.944 51.06 160.574 50.22 159.834 49.65C159.104 49.08 158.144 48.795 156.954 48.795C155.734 48.795 154.749 49.085 153.999 49.665C153.259 50.235 152.889 51.07 152.889 52.17C152.889 53.2 153.239 54 153.939 54.57C154.649 55.13 155.654 55.41 156.954 55.41ZM171.718 47.49V63H169.438V47.49H171.718ZM171.793 41.325V43.905H169.333V41.325H171.793ZM182.168 63.3C181.088 63.3 180.093 63.135 179.183 62.805C178.283 62.465 177.538 61.95 176.948 61.26C176.368 60.56 176.003 59.67 175.853 58.59H178.028C178.168 59.21 178.423 59.735 178.793 60.165C179.163 60.595 179.633 60.925 180.203 61.155C180.783 61.375 181.438 61.485 182.168 61.485C183.268 61.485 184.153 61.275 184.823 60.855C185.493 60.425 185.828 59.77 185.828 58.89C185.828 58.28 185.653 57.79 185.303 57.42C184.963 57.05 184.443 56.78 183.743 56.61L180.398 55.755C179.178 55.445 178.208 54.98 177.488 54.36C176.768 53.73 176.403 52.855 176.393 51.735C176.393 50.845 176.603 50.06 177.023 49.38C177.453 48.7 178.093 48.165 178.943 47.775C179.793 47.385 180.858 47.19 182.138 47.19C183.768 47.19 185.083 47.555 186.083 48.285C187.083 49.015 187.613 50.105 187.673 51.555H185.543C185.443 50.765 185.103 50.14 184.523 49.68C183.943 49.21 183.143 48.975 182.123 48.975C181.073 48.975 180.218 49.19 179.558 49.62C178.908 50.05 178.583 50.715 178.583 51.615C178.583 52.215 178.808 52.685 179.258 53.025C179.708 53.355 180.363 53.63 181.223 53.85L184.493 54.705C185.173 54.885 185.733 55.125 186.173 55.425C186.623 55.715 186.978 56.045 187.238 56.415C187.508 56.775 187.698 57.16 187.808 57.57C187.928 57.98 187.988 58.375 187.988 58.755C187.988 59.685 187.763 60.49 187.313 61.17C186.863 61.85 186.203 62.375 185.333 62.745C184.473 63.115 183.418 63.3 182.168 63.3ZM199.143 49.245H195.633V59.25C195.633 59.85 195.688 60.29 195.798 60.57C195.918 60.84 196.123 61.015 196.413 61.095C196.713 61.165 197.128 61.2 197.658 61.2H199.248V62.82C199.058 62.89 198.773 62.95 198.393 63C198.023 63.04 197.578 63.06 197.058 63.06C196.068 63.06 195.298 62.92 194.748 62.64C194.208 62.36 193.828 61.945 193.608 61.395C193.388 60.845 193.278 60.155 193.278 59.325V49.245H190.758V47.49H193.338L193.893 43.02H195.633V47.475H199.143V49.245ZM204.521 55.785C204.521 56.825 204.691 57.77 205.031 58.62C205.371 59.47 205.896 60.15 206.606 60.66C207.316 61.17 208.216 61.425 209.306 61.425C210.356 61.425 211.261 61.18 212.021 60.69C212.781 60.19 213.256 59.485 213.446 58.575H215.696C215.506 59.615 215.091 60.485 214.451 61.185C213.821 61.885 213.056 62.415 212.156 62.775C211.266 63.125 210.326 63.3 209.336 63.3C207.916 63.3 206.661 62.99 205.571 62.37C204.491 61.74 203.646 60.835 203.036 59.655C202.436 58.475 202.136 57.055 202.136 55.395C202.136 53.745 202.411 52.305 202.961 51.075C203.511 49.835 204.306 48.88 205.346 48.21C206.396 47.53 207.661 47.19 209.141 47.19C210.571 47.19 211.781 47.5 212.771 48.12C213.761 48.73 214.516 49.605 215.036 50.745C215.556 51.885 215.816 53.245 215.816 54.825V55.785H204.521ZM204.536 54.12H213.536C213.536 53.16 213.376 52.295 213.056 51.525C212.736 50.755 212.251 50.145 211.601 49.695C210.951 49.245 210.126 49.02 209.126 49.02C208.066 49.02 207.196 49.275 206.516 49.785C205.846 50.285 205.346 50.925 205.016 51.705C204.686 52.485 204.526 53.29 204.536 54.12ZM219.806 63V47.49H222.026V50.295C222.286 49.565 222.651 48.975 223.121 48.525C223.601 48.065 224.136 47.73 224.726 47.52C225.326 47.3 225.931 47.19 226.541 47.19C226.791 47.19 227.036 47.21 227.276 47.25C227.516 47.28 227.706 47.335 227.846 47.415V49.695C227.686 49.615 227.471 49.56 227.201 49.53C226.941 49.5 226.721 49.485 226.541 49.485C225.991 49.455 225.456 49.495 224.936 49.605C224.416 49.715 223.941 49.91 223.511 50.19C223.091 50.47 222.756 50.845 222.506 51.315C222.266 51.785 222.146 52.36 222.146 53.04V63H219.806ZM233.916 47.49V63H231.636V47.49H233.916ZM233.991 41.325V43.905H231.531V41.325H233.991ZM239.23 63V47.49H241.48V49.755C241.74 49.305 242.095 48.89 242.545 48.51C243.005 48.13 243.56 47.825 244.21 47.595C244.87 47.365 245.61 47.25 246.43 47.25C247.43 47.25 248.34 47.45 249.16 47.85C249.99 48.24 250.65 48.85 251.14 49.68C251.63 50.51 251.875 51.575 251.875 52.875V63H249.535V53.085C249.535 51.765 249.2 50.79 248.53 50.16C247.86 49.53 246.975 49.215 245.875 49.215C245.125 49.215 244.42 49.335 243.76 49.575C243.1 49.815 242.57 50.18 242.17 50.67C241.77 51.16 241.57 51.775 241.57 52.515V63H239.23ZM262.773 68.13C260.423 68.13 258.578 67.775 257.238 67.065C255.908 66.365 255.243 65.335 255.243 63.975C255.243 63.405 255.368 62.92 255.618 62.52C255.878 62.11 256.183 61.77 256.533 61.5C256.893 61.23 257.228 61.015 257.538 60.855C257.848 60.685 258.053 60.56 258.153 60.48C257.973 60.37 257.763 60.245 257.523 60.105C257.283 59.955 257.073 59.765 256.893 59.535C256.723 59.295 256.638 58.99 256.638 58.62C256.638 58.15 256.858 57.72 257.298 57.33C257.738 56.93 258.393 56.63 259.263 56.43C258.383 55.97 257.688 55.37 257.178 54.63C256.678 53.88 256.428 53.06 256.428 52.17C256.428 51.17 256.683 50.3 257.193 49.56C257.713 48.82 258.463 48.25 259.443 47.85C260.423 47.45 261.613 47.25 263.013 47.25C264.003 47.25 264.843 47.37 265.533 47.61C266.223 47.84 266.863 48.18 267.453 48.63C267.603 48.56 267.843 48.455 268.173 48.315C268.513 48.175 268.888 48.025 269.298 47.865C269.708 47.695 270.088 47.535 270.438 47.385C270.798 47.235 271.068 47.12 271.248 47.04V49.38L268.518 49.92C268.688 50.26 268.823 50.63 268.923 51.03C269.023 51.42 269.073 51.795 269.073 52.155C269.073 53.075 268.843 53.905 268.383 54.645C267.923 55.375 267.223 55.95 266.283 56.37C265.353 56.79 264.178 57 262.758 57C262.658 57 262.533 57 262.383 57C262.233 57 262.103 56.995 261.993 56.985C260.803 57.015 259.983 57.15 259.533 57.39C259.093 57.62 258.873 57.865 258.873 58.125C258.873 58.425 259.098 58.64 259.548 58.77C259.998 58.89 260.783 58.99 261.903 59.07C262.313 59.09 262.803 59.115 263.373 59.145C263.953 59.175 264.598 59.215 265.308 59.265C266.858 59.355 268.063 59.755 268.923 60.465C269.793 61.175 270.228 62.155 270.228 63.405C270.228 64.795 269.613 65.93 268.383 66.81C267.163 67.69 265.293 68.13 262.773 68.13ZM263.208 66.525C264.698 66.525 265.858 66.29 266.688 65.82C267.518 65.36 267.933 64.655 267.933 63.705C267.933 63.045 267.688 62.505 267.198 62.085C266.708 61.655 265.968 61.405 264.978 61.335L260.403 61.05C260.033 61.03 259.628 61.135 259.188 61.365C258.748 61.585 258.368 61.9 258.048 62.31C257.738 62.72 257.583 63.185 257.583 63.705C257.583 64.585 258.038 65.275 258.948 65.775C259.868 66.275 261.288 66.525 263.208 66.525ZM262.833 55.41C264.023 55.41 264.983 55.14 265.713 54.6C266.453 54.06 266.823 53.25 266.823 52.17C266.823 51.06 266.453 50.22 265.713 49.65C264.983 49.08 264.023 48.795 262.833 48.795C261.613 48.795 260.628 49.085 259.878 49.665C259.138 50.235 258.768 51.07 258.768 52.17C258.768 53.2 259.118 54 259.818 54.57C260.528 55.13 261.533 55.41 262.833 55.41ZM288.618 40.98C289.638 40.98 290.583 41.17 291.453 41.55C292.323 41.92 293.023 42.45 293.553 43.14C294.093 43.82 294.363 44.63 294.363 45.57C294.363 45.93 294.293 46.33 294.153 46.77C294.013 47.21 293.758 47.685 293.388 48.195C293.028 48.705 292.503 49.235 291.813 49.785C291.133 50.335 290.243 50.9 289.143 51.48L294.273 57.465C294.473 57.205 294.723 56.8 295.023 56.25C295.323 55.69 295.598 55.01 295.848 54.21C296.098 53.41 296.248 52.505 296.298 51.495H298.563C298.453 52.565 298.243 53.535 297.933 54.405C297.633 55.265 297.268 56.065 296.838 56.805C296.418 57.535 295.963 58.235 295.473 58.905L298.953 63H296.208L294.033 60.51C292.953 61.43 291.848 62.1 290.718 62.52C289.588 62.94 288.458 63.15 287.328 63.15C285.958 63.15 284.793 62.915 283.833 62.445C282.883 61.965 282.158 61.305 281.658 60.465C281.158 59.625 280.908 58.65 280.908 57.54C280.908 56.61 281.093 55.765 281.463 55.005C281.833 54.235 282.393 53.525 283.143 52.875C283.893 52.225 284.838 51.595 285.978 50.985C285.398 50.385 284.903 49.8 284.493 49.23C284.093 48.66 283.783 48.085 283.563 47.505C283.353 46.915 283.248 46.3 283.248 45.66C283.248 44.79 283.473 44 283.923 43.29C284.383 42.58 285.013 42.02 285.813 41.61C286.623 41.19 287.558 40.98 288.618 40.98ZM288.693 42.675C287.683 42.685 286.913 42.975 286.383 43.545C285.863 44.115 285.603 44.78 285.603 45.54C285.603 46.08 285.718 46.615 285.948 47.145C286.188 47.665 286.458 48.135 286.758 48.555C287.068 48.975 287.333 49.305 287.553 49.545L288.063 50.1C289.193 49.46 290.053 48.885 290.643 48.375C291.243 47.865 291.648 47.39 291.858 46.95C292.078 46.5 292.188 46.05 292.188 45.6C292.188 44.88 292.013 44.305 291.663 43.875C291.323 43.445 290.883 43.135 290.343 42.945C289.813 42.755 289.263 42.665 288.693 42.675ZM287.193 52.455C286.083 53.065 285.173 53.795 284.463 54.645C283.763 55.495 283.433 56.455 283.473 57.525C283.503 58.275 283.713 58.93 284.103 59.49C284.503 60.04 285.023 60.47 285.663 60.78C286.313 61.08 287.023 61.23 287.793 61.23C288.703 61.23 289.603 61.03 290.493 60.63C291.383 60.22 292.168 59.69 292.848 59.04L287.193 52.455ZM309.748 63V47.49H311.998V49.755C312.408 49.065 312.978 48.465 313.708 47.955C314.448 47.445 315.418 47.19 316.618 47.19C317.198 47.19 317.783 47.285 318.373 47.475C318.963 47.665 319.503 47.95 319.993 48.33C320.483 48.71 320.858 49.18 321.118 49.74C321.598 48.96 322.248 48.34 323.068 47.88C323.888 47.42 324.818 47.19 325.858 47.19C326.398 47.19 326.958 47.27 327.538 47.43C328.128 47.59 328.678 47.875 329.188 48.285C329.698 48.685 330.108 49.26 330.418 50.01C330.738 50.75 330.898 51.705 330.898 52.875V63H328.558V53.085C328.558 52.055 328.398 51.265 328.078 50.715C327.758 50.155 327.343 49.765 326.833 49.545C326.323 49.325 325.778 49.215 325.198 49.215C324.678 49.215 324.128 49.315 323.548 49.515C322.978 49.705 322.488 50.04 322.078 50.52C321.678 51 321.478 51.665 321.478 52.515V63H319.138V52.155C319.138 51.505 318.963 50.965 318.613 50.535C318.273 50.095 317.848 49.765 317.338 49.545C316.828 49.325 316.318 49.215 315.808 49.215C315.248 49.215 314.678 49.325 314.098 49.545C313.528 49.765 313.048 50.12 312.658 50.61C312.278 51.1 312.088 51.735 312.088 52.515V63H309.748ZM337.001 55.785C337.001 56.825 337.171 57.77 337.511 58.62C337.851 59.47 338.376 60.15 339.086 60.66C339.796 61.17 340.696 61.425 341.786 61.425C342.836 61.425 343.741 61.18 344.501 60.69C345.261 60.19 345.736 59.485 345.926 58.575H348.176C347.986 59.615 347.571 60.485 346.931 61.185C346.301 61.885 345.536 62.415 344.636 62.775C343.746 63.125 342.806 63.3 341.816 63.3C340.396 63.3 339.141 62.99 338.051 62.37C336.971 61.74 336.126 60.835 335.516 59.655C334.916 58.475 334.616 57.055 334.616 55.395C334.616 53.745 334.891 52.305 335.441 51.075C335.991 49.835 336.786 48.88 337.826 48.21C338.876 47.53 340.141 47.19 341.621 47.19C343.051 47.19 344.261 47.5 345.251 48.12C346.241 48.73 346.996 49.605 347.516 50.745C348.036 51.885 348.296 53.245 348.296 54.825V55.785H337.001ZM337.016 54.12H346.016C346.016 53.16 345.856 52.295 345.536 51.525C345.216 50.755 344.731 50.145 344.081 49.695C343.431 49.245 342.606 49.02 341.606 49.02C340.546 49.02 339.676 49.275 338.996 49.785C338.326 50.285 337.826 50.925 337.496 51.705C337.166 52.485 337.006 53.29 337.016 54.12ZM352.287 63V47.49H354.537V49.755C354.947 49.065 355.517 48.465 356.247 47.955C356.987 47.445 357.957 47.19 359.157 47.19C359.737 47.19 360.322 47.285 360.912 47.475C361.502 47.665 362.042 47.95 362.532 48.33C363.022 48.71 363.397 49.18 363.657 49.74C364.137 48.96 364.787 48.34 365.607 47.88C366.427 47.42 367.357 47.19 368.397 47.19C368.937 47.19 369.497 47.27 370.077 47.43C370.667 47.59 371.217 47.875 371.727 48.285C372.237 48.685 372.647 49.26 372.957 50.01C373.277 50.75 373.437 51.705 373.437 52.875V63H371.097V53.085C371.097 52.055 370.937 51.265 370.617 50.715C370.297 50.155 369.882 49.765 369.372 49.545C368.862 49.325 368.317 49.215 367.737 49.215C367.217 49.215 366.667 49.315 366.087 49.515C365.517 49.705 365.027 50.04 364.617 50.52C364.217 51 364.017 51.665 364.017 52.515V63H361.677V52.155C361.677 51.505 361.502 50.965 361.152 50.535C360.812 50.095 360.387 49.765 359.877 49.545C359.367 49.325 358.857 49.215 358.347 49.215C357.787 49.215 357.217 49.325 356.637 49.545C356.067 49.765 355.587 50.12 355.197 50.61C354.817 51.1 354.627 51.735 354.627 52.515V63H352.287ZM385.39 63.3C384.44 63.3 383.64 63.175 382.99 62.925C382.35 62.665 381.83 62.345 381.43 61.965C381.03 61.585 380.725 61.2 380.515 60.81C380.305 60.42 380.155 60.09 380.065 59.82L379.825 63H377.98V40.71H380.35V50.04C380.46 49.81 380.645 49.535 380.905 49.215C381.165 48.895 381.505 48.58 381.925 48.27C382.345 47.96 382.855 47.705 383.455 47.505C384.055 47.295 384.75 47.19 385.54 47.19C387.48 47.19 389.03 47.86 390.19 49.2C391.35 50.54 391.93 52.535 391.93 55.185C391.93 56.815 391.685 58.24 391.195 59.46C390.715 60.67 389.99 61.615 389.02 62.295C388.06 62.965 386.85 63.3 385.39 63.3ZM385.015 61.44C386.365 61.44 387.455 60.925 388.285 59.895C389.125 58.865 389.545 57.245 389.545 55.035C389.545 53.175 389.16 51.715 388.39 50.655C387.62 49.595 386.475 49.065 384.955 49.065C383.845 49.065 382.955 49.305 382.285 49.785C381.615 50.255 381.125 50.935 380.815 51.825C380.515 52.715 380.36 53.785 380.35 55.035C380.35 57.295 380.705 58.93 381.415 59.94C382.125 60.94 383.325 61.44 385.015 61.44ZM397.323 55.785C397.323 56.825 397.493 57.77 397.833 58.62C398.173 59.47 398.698 60.15 399.408 60.66C400.118 61.17 401.018 61.425 402.108 61.425C403.158 61.425 404.063 61.18 404.823 60.69C405.583 60.19 406.058 59.485 406.248 58.575H408.498C408.308 59.615 407.893 60.485 407.253 61.185C406.623 61.885 405.858 62.415 404.958 62.775C404.068 63.125 403.128 63.3 402.138 63.3C400.718 63.3 399.463 62.99 398.373 62.37C397.293 61.74 396.448 60.835 395.838 59.655C395.238 58.475 394.938 57.055 394.938 55.395C394.938 53.745 395.213 52.305 395.763 51.075C396.313 49.835 397.108 48.88 398.148 48.21C399.198 47.53 400.463 47.19 401.943 47.19C403.373 47.19 404.583 47.5 405.573 48.12C406.563 48.73 407.318 49.605 407.838 50.745C408.358 51.885 408.618 53.245 408.618 54.825V55.785H397.323ZM397.338 54.12H406.338C406.338 53.16 406.178 52.295 405.858 51.525C405.538 50.755 405.053 50.145 404.403 49.695C403.753 49.245 402.928 49.02 401.928 49.02C400.868 49.02 399.998 49.275 399.318 49.785C398.648 50.285 398.148 50.925 397.818 51.705C397.488 52.485 397.328 53.29 397.338 54.12ZM412.609 63V47.49H414.829V50.295C415.089 49.565 415.454 48.975 415.924 48.525C416.404 48.065 416.939 47.73 417.529 47.52C418.129 47.3 418.734 47.19 419.344 47.19C419.594 47.19 419.839 47.21 420.079 47.25C420.319 47.28 420.509 47.335 420.649 47.415V49.695C420.489 49.615 420.274 49.56 420.004 49.53C419.744 49.5 419.524 49.485 419.344 49.485C418.794 49.455 418.259 49.495 417.739 49.605C417.219 49.715 416.744 49.91 416.314 50.19C415.894 50.47 415.559 50.845 415.309 51.315C415.069 51.785 414.949 52.36 414.949 53.04V63H412.609ZM429.316 63.3C428.236 63.3 427.241 63.135 426.331 62.805C425.431 62.465 424.686 61.95 424.096 61.26C423.516 60.56 423.151 59.67 423.001 58.59H425.176C425.316 59.21 425.571 59.735 425.941 60.165C426.311 60.595 426.781 60.925 427.351 61.155C427.931 61.375 428.586 61.485 429.316 61.485C430.416 61.485 431.301 61.275 431.971 60.855C432.641 60.425 432.976 59.77 432.976 58.89C432.976 58.28 432.801 57.79 432.451 57.42C432.111 57.05 431.591 56.78 430.891 56.61L427.546 55.755C426.326 55.445 425.356 54.98 424.636 54.36C423.916 53.73 423.551 52.855 423.541 51.735C423.541 50.845 423.751 50.06 424.171 49.38C424.601 48.7 425.241 48.165 426.091 47.775C426.941 47.385 428.006 47.19 429.286 47.19C430.916 47.19 432.231 47.555 433.231 48.285C434.231 49.015 434.761 50.105 434.821 51.555H432.691C432.591 50.765 432.251 50.14 431.671 49.68C431.091 49.21 430.291 48.975 429.271 48.975C428.221 48.975 427.366 49.19 426.706 49.62C426.056 50.05 425.731 50.715 425.731 51.615C425.731 52.215 425.956 52.685 426.406 53.025C426.856 53.355 427.511 53.63 428.371 53.85L431.641 54.705C432.321 54.885 432.881 55.125 433.321 55.425C433.771 55.715 434.126 56.045 434.386 56.415C434.656 56.775 434.846 57.16 434.956 57.57C435.076 57.98 435.136 58.375 435.136 58.755C435.136 59.685 434.911 60.49 434.461 61.17C434.011 61.85 433.351 62.375 432.481 62.745C431.621 63.115 430.566 63.3 429.316 63.3ZM439.211 63V40.71H441.476V49.77C441.746 49.33 442.106 48.92 442.556 48.54C443.016 48.16 443.566 47.855 444.206 47.625C444.856 47.385 445.596 47.265 446.426 47.265C447.446 47.265 448.361 47.45 449.171 47.82C449.991 48.19 450.641 48.715 451.121 49.395C451.601 50.075 451.841 50.875 451.841 51.795V63H449.501V52.32C449.501 51.34 449.166 50.58 448.496 50.04C447.826 49.49 446.941 49.215 445.841 49.215C445.091 49.215 444.386 49.34 443.726 49.59C443.076 49.83 442.551 50.195 442.151 50.685C441.751 51.165 441.551 51.78 441.551 52.53V63H439.211ZM459.004 47.49V63H456.724V47.49H459.004ZM459.079 41.325V43.905H456.619V41.325H459.079ZM464.318 67.83V47.49H466.643L466.688 50.325C466.838 50.015 467.048 49.68 467.318 49.32C467.598 48.96 467.948 48.62 468.368 48.3C468.788 47.97 469.283 47.705 469.853 47.505C470.433 47.295 471.098 47.19 471.848 47.19C473.108 47.19 474.218 47.47 475.178 48.03C476.138 48.59 476.883 49.45 477.413 50.61C477.953 51.77 478.223 53.24 478.223 55.02C478.223 56.76 477.968 58.25 477.458 59.49C476.958 60.72 476.223 61.665 475.253 62.325C474.283 62.975 473.098 63.3 471.698 63.3C470.948 63.3 470.293 63.195 469.733 62.985C469.173 62.775 468.693 62.5 468.293 62.16C467.893 61.82 467.563 61.47 467.303 61.11C467.043 60.74 466.833 60.39 466.673 60.06V67.83H464.318ZM471.308 61.425C472.678 61.425 473.788 60.91 474.638 59.88C475.498 58.85 475.928 57.26 475.928 55.11C475.928 53.27 475.538 51.805 474.758 50.715C473.988 49.615 472.838 49.065 471.308 49.065C469.788 49.065 468.628 49.62 467.828 50.73C467.038 51.84 466.643 53.3 466.643 55.11C466.643 56.29 466.818 57.36 467.168 58.32C467.528 59.27 468.053 60.025 468.743 60.585C469.433 61.145 470.288 61.425 471.308 61.425ZM53.985 98V76.31H61.14C62.68 76.31 64.05 76.57 65.25 77.09C66.46 77.6 67.405 78.36 68.085 79.37C68.775 80.37 69.12 81.61 69.12 83.09C69.12 84.54 68.795 85.775 68.145 86.795C67.495 87.805 66.595 88.575 65.445 89.105C64.305 89.635 62.98 89.9 61.47 89.9H56.415V98H53.985ZM56.4 87.845H61.425C63.015 87.845 64.305 87.41 65.295 86.54C66.295 85.67 66.795 84.475 66.795 82.955C66.795 81.415 66.285 80.26 65.265 79.49C64.245 78.72 62.91 78.335 61.26 78.335H56.4V87.845ZM72.3551 98V82.49H74.5751V85.295C74.8351 84.565 75.2001 83.975 75.6701 83.525C76.1501 83.065 76.6851 82.73 77.2751 82.52C77.8751 82.3 78.4801 82.19 79.0901 82.19C79.3401 82.19 79.5851 82.21 79.8251 82.25C80.0651 82.28 80.2551 82.335 80.3951 82.415V84.695C80.2351 84.615 80.0201 84.56 79.7501 84.53C79.4901 84.5 79.2701 84.485 79.0901 84.485C78.5401 84.455 78.0051 84.495 77.4851 84.605C76.9651 84.715 76.4901 84.91 76.0601 85.19C75.6401 85.47 75.3051 85.845 75.0551 86.315C74.8151 86.785 74.6951 87.36 74.6951 88.04V98H72.3551ZM89.4593 98.3C88.0593 98.3 86.8293 98 85.7693 97.4C84.7193 96.79 83.9043 95.89 83.3243 94.7C82.7443 93.51 82.4543 92.045 82.4543 90.305C82.4543 88.685 82.7193 87.265 83.2493 86.045C83.7893 84.825 84.5793 83.88 85.6193 83.21C86.6593 82.53 87.9443 82.19 89.4743 82.19C90.8743 82.19 92.0893 82.5 93.1193 83.12C94.1593 83.73 94.9643 84.64 95.5343 85.85C96.1143 87.05 96.4043 88.535 96.4043 90.305C96.4043 91.885 96.1443 93.275 95.6243 94.475C95.1043 95.675 94.3293 96.615 93.2993 97.295C92.2793 97.965 90.9993 98.3 89.4593 98.3ZM89.4743 96.41C90.4443 96.41 91.2693 96.17 91.9493 95.69C92.6393 95.21 93.1643 94.51 93.5243 93.59C93.8943 92.67 94.0793 91.555 94.0793 90.245C94.0793 89.065 93.9193 88.01 93.5993 87.08C93.2793 86.15 92.7793 85.42 92.0993 84.89C91.4193 84.35 90.5443 84.08 89.4743 84.08C88.4843 84.08 87.6393 84.32 86.9393 84.8C86.2493 85.27 85.7193 85.965 85.3493 86.885C84.9793 87.805 84.7943 88.925 84.7943 90.245C84.7943 91.425 84.9543 92.48 85.2743 93.41C85.6043 94.33 86.1143 95.06 86.8043 95.6C87.4943 96.14 88.3843 96.41 89.4743 96.41ZM108.137 82.49V84.245H104.237V98H101.897V84.245H98.5069V82.49H101.897V80.03C101.897 78.81 102.197 77.885 102.797 77.255C103.397 76.625 104.312 76.31 105.542 76.31H108.287V78.02H105.902C105.242 78.02 104.792 78.2 104.552 78.56C104.322 78.91 104.207 79.44 104.207 80.15V82.49H108.137ZM113.144 90.785C113.144 91.825 113.314 92.77 113.654 93.62C113.994 94.47 114.519 95.15 115.229 95.66C115.939 96.17 116.839 96.425 117.929 96.425C118.979 96.425 119.884 96.18 120.644 95.69C121.404 95.19 121.879 94.485 122.069 93.575H124.319C124.129 94.615 123.714 95.485 123.074 96.185C122.444 96.885 121.679 97.415 120.779 97.775C119.889 98.125 118.949 98.3 117.959 98.3C116.539 98.3 115.284 97.99 114.194 97.37C113.114 96.74 112.269 95.835 111.659 94.655C111.059 93.475 110.759 92.055 110.759 90.395C110.759 88.745 111.034 87.305 111.584 86.075C112.134 84.835 112.929 83.88 113.969 83.21C115.019 82.53 116.284 82.19 117.764 82.19C119.194 82.19 120.404 82.5 121.394 83.12C122.384 83.73 123.139 84.605 123.659 85.745C124.179 86.885 124.439 88.245 124.439 89.825V90.785H113.144ZM113.159 89.12H122.159C122.159 88.16 121.999 87.295 121.679 86.525C121.359 85.755 120.874 85.145 120.224 84.695C119.574 84.245 118.749 84.02 117.749 84.02C116.689 84.02 115.819 84.275 115.139 84.785C114.469 85.285 113.969 85.925 113.639 86.705C113.309 87.485 113.149 88.29 113.159 89.12ZM133.652 98.3C132.572 98.3 131.577 98.135 130.667 97.805C129.767 97.465 129.022 96.95 128.432 96.26C127.852 95.56 127.487 94.67 127.337 93.59H129.512C129.652 94.21 129.907 94.735 130.277 95.165C130.647 95.595 131.117 95.925 131.687 96.155C132.267 96.375 132.922 96.485 133.652 96.485C134.752 96.485 135.637 96.275 136.307 95.855C136.977 95.425 137.312 94.77 137.312 93.89C137.312 93.28 137.137 92.79 136.787 92.42C136.447 92.05 135.927 91.78 135.227 91.61L131.882 90.755C130.662 90.445 129.692 89.98 128.972 89.36C128.252 88.73 127.887 87.855 127.877 86.735C127.877 85.845 128.087 85.06 128.507 84.38C128.937 83.7 129.577 83.165 130.427 82.775C131.277 82.385 132.342 82.19 133.622 82.19C135.252 82.19 136.567 82.555 137.567 83.285C138.567 84.015 139.097 85.105 139.157 86.555H137.027C136.927 85.765 136.587 85.14 136.007 84.68C135.427 84.21 134.627 83.975 133.607 83.975C132.557 83.975 131.702 84.19 131.042 84.62C130.392 85.05 130.067 85.715 130.067 86.615C130.067 87.215 130.292 87.685 130.742 88.025C131.192 88.355 131.847 88.63 132.707 88.85L135.977 89.705C136.657 89.885 137.217 90.125 137.657 90.425C138.107 90.715 138.462 91.045 138.722 91.415C138.992 91.775 139.182 92.16 139.292 92.57C139.412 92.98 139.472 93.375 139.472 93.755C139.472 94.685 139.247 95.49 138.797 96.17C138.347 96.85 137.687 97.375 136.817 97.745C135.957 98.115 134.902 98.3 133.652 98.3ZM148.623 98.3C147.543 98.3 146.548 98.135 145.638 97.805C144.738 97.465 143.993 96.95 143.403 96.26C142.823 95.56 142.458 94.67 142.308 93.59H144.483C144.623 94.21 144.878 94.735 145.248 95.165C145.618 95.595 146.088 95.925 146.658 96.155C147.238 96.375 147.893 96.485 148.623 96.485C149.723 96.485 150.608 96.275 151.278 95.855C151.948 95.425 152.283 94.77 152.283 93.89C152.283 93.28 152.108 92.79 151.758 92.42C151.418 92.05 150.898 91.78 150.198 91.61L146.853 90.755C145.633 90.445 144.663 89.98 143.943 89.36C143.223 88.73 142.858 87.855 142.848 86.735C142.848 85.845 143.058 85.06 143.478 84.38C143.908 83.7 144.548 83.165 145.398 82.775C146.248 82.385 147.313 82.19 148.593 82.19C150.223 82.19 151.538 82.555 152.538 83.285C153.538 84.015 154.068 85.105 154.128 86.555H151.998C151.898 85.765 151.558 85.14 150.978 84.68C150.398 84.21 149.598 83.975 148.578 83.975C147.528 83.975 146.673 84.19 146.013 84.62C145.363 85.05 145.038 85.715 145.038 86.615C145.038 87.215 145.263 87.685 145.713 88.025C146.163 88.355 146.818 88.63 147.678 88.85L150.948 89.705C151.628 89.885 152.188 90.125 152.628 90.425C153.078 90.715 153.433 91.045 153.693 91.415C153.963 91.775 154.153 92.16 154.263 92.57C154.383 92.98 154.443 93.375 154.443 93.755C154.443 94.685 154.218 95.49 153.768 96.17C153.318 96.85 152.658 97.375 151.788 97.745C150.928 98.115 149.873 98.3 148.623 98.3ZM161.142 82.49V98H158.862V82.49H161.142ZM161.217 76.325V78.905H158.757V76.325H161.217ZM172.282 98.3C170.882 98.3 169.652 98 168.592 97.4C167.542 96.79 166.727 95.89 166.147 94.7C165.567 93.51 165.277 92.045 165.277 90.305C165.277 88.685 165.542 87.265 166.072 86.045C166.612 84.825 167.402 83.88 168.442 83.21C169.482 82.53 170.767 82.19 172.297 82.19C173.697 82.19 174.912 82.5 175.942 83.12C176.982 83.73 177.787 84.64 178.357 85.85C178.937 87.05 179.227 88.535 179.227 90.305C179.227 91.885 178.967 93.275 178.447 94.475C177.927 95.675 177.152 96.615 176.122 97.295C175.102 97.965 173.822 98.3 172.282 98.3ZM172.297 96.41C173.267 96.41 174.092 96.17 174.772 95.69C175.462 95.21 175.987 94.51 176.347 93.59C176.717 92.67 176.902 91.555 176.902 90.245C176.902 89.065 176.742 88.01 176.422 87.08C176.102 86.15 175.602 85.42 174.922 84.89C174.242 84.35 173.367 84.08 172.297 84.08C171.307 84.08 170.462 84.32 169.762 84.8C169.072 85.27 168.542 85.965 168.172 86.885C167.802 87.805 167.617 88.925 167.617 90.245C167.617 91.425 167.777 92.48 168.097 93.41C168.427 94.33 168.937 95.06 169.627 95.6C170.317 96.14 171.207 96.41 172.297 96.41ZM183.039 98V82.49H185.289V84.755C185.549 84.305 185.904 83.89 186.354 83.51C186.814 83.13 187.369 82.825 188.019 82.595C188.679 82.365 189.419 82.25 190.239 82.25C191.239 82.25 192.149 82.45 192.969 82.85C193.799 83.24 194.459 83.85 194.949 84.68C195.439 85.51 195.684 86.575 195.684 87.875V98H193.344V88.085C193.344 86.765 193.009 85.79 192.339 85.16C191.669 84.53 190.784 84.215 189.684 84.215C188.934 84.215 188.229 84.335 187.569 84.575C186.909 84.815 186.379 85.18 185.979 85.67C185.579 86.16 185.379 86.775 185.379 87.515V98H183.039ZM204.422 98.3C203.412 98.3 202.527 98.125 201.767 97.775C201.007 97.415 200.412 96.905 199.982 96.245C199.562 95.585 199.352 94.79 199.352 93.86C199.352 92.14 199.937 90.865 201.107 90.035C202.287 89.205 204.192 88.755 206.822 88.685L209.822 88.595V87.305C209.822 86.295 209.512 85.49 208.892 84.89C208.282 84.28 207.337 83.98 206.057 83.99C205.097 83.99 204.262 84.215 203.552 84.665C202.852 85.105 202.407 85.815 202.217 86.795H200.087C200.147 85.825 200.422 85 200.912 84.32C201.402 83.63 202.092 83.105 202.982 82.745C203.872 82.375 204.937 82.19 206.177 82.19C207.457 82.19 208.532 82.38 209.402 82.76C210.282 83.13 210.947 83.69 211.397 84.44C211.847 85.18 212.072 86.1 212.072 87.2V98H210.062L209.897 95.015C209.277 96.245 208.487 97.1 207.527 97.58C206.577 98.06 205.542 98.3 204.422 98.3ZM205.082 96.545C205.642 96.545 206.197 96.445 206.747 96.245C207.307 96.045 207.817 95.77 208.277 95.42C208.737 95.07 209.107 94.68 209.387 94.25C209.667 93.82 209.812 93.38 209.822 92.93V90.17L207.317 90.215C206.007 90.235 204.932 90.365 204.092 90.605C203.262 90.845 202.642 91.215 202.232 91.715C201.832 92.205 201.632 92.85 201.632 93.65C201.632 94.56 201.952 95.27 202.592 95.78C203.232 96.29 204.062 96.545 205.082 96.545ZM220.653 98.165C219.913 98.165 219.303 98.06 218.823 97.85C218.353 97.63 217.983 97.33 217.713 96.95C217.453 96.57 217.273 96.135 217.173 95.645C217.073 95.155 217.023 94.64 217.023 94.1V75.71H219.333V93.905C219.333 94.755 219.493 95.38 219.813 95.78C220.133 96.17 220.553 96.38 221.073 96.41L221.943 96.425V97.955C221.723 98.025 221.498 98.075 221.268 98.105C221.038 98.145 220.833 98.165 220.653 98.165ZM237.03 98.3C236.02 98.3 235.135 98.125 234.375 97.775C233.615 97.415 233.02 96.905 232.59 96.245C232.17 95.585 231.96 94.79 231.96 93.86C231.96 92.14 232.545 90.865 233.715 90.035C234.895 89.205 236.8 88.755 239.43 88.685L242.43 88.595V87.305C242.43 86.295 242.12 85.49 241.5 84.89C240.89 84.28 239.945 83.98 238.665 83.99C237.705 83.99 236.87 84.215 236.16 84.665C235.46 85.105 235.015 85.815 234.825 86.795H232.695C232.755 85.825 233.03 85 233.52 84.32C234.01 83.63 234.7 83.105 235.59 82.745C236.48 82.375 237.545 82.19 238.785 82.19C240.065 82.19 241.14 82.38 242.01 82.76C242.89 83.13 243.555 83.69 244.005 84.44C244.455 85.18 244.68 86.1 244.68 87.2V98H242.67L242.505 95.015C241.885 96.245 241.095 97.1 240.135 97.58C239.185 98.06 238.15 98.3 237.03 98.3ZM237.69 96.545C238.25 96.545 238.805 96.445 239.355 96.245C239.915 96.045 240.425 95.77 240.885 95.42C241.345 95.07 241.715 94.68 241.995 94.25C242.275 93.82 242.42 93.38 242.43 92.93V90.17L239.925 90.215C238.615 90.235 237.54 90.365 236.7 90.605C235.87 90.845 235.25 91.215 234.84 91.715C234.44 92.205 234.24 92.85 234.24 93.65C234.24 94.56 234.56 95.27 235.2 95.78C235.84 96.29 236.67 96.545 237.69 96.545ZM254.707 98.3C253.627 98.3 252.632 98.135 251.722 97.805C250.822 97.465 250.077 96.95 249.487 96.26C248.907 95.56 248.542 94.67 248.392 93.59H250.567C250.707 94.21 250.962 94.735 251.332 95.165C251.702 95.595 252.172 95.925 252.742 96.155C253.322 96.375 253.977 96.485 254.707 96.485C255.807 96.485 256.692 96.275 257.362 95.855C258.032 95.425 258.367 94.77 258.367 93.89C258.367 93.28 258.192 92.79 257.842 92.42C257.502 92.05 256.982 91.78 256.282 91.61L252.937 90.755C251.717 90.445 250.747 89.98 250.027 89.36C249.307 88.73 248.942 87.855 248.932 86.735C248.932 85.845 249.142 85.06 249.562 84.38C249.992 83.7 250.632 83.165 251.482 82.775C252.332 82.385 253.397 82.19 254.677 82.19C256.307 82.19 257.622 82.555 258.622 83.285C259.622 84.015 260.152 85.105 260.212 86.555H258.082C257.982 85.765 257.642 85.14 257.062 84.68C256.482 84.21 255.682 83.975 254.662 83.975C253.612 83.975 252.757 84.19 252.097 84.62C251.447 85.05 251.122 85.715 251.122 86.615C251.122 87.215 251.347 87.685 251.797 88.025C252.247 88.355 252.902 88.63 253.762 88.85L257.032 89.705C257.712 89.885 258.272 90.125 258.712 90.425C259.162 90.715 259.517 91.045 259.777 91.415C260.047 91.775 260.237 92.16 260.347 92.57C260.467 92.98 260.527 93.375 260.527 93.755C260.527 94.685 260.302 95.49 259.852 96.17C259.402 96.85 258.742 97.375 257.872 97.745C257.012 98.115 255.957 98.3 254.707 98.3ZM269.678 98.3C268.598 98.3 267.603 98.135 266.693 97.805C265.793 97.465 265.048 96.95 264.458 96.26C263.878 95.56 263.513 94.67 263.363 93.59H265.538C265.678 94.21 265.933 94.735 266.303 95.165C266.673 95.595 267.143 95.925 267.713 96.155C268.293 96.375 268.948 96.485 269.678 96.485C270.778 96.485 271.663 96.275 272.333 95.855C273.003 95.425 273.338 94.77 273.338 93.89C273.338 93.28 273.163 92.79 272.813 92.42C272.473 92.05 271.953 91.78 271.253 91.61L267.908 90.755C266.688 90.445 265.718 89.98 264.998 89.36C264.278 88.73 263.913 87.855 263.903 86.735C263.903 85.845 264.113 85.06 264.533 84.38C264.963 83.7 265.603 83.165 266.453 82.775C267.303 82.385 268.368 82.19 269.647 82.19C271.278 82.19 272.593 82.555 273.593 83.285C274.593 84.015 275.123 85.105 275.183 86.555H273.053C272.953 85.765 272.613 85.14 272.033 84.68C271.453 84.21 270.653 83.975 269.633 83.975C268.583 83.975 267.728 84.19 267.068 84.62C266.418 85.05 266.093 85.715 266.093 86.615C266.093 87.215 266.318 87.685 266.768 88.025C267.218 88.355 267.873 88.63 268.733 88.85L272.003 89.705C272.683 89.885 273.243 90.125 273.683 90.425C274.133 90.715 274.488 91.045 274.748 91.415C275.018 91.775 275.208 92.16 275.318 92.57C275.438 92.98 275.498 93.375 275.498 93.755C275.498 94.685 275.273 95.49 274.823 96.17C274.373 96.85 273.713 97.375 272.843 97.745C271.983 98.115 270.928 98.3 269.678 98.3ZM282.197 82.49V98H279.917V82.49H282.197ZM282.272 76.325V78.905H279.812V76.325H282.272ZM292.646 98.3C291.566 98.3 290.571 98.135 289.661 97.805C288.761 97.465 288.016 96.95 287.426 96.26C286.846 95.56 286.481 94.67 286.331 93.59H288.506C288.646 94.21 288.901 94.735 289.271 95.165C289.641 95.595 290.111 95.925 290.681 96.155C291.261 96.375 291.916 96.485 292.646 96.485C293.746 96.485 294.631 96.275 295.301 95.855C295.971 95.425 296.306 94.77 296.306 93.89C296.306 93.28 296.131 92.79 295.781 92.42C295.441 92.05 294.921 91.78 294.221 91.61L290.876 90.755C289.656 90.445 288.686 89.98 287.966 89.36C287.246 88.73 286.881 87.855 286.871 86.735C286.871 85.845 287.081 85.06 287.501 84.38C287.931 83.7 288.571 83.165 289.421 82.775C290.271 82.385 291.336 82.19 292.616 82.19C294.246 82.19 295.561 82.555 296.561 83.285C297.561 84.015 298.091 85.105 298.151 86.555H296.021C295.921 85.765 295.581 85.14 295.001 84.68C294.421 84.21 293.621 83.975 292.601 83.975C291.551 83.975 290.696 84.19 290.036 84.62C289.386 85.05 289.061 85.715 289.061 86.615C289.061 87.215 289.286 87.685 289.736 88.025C290.186 88.355 290.841 88.63 291.701 88.85L294.971 89.705C295.651 89.885 296.211 90.125 296.651 90.425C297.101 90.715 297.456 91.045 297.716 91.415C297.986 91.775 298.176 92.16 298.286 92.57C298.406 92.98 298.466 93.375 298.466 93.755C298.466 94.685 298.241 95.49 297.791 96.17C297.341 96.85 296.681 97.375 295.811 97.745C294.951 98.115 293.896 98.3 292.646 98.3ZM309.621 84.245H306.111V94.25C306.111 94.85 306.166 95.29 306.276 95.57C306.396 95.84 306.601 96.015 306.891 96.095C307.191 96.165 307.606 96.2 308.136 96.2H309.726V97.82C309.536 97.89 309.251 97.95 308.871 98C308.501 98.04 308.056 98.06 307.536 98.06C306.546 98.06 305.776 97.92 305.226 97.64C304.686 97.36 304.306 96.945 304.086 96.395C303.866 95.845 303.756 95.155 303.756 94.325V84.245H301.236V82.49H303.816L304.371 78.02H306.111V82.475H309.621V84.245ZM317.948 98.3C316.938 98.3 316.053 98.125 315.293 97.775C314.533 97.415 313.938 96.905 313.508 96.245C313.088 95.585 312.878 94.79 312.878 93.86C312.878 92.14 313.463 90.865 314.633 90.035C315.813 89.205 317.718 88.755 320.348 88.685L323.348 88.595V87.305C323.348 86.295 323.038 85.49 322.418 84.89C321.808 84.28 320.863 83.98 319.583 83.99C318.623 83.99 317.788 84.215 317.078 84.665C316.378 85.105 315.933 85.815 315.743 86.795H313.613C313.673 85.825 313.948 85 314.438 84.32C314.928 83.63 315.618 83.105 316.508 82.745C317.398 82.375 318.463 82.19 319.703 82.19C320.983 82.19 322.058 82.38 322.928 82.76C323.808 83.13 324.473 83.69 324.923 84.44C325.373 85.18 325.598 86.1 325.598 87.2V98H323.588L323.423 95.015C322.803 96.245 322.013 97.1 321.053 97.58C320.103 98.06 319.068 98.3 317.948 98.3ZM318.608 96.545C319.168 96.545 319.723 96.445 320.273 96.245C320.833 96.045 321.343 95.77 321.803 95.42C322.263 95.07 322.633 94.68 322.913 94.25C323.193 93.82 323.338 93.38 323.348 92.93V90.17L320.843 90.215C319.533 90.235 318.458 90.365 317.618 90.605C316.788 90.845 316.168 91.215 315.758 91.715C315.358 92.205 315.158 92.85 315.158 93.65C315.158 94.56 315.478 95.27 316.118 95.78C316.758 96.29 317.588 96.545 318.608 96.545ZM330.548 98V82.49H332.798V84.755C333.058 84.305 333.413 83.89 333.863 83.51C334.323 83.13 334.878 82.825 335.528 82.595C336.188 82.365 336.928 82.25 337.748 82.25C338.748 82.25 339.658 82.45 340.478 82.85C341.308 83.24 341.968 83.85 342.458 84.68C342.948 85.51 343.193 86.575 343.193 87.875V98H340.853V88.085C340.853 86.765 340.518 85.79 339.848 85.16C339.178 84.53 338.293 84.215 337.193 84.215C336.443 84.215 335.738 84.335 335.078 84.575C334.418 84.815 333.888 85.18 333.488 85.67C333.088 86.16 332.888 86.775 332.888 87.515V98H330.548ZM353.776 82.19C354.846 82.19 355.816 82.39 356.686 82.79C357.556 83.19 358.276 83.765 358.846 84.515C359.416 85.255 359.781 86.15 359.941 87.2H357.796C357.696 86.62 357.471 86.1 357.121 85.64C356.771 85.17 356.311 84.8 355.741 84.53C355.181 84.26 354.531 84.125 353.791 84.125C352.381 84.125 351.231 84.63 350.341 85.64C349.461 86.64 349.021 88.185 349.021 90.275C349.021 92.145 349.421 93.645 350.221 94.775C351.031 95.895 352.231 96.455 353.821 96.455C354.561 96.455 355.211 96.32 355.771 96.05C356.341 95.77 356.801 95.4 357.151 94.94C357.501 94.47 357.721 93.955 357.811 93.395H359.926C359.776 94.415 359.411 95.295 358.831 96.035C358.251 96.765 357.526 97.325 356.656 97.715C355.796 98.105 354.836 98.3 353.776 98.3C352.396 98.3 351.176 98 350.116 97.4C349.056 96.8 348.226 95.905 347.626 94.715C347.036 93.525 346.741 92.05 346.741 90.29C346.741 88.68 347.011 87.27 347.551 86.06C348.091 84.84 348.881 83.89 349.921 83.21C350.971 82.53 352.256 82.19 353.776 82.19ZM365.448 90.785C365.448 91.825 365.618 92.77 365.958 93.62C366.298 94.47 366.823 95.15 367.533 95.66C368.243 96.17 369.143 96.425 370.233 96.425C371.283 96.425 372.188 96.18 372.948 95.69C373.708 95.19 374.183 94.485 374.373 93.575H376.623C376.433 94.615 376.018 95.485 375.378 96.185C374.748 96.885 373.983 97.415 373.083 97.775C372.193 98.125 371.253 98.3 370.263 98.3C368.843 98.3 367.588 97.99 366.498 97.37C365.418 96.74 364.573 95.835 363.963 94.655C363.363 93.475 363.063 92.055 363.063 90.395C363.063 88.745 363.338 87.305 363.888 86.075C364.438 84.835 365.233 83.88 366.273 83.21C367.323 82.53 368.588 82.19 370.068 82.19C371.498 82.19 372.708 82.5 373.698 83.12C374.688 83.73 375.443 84.605 375.963 85.745C376.483 86.885 376.743 88.245 376.743 89.825V90.785H365.448ZM365.463 89.12H374.463C374.463 88.16 374.303 87.295 373.983 86.525C373.663 85.755 373.178 85.145 372.528 84.695C371.878 84.245 371.053 84.02 370.053 84.02C368.993 84.02 368.123 84.275 367.443 84.785C366.773 85.285 366.273 85.925 365.943 86.705C365.613 87.485 365.453 88.29 365.463 89.12ZM396.154 82.49V84.245H392.254V98H389.914V84.245H386.524V82.49H389.914V80.03C389.914 78.81 390.214 77.885 390.814 77.255C391.414 76.625 392.329 76.31 393.559 76.31H396.304V78.02H393.919C393.259 78.02 392.809 78.2 392.569 78.56C392.339 78.91 392.224 79.44 392.224 80.15V82.49H396.154ZM399.806 98V82.49H402.026V85.295C402.286 84.565 402.651 83.975 403.121 83.525C403.601 83.065 404.136 82.73 404.726 82.52C405.326 82.3 405.931 82.19 406.541 82.19C406.791 82.19 407.036 82.21 407.276 82.25C407.516 82.28 407.706 82.335 407.846 82.415V84.695C407.686 84.615 407.471 84.56 407.201 84.53C406.941 84.5 406.721 84.485 406.541 84.485C405.991 84.455 405.456 84.495 404.936 84.605C404.416 84.715 403.941 84.91 403.511 85.19C403.091 85.47 402.756 85.845 402.506 86.315C402.266 86.785 402.146 87.36 402.146 88.04V98H399.806ZM416.91 98.3C415.51 98.3 414.28 98 413.22 97.4C412.17 96.79 411.355 95.89 410.775 94.7C410.195 93.51 409.905 92.045 409.905 90.305C409.905 88.685 410.17 87.265 410.7 86.045C411.24 84.825 412.03 83.88 413.07 83.21C414.11 82.53 415.395 82.19 416.925 82.19C418.325 82.19 419.54 82.5 420.57 83.12C421.61 83.73 422.415 84.64 422.985 85.85C423.565 87.05 423.855 88.535 423.855 90.305C423.855 91.885 423.595 93.275 423.075 94.475C422.555 95.675 421.78 96.615 420.75 97.295C419.73 97.965 418.45 98.3 416.91 98.3ZM416.925 96.41C417.895 96.41 418.72 96.17 419.4 95.69C420.09 95.21 420.615 94.51 420.975 93.59C421.345 92.67 421.53 91.555 421.53 90.245C421.53 89.065 421.37 88.01 421.05 87.08C420.73 86.15 420.23 85.42 419.55 84.89C418.87 84.35 417.995 84.08 416.925 84.08C415.935 84.08 415.09 84.32 414.39 84.8C413.7 85.27 413.17 85.965 412.8 86.885C412.43 87.805 412.245 88.925 412.245 90.245C412.245 91.425 412.405 92.48 412.725 93.41C413.055 94.33 413.565 95.06 414.255 95.6C414.945 96.14 415.835 96.41 416.925 96.41ZM427.668 98V82.49H429.918V84.755C430.328 84.065 430.898 83.465 431.628 82.955C432.368 82.445 433.338 82.19 434.538 82.19C435.118 82.19 435.703 82.285 436.293 82.475C436.883 82.665 437.423 82.95 437.913 83.33C438.403 83.71 438.778 84.18 439.038 84.74C439.518 83.96 440.168 83.34 440.988 82.88C441.808 82.42 442.738 82.19 443.778 82.19C444.318 82.19 444.878 82.27 445.458 82.43C446.048 82.59 446.598 82.875 447.108 83.285C447.618 83.685 448.028 84.26 448.338 85.01C448.658 85.75 448.818 86.705 448.818 87.875V98H446.478V88.085C446.478 87.055 446.318 86.265 445.998 85.715C445.678 85.155 445.263 84.765 444.753 84.545C444.243 84.325 443.698 84.215 443.118 84.215C442.598 84.215 442.048 84.315 441.468 84.515C440.898 84.705 440.408 85.04 439.998 85.52C439.598 86 439.398 86.665 439.398 87.515V98H437.058V87.155C437.058 86.505 436.883 85.965 436.533 85.535C436.193 85.095 435.768 84.765 435.258 84.545C434.748 84.325 434.238 84.215 433.728 84.215C433.168 84.215 432.598 84.325 432.018 84.545C431.448 84.765 430.968 85.12 430.578 85.61C430.198 86.1 430.008 86.735 430.008 87.515V98H427.668ZM466.012 98.3C464.612 98.3 463.382 98 462.322 97.4C461.272 96.79 460.457 95.89 459.877 94.7C459.297 93.51 459.007 92.045 459.007 90.305C459.007 88.685 459.272 87.265 459.802 86.045C460.342 84.825 461.132 83.88 462.172 83.21C463.212 82.53 464.497 82.19 466.027 82.19C467.427 82.19 468.642 82.5 469.672 83.12C470.712 83.73 471.517 84.64 472.087 85.85C472.667 87.05 472.957 88.535 472.957 90.305C472.957 91.885 472.697 93.275 472.177 94.475C471.657 95.675 470.882 96.615 469.852 97.295C468.832 97.965 467.552 98.3 466.012 98.3ZM466.027 96.41C466.997 96.41 467.822 96.17 468.502 95.69C469.192 95.21 469.717 94.51 470.077 93.59C470.447 92.67 470.632 91.555 470.632 90.245C470.632 89.065 470.472 88.01 470.152 87.08C469.832 86.15 469.332 85.42 468.652 84.89C467.972 84.35 467.097 84.08 466.027 84.08C465.037 84.08 464.192 84.32 463.492 84.8C462.802 85.27 462.272 85.965 461.902 86.885C461.532 87.805 461.347 88.925 461.347 90.245C461.347 91.425 461.507 92.48 461.827 93.41C462.157 94.33 462.667 95.06 463.357 95.6C464.047 96.14 464.937 96.41 466.027 96.41ZM482.205 98.3C481.375 98.29 480.6 98.175 479.88 97.955C479.16 97.725 478.525 97.39 477.975 96.95C477.435 96.5 477.01 95.945 476.7 95.285C476.4 94.615 476.25 93.84 476.25 92.96V82.49H478.59V92.75C478.59 93.84 478.92 94.725 479.58 95.405C480.24 96.075 481.255 96.41 482.625 96.41C483.845 96.41 484.825 96.095 485.565 95.465C486.305 94.825 486.675 93.86 486.675 92.57V82.49H489V98H487.11L486.87 95.06C486.69 95.8 486.375 96.41 485.925 96.89C485.485 97.37 484.945 97.73 484.305 97.97C483.675 98.2 482.975 98.31 482.205 98.3ZM493.761 98V82.49H495.981V85.295C496.241 84.565 496.606 83.975 497.076 83.525C497.556 83.065 498.091 82.73 498.681 82.52C499.281 82.3 499.886 82.19 500.496 82.19C500.746 82.19 500.991 82.21 501.231 82.25C501.471 82.28 501.661 82.335 501.801 82.415V84.695C501.641 84.615 501.426 84.56 501.156 84.53C500.896 84.5 500.676 84.485 500.496 84.485C499.946 84.455 499.411 84.495 498.891 84.605C498.371 84.715 497.896 84.91 497.466 85.19C497.046 85.47 496.711 85.845 496.461 86.315C496.221 86.785 496.101 87.36 496.101 88.04V98H493.761ZM517.646 98.3C516.566 98.3 515.571 98.135 514.661 97.805C513.761 97.465 513.016 96.95 512.426 96.26C511.846 95.56 511.481 94.67 511.331 93.59H513.506C513.646 94.21 513.901 94.735 514.271 95.165C514.641 95.595 515.111 95.925 515.681 96.155C516.261 96.375 516.916 96.485 517.646 96.485C518.746 96.485 519.631 96.275 520.301 95.855C520.971 95.425 521.306 94.77 521.306 93.89C521.306 93.28 521.131 92.79 520.781 92.42C520.441 92.05 519.921 91.78 519.221 91.61L515.876 90.755C514.656 90.445 513.686 89.98 512.966 89.36C512.246 88.73 511.881 87.855 511.871 86.735C511.871 85.845 512.081 85.06 512.501 84.38C512.931 83.7 513.571 83.165 514.421 82.775C515.271 82.385 516.336 82.19 517.616 82.19C519.246 82.19 520.561 82.555 521.561 83.285C522.561 84.015 523.091 85.105 523.151 86.555H521.021C520.921 85.765 520.581 85.14 520.001 84.68C519.421 84.21 518.621 83.975 517.601 83.975C516.551 83.975 515.696 84.19 515.036 84.62C514.386 85.05 514.061 85.715 514.061 86.615C514.061 87.215 514.286 87.685 514.736 88.025C515.186 88.355 515.841 88.63 516.701 88.85L519.971 89.705C520.651 89.885 521.211 90.125 521.651 90.425C522.101 90.715 522.456 91.045 522.716 91.415C522.986 91.775 523.176 92.16 523.286 92.57C523.406 92.98 523.466 93.375 523.466 93.755C523.466 94.685 523.241 95.49 522.791 96.17C522.341 96.85 521.681 97.375 520.811 97.745C519.951 98.115 518.896 98.3 517.646 98.3ZM533.241 98.3C532.411 98.29 531.636 98.175 530.916 97.955C530.196 97.725 529.561 97.39 529.011 96.95C528.471 96.5 528.046 95.945 527.736 95.285C527.436 94.615 527.286 93.84 527.286 92.96V82.49H529.626V92.75C529.626 93.84 529.956 94.725 530.616 95.405C531.276 96.075 532.291 96.41 533.661 96.41C534.881 96.41 535.861 96.095 536.601 95.465C537.341 94.825 537.711 93.86 537.711 92.57V82.49H540.036V98H538.146L537.906 95.06C537.726 95.8 537.411 96.41 536.961 96.89C536.521 97.37 535.981 97.73 535.341 97.97C534.711 98.2 534.011 98.31 533.241 98.3ZM544.796 102.83V82.49H547.121L547.166 85.325C547.316 85.015 547.526 84.68 547.796 84.32C548.076 83.96 548.426 83.62 548.846 83.3C549.266 82.97 549.761 82.705 550.331 82.505C550.911 82.295 551.576 82.19 552.326 82.19C553.586 82.19 554.696 82.47 555.656 83.03C556.616 83.59 557.361 84.45 557.891 85.61C558.431 86.77 558.701 88.24 558.701 90.02C558.701 91.76 558.446 93.25 557.936 94.49C557.436 95.72 556.701 96.665 555.731 97.325C554.761 97.975 553.576 98.3 552.176 98.3C551.426 98.3 550.771 98.195 550.211 97.985C549.651 97.775 549.171 97.5 548.771 97.16C548.371 96.82 548.041 96.47 547.781 96.11C547.521 95.74 547.311 95.39 547.151 95.06V102.83H544.796ZM551.786 96.425C553.156 96.425 554.266 95.91 555.116 94.88C555.976 93.85 556.406 92.26 556.406 90.11C556.406 88.27 556.016 86.805 555.236 85.715C554.466 84.615 553.316 84.065 551.786 84.065C550.266 84.065 549.106 84.62 548.306 85.73C547.516 86.84 547.121 88.3 547.121 90.11C547.121 91.29 547.296 92.36 547.646 93.32C548.006 94.27 548.531 95.025 549.221 95.585C549.911 96.145 550.766 96.425 551.786 96.425ZM562.521 102.83V82.49H564.846L564.891 85.325C565.041 85.015 565.251 84.68 565.521 84.32C565.801 83.96 566.151 83.62 566.571 83.3C566.991 82.97 567.486 82.705 568.056 82.505C568.636 82.295 569.301 82.19 570.051 82.19C571.311 82.19 572.421 82.47 573.381 83.03C574.341 83.59 575.086 84.45 575.616 85.61C576.156 86.77 576.426 88.24 576.426 90.02C576.426 91.76 576.171 93.25 575.661 94.49C575.161 95.72 574.426 96.665 573.456 97.325C572.486 97.975 571.301 98.3 569.901 98.3C569.151 98.3 568.496 98.195 567.936 97.985C567.376 97.775 566.896 97.5 566.496 97.16C566.096 96.82 565.766 96.47 565.506 96.11C565.246 95.74 565.036 95.39 564.876 95.06V102.83H562.521ZM569.511 96.425C570.881 96.425 571.991 95.91 572.841 94.88C573.701 93.85 574.131 92.26 574.131 90.11C574.131 88.27 573.741 86.805 572.961 85.715C572.191 84.615 571.041 84.065 569.511 84.065C567.991 84.065 566.831 84.62 566.031 85.73C565.241 86.84 564.846 88.3 564.846 90.11C564.846 91.29 565.021 92.36 565.371 93.32C565.731 94.27 566.256 95.025 566.946 95.585C567.636 96.145 568.491 96.425 569.511 96.425ZM586.276 98.3C584.876 98.3 583.646 98 582.586 97.4C581.536 96.79 580.721 95.89 580.141 94.7C579.561 93.51 579.271 92.045 579.271 90.305C579.271 88.685 579.536 87.265 580.066 86.045C580.606 84.825 581.396 83.88 582.436 83.21C583.476 82.53 584.761 82.19 586.291 82.19C587.691 82.19 588.906 82.5 589.936 83.12C590.976 83.73 591.781 84.64 592.351 85.85C592.931 87.05 593.221 88.535 593.221 90.305C593.221 91.885 592.961 93.275 592.441 94.475C591.921 95.675 591.146 96.615 590.116 97.295C589.096 97.965 587.816 98.3 586.276 98.3ZM586.291 96.41C587.261 96.41 588.086 96.17 588.766 95.69C589.456 95.21 589.981 94.51 590.341 93.59C590.711 92.67 590.896 91.555 590.896 90.245C590.896 89.065 590.736 88.01 590.416 87.08C590.096 86.15 589.596 85.42 588.916 84.89C588.236 84.35 587.361 84.08 586.291 84.08C585.301 84.08 584.456 84.32 583.756 84.8C583.066 85.27 582.536 85.965 582.166 86.885C581.796 87.805 581.611 88.925 581.611 90.245C581.611 91.425 581.771 92.48 582.091 93.41C582.421 94.33 582.931 95.06 583.621 95.6C584.311 96.14 585.201 96.41 586.291 96.41ZM597.033 98V82.49H599.253V85.295C599.513 84.565 599.878 83.975 600.348 83.525C600.828 83.065 601.363 82.73 601.953 82.52C602.553 82.3 603.158 82.19 603.768 82.19C604.018 82.19 604.263 82.21 604.503 82.25C604.743 82.28 604.933 82.335 605.073 82.415V84.695C604.913 84.615 604.698 84.56 604.428 84.53C604.168 84.5 603.948 84.485 603.768 84.485C603.218 84.455 602.683 84.495 602.163 84.605C601.643 84.715 601.168 84.91 600.738 85.19C600.318 85.47 599.983 85.845 599.733 86.315C599.493 86.785 599.373 87.36 599.373 88.04V98H597.033ZM616.359 84.245H612.849V94.25C612.849 94.85 612.904 95.29 613.014 95.57C613.134 95.84 613.339 96.015 613.629 96.095C613.929 96.165 614.344 96.2 614.874 96.2H616.464V97.82C616.274 97.89 615.989 97.95 615.609 98C615.239 98.04 614.794 98.06 614.274 98.06C613.284 98.06 612.514 97.92 611.964 97.64C611.424 97.36 611.044 96.945 610.824 96.395C610.604 95.845 610.494 95.155 610.494 94.325V84.245H607.974V82.49H610.554L611.109 78.02H612.849V82.475H616.359V84.245ZM635.139 84.245H631.629V94.25C631.629 94.85 631.684 95.29 631.794 95.57C631.914 95.84 632.119 96.015 632.409 96.095C632.709 96.165 633.124 96.2 633.654 96.2H635.244V97.82C635.054 97.89 634.769 97.95 634.389 98C634.019 98.04 633.574 98.06 633.054 98.06C632.064 98.06 631.294 97.92 630.744 97.64C630.204 97.36 629.824 96.945 629.604 96.395C629.384 95.845 629.274 95.155 629.274 94.325V84.245H626.754V82.49H629.334L629.889 78.02H631.629V82.475H635.139V84.245ZM640.517 90.785C640.517 91.825 640.687 92.77 641.027 93.62C641.367 94.47 641.892 95.15 642.602 95.66C643.312 96.17 644.212 96.425 645.302 96.425C646.352 96.425 647.257 96.18 648.017 95.69C648.777 95.19 649.252 94.485 649.442 93.575H651.692C651.502 94.615 651.087 95.485 650.447 96.185C649.817 96.885 649.052 97.415 648.152 97.775C647.262 98.125 646.322 98.3 645.332 98.3C643.912 98.3 642.657 97.99 641.567 97.37C640.487 96.74 639.642 95.835 639.032 94.655C638.432 93.475 638.132 92.055 638.132 90.395C638.132 88.745 638.407 87.305 638.957 86.075C639.507 84.835 640.302 83.88 641.342 83.21C642.392 82.53 643.657 82.19 645.137 82.19C646.567 82.19 647.777 82.5 648.767 83.12C649.757 83.73 650.512 84.605 651.032 85.745C651.552 86.885 651.812 88.245 651.812 89.825V90.785H640.517ZM640.532 89.12H649.532C649.532 88.16 649.372 87.295 649.052 86.525C648.732 85.755 648.247 85.145 647.597 84.695C646.947 84.245 646.122 84.02 645.122 84.02C644.062 84.02 643.192 84.275 642.512 84.785C641.842 85.285 641.342 85.925 641.012 86.705C640.682 87.485 640.522 88.29 640.532 89.12ZM659.842 98.3C658.832 98.3 657.947 98.125 657.187 97.775C656.427 97.415 655.832 96.905 655.402 96.245C654.982 95.585 654.772 94.79 654.772 93.86C654.772 92.14 655.357 90.865 656.527 90.035C657.707 89.205 659.612 88.755 662.242 88.685L665.242 88.595V87.305C665.242 86.295 664.932 85.49 664.312 84.89C663.702 84.28 662.757 83.98 661.477 83.99C660.517 83.99 659.682 84.215 658.972 84.665C658.272 85.105 657.827 85.815 657.637 86.795H655.507C655.567 85.825 655.842 85 656.332 84.32C656.822 83.63 657.512 83.105 658.402 82.745C659.292 82.375 660.357 82.19 661.597 82.19C662.877 82.19 663.952 82.38 664.822 82.76C665.702 83.13 666.367 83.69 666.817 84.44C667.267 85.18 667.492 86.1 667.492 87.2V98H665.482L665.317 95.015C664.697 96.245 663.907 97.1 662.947 97.58C661.997 98.06 660.962 98.3 659.842 98.3ZM660.502 96.545C661.062 96.545 661.617 96.445 662.167 96.245C662.727 96.045 663.237 95.77 663.697 95.42C664.157 95.07 664.527 94.68 664.807 94.25C665.087 93.82 665.232 93.38 665.242 92.93V90.17L662.737 90.215C661.427 90.235 660.352 90.365 659.512 90.605C658.682 90.845 658.062 91.215 657.652 91.715C657.252 92.205 657.052 92.85 657.052 93.65C657.052 94.56 657.372 95.27 658.012 95.78C658.652 96.29 659.482 96.545 660.502 96.545ZM672.443 98V82.49H674.693V84.755C675.103 84.065 675.673 83.465 676.403 82.955C677.143 82.445 678.113 82.19 679.313 82.19C679.893 82.19 680.478 82.285 681.068 82.475C681.658 82.665 682.198 82.95 682.688 83.33C683.178 83.71 683.553 84.18 683.813 84.74C684.293 83.96 684.943 83.34 685.763 82.88C686.583 82.42 687.513 82.19 688.553 82.19C689.093 82.19 689.653 82.27 690.233 82.43C690.823 82.59 691.373 82.875 691.883 83.285C692.393 83.685 692.803 84.26 693.113 85.01C693.433 85.75 693.593 86.705 693.593 87.875V98H691.253V88.085C691.253 87.055 691.093 86.265 690.773 85.715C690.453 85.155 690.038 84.765 689.528 84.545C689.018 84.325 688.473 84.215 687.893 84.215C687.373 84.215 686.823 84.315 686.243 84.515C685.673 84.705 685.183 85.04 684.773 85.52C684.373 86 684.173 86.665 684.173 87.515V98H681.833V87.155C681.833 86.505 681.658 85.965 681.308 85.535C680.968 85.095 680.543 84.765 680.033 84.545C679.523 84.325 679.013 84.215 678.503 84.215C677.943 84.215 677.373 84.325 676.793 84.545C676.223 84.765 675.743 85.12 675.353 85.61C674.973 86.1 674.783 86.735 674.783 87.515V98H672.443Z" fill="#F2F6FC"/>
<path d="M22.5 15.5C22.5 21.0228 18.0228 25.5 12.5 25.5C6.97715 25.5 2.5 21.0228 2.5 15.5C2.5 9.97715 6.97715 5.5 12.5 5.5C14.0689 5.5 15.5535 5.86132 16.875 6.50529M20.625 9.25L11.875 18L9.375 15.5" stroke="#1CCAFF" stroke-width="3" stroke-linecap="round" stroke-linejoin="round"/>
<path d="M22.5 52.5C22.5 58.0228 18.0228 62.5 12.5 62.5C6.97715 62.5 2.5 58.0228 2.5 52.5C2.5 46.9772 6.97715 42.5 12.5 42.5C14.0689 42.5 15.5535 42.8613 16.875 43.5053M20.625 46.25L11.875 55L9.375 52.5" stroke="#1CCAFF" stroke-width="3" stroke-linecap="round" stroke-linejoin="round"/>
<path d="M22.5 89.5C22.5 95.0228 18.0228 99.5 12.5 99.5C6.97715 99.5 2.5 95.0228 2.5 89.5C2.5 83.9772 6.97715 79.5 12.5 79.5C14.0689 79.5 15.5535 79.8613 16.875 80.5053M20.625 83.25L11.875 92L9.375 89.5" stroke="#1CCAFF" stroke-width="3" stroke-linecap="round" stroke-linejoin="round"/>
<rect x="520" y="157" width="220" height="62" rx="5" fill="#D0F2FF"/>
<path d="M574.723 195.18C573.529 195.18 572.491 194.91 571.609 194.37C570.733 193.824 570.055 193.053 569.575 192.057C569.101 191.061 568.864 189.885 568.864 188.529C568.864 187.149 569.113 185.958 569.611 184.956C570.115 183.948 570.817 183.171 571.717 182.625C572.617 182.079 573.667 181.806 574.867 181.806C575.641 181.806 576.346 181.929 576.982 182.175C577.618 182.421 578.17 182.757 578.638 183.183C579.112 183.609 579.481 184.092 579.745 184.632C580.015 185.166 580.162 185.721 580.186 186.297H577.414C577.336 185.883 577.18 185.505 576.946 185.163C576.718 184.821 576.424 184.548 576.064 184.344C575.704 184.134 575.284 184.029 574.804 184.029C574.228 184.029 573.706 184.179 573.238 184.479C572.77 184.773 572.401 185.244 572.131 185.892C571.861 186.54 571.726 187.395 571.726 188.457C571.726 189.315 571.813 190.029 571.987 190.599C572.167 191.169 572.407 191.622 572.707 191.958C573.007 192.288 573.349 192.522 573.733 192.66C574.117 192.798 574.51 192.867 574.912 192.867C575.296 192.867 575.638 192.804 575.938 192.678C576.244 192.546 576.505 192.378 576.721 192.174C576.937 191.97 577.108 191.748 577.234 191.508C577.36 191.262 577.441 191.022 577.477 190.788L577.576 189.996H574.885V188.178L580.33 188.205V195H578.539V193.299C578.317 193.593 578.041 193.887 577.711 194.181C577.387 194.469 576.982 194.709 576.496 194.901C576.016 195.087 575.425 195.18 574.723 195.18ZM583.116 195V181.986H592.053L592.044 184.2H585.753V187.359H591.216V189.528H585.735V192.759L592.143 192.768V195H583.116ZM593.848 184.326V181.986H604.261V184.326H600.418V195H597.781V184.326H593.848ZM609.87 181.986H612.489V195H609.87V181.986ZM623.948 181.986H626.576V195H624.209L618.026 186.045V195H615.407V181.986H618.008L623.948 190.599V181.986ZM632.186 184.326V181.986H642.599V184.326H638.756V195H636.119V184.326H632.186ZM649.75 195.18C648.52 195.18 647.455 194.913 646.555 194.379C645.661 193.839 644.968 193.074 644.476 192.084C643.99 191.088 643.747 189.9 643.747 188.52C643.747 187.134 643.993 185.94 644.485 184.938C644.983 183.936 645.682 183.165 646.582 182.625C647.482 182.079 648.538 181.806 649.75 181.806C650.956 181.806 652.006 182.076 652.9 182.616C653.794 183.156 654.484 183.927 654.97 184.929C655.462 185.931 655.708 187.128 655.708 188.52C655.708 189.894 655.465 191.079 654.979 192.075C654.499 193.071 653.812 193.839 652.918 194.379C652.024 194.913 650.968 195.18 649.75 195.18ZM649.75 193.02C650.386 193.02 650.935 192.87 651.397 192.57C651.865 192.264 652.225 191.784 652.477 191.13C652.729 190.47 652.855 189.612 652.855 188.556C652.855 187.47 652.726 186.591 652.468 185.919C652.216 185.247 651.856 184.755 651.388 184.443C650.926 184.125 650.38 183.966 649.75 183.966C649.12 183.966 648.571 184.125 648.103 184.443C647.635 184.755 647.272 185.25 647.014 185.928C646.756 186.6 646.627 187.476 646.627 188.556C646.627 189.618 646.756 190.476 647.014 191.13C647.272 191.784 647.635 192.264 648.103 192.57C648.571 192.87 649.12 193.02 649.75 193.02ZM668.289 190.041C668.289 191.091 668.118 192.003 667.776 192.777C667.434 193.545 666.879 194.139 666.111 194.559C665.349 194.973 664.338 195.18 663.078 195.18C661.812 195.18 660.798 194.97 660.036 194.55C659.274 194.124 658.722 193.521 658.38 192.741C658.044 191.961 657.876 191.031 657.876 189.951V181.986H660.549V190.149C660.549 191.121 660.783 191.832 661.251 192.282C661.719 192.726 662.328 192.948 663.078 192.948C663.576 192.948 664.017 192.852 664.401 192.66C664.785 192.462 665.085 192.159 665.301 191.751C665.523 191.337 665.634 190.803 665.634 190.149V181.986H668.289V190.041ZM676.202 181.806C677.18 181.806 678.05 182.004 678.812 182.4C679.58 182.79 680.198 183.324 680.666 184.002C681.14 184.68 681.419 185.445 681.503 186.297H678.749C678.665 185.847 678.512 185.448 678.29 185.1C678.068 184.746 677.777 184.47 677.417 184.272C677.057 184.068 676.625 183.966 676.121 183.966C675.515 183.966 674.993 184.113 674.555 184.407C674.117 184.701 673.781 185.175 673.547 185.829C673.313 186.483 673.196 187.347 673.196 188.421C673.196 190.041 673.454 191.214 673.97 191.94C674.492 192.66 675.209 193.02 676.121 193.02C676.625 193.02 677.057 192.906 677.417 192.678C677.777 192.444 678.068 192.138 678.29 191.76C678.512 191.376 678.665 190.956 678.749 190.5H681.503C681.425 191.118 681.275 191.709 681.053 192.273C680.831 192.831 680.516 193.329 680.108 193.767C679.7 194.205 679.175 194.55 678.533 194.802C677.891 195.054 677.114 195.18 676.202 195.18C674.99 195.18 673.943 194.898 673.061 194.334C672.179 193.77 671.498 192.978 671.018 191.958C670.544 190.938 670.307 189.747 670.307 188.385C670.307 187.017 670.544 185.844 671.018 184.866C671.492 183.882 672.17 183.126 673.052 182.598C673.934 182.07 674.984 181.806 676.202 181.806ZM692.137 189.411H686.44V195H683.821V181.986H686.44V187.206H692.137V181.986H694.765V195H692.137V189.411Z" fill="#123349"/>
<path d="M509.999 251.986H512.627V265H510.26L504.077 256.045V265H501.458V251.986H504.059L509.999 260.599V251.986ZM520.947 265.18C519.717 265.18 518.652 264.913 517.752 264.379C516.858 263.839 516.165 263.074 515.673 262.084C515.187 261.088 514.944 259.9 514.944 258.52C514.944 257.134 515.19 255.94 515.682 254.938C516.18 253.936 516.879 253.165 517.779 252.625C518.679 252.079 519.735 251.806 520.947 251.806C522.153 251.806 523.203 252.076 524.097 252.616C524.991 253.156 525.681 253.927 526.167 254.929C526.659 255.931 526.905 257.128 526.905 258.52C526.905 259.894 526.662 261.079 526.176 262.075C525.696 263.071 525.009 263.839 524.115 264.379C523.221 264.913 522.165 265.18 520.947 265.18ZM520.947 263.02C521.583 263.02 522.132 262.87 522.594 262.57C523.062 262.264 523.422 261.784 523.674 261.13C523.926 260.47 524.052 259.612 524.052 258.556C524.052 257.47 523.923 256.591 523.665 255.919C523.413 255.247 523.053 254.755 522.585 254.443C522.123 254.125 521.577 253.966 520.947 253.966C520.317 253.966 519.768 254.125 519.3 254.443C518.832 254.755 518.469 255.25 518.211 255.928C517.953 256.6 517.824 257.476 517.824 258.556C517.824 259.618 517.953 260.476 518.211 261.13C518.469 261.784 518.832 262.264 519.3 262.57C519.768 262.87 520.317 263.02 520.947 263.02ZM533.046 265V251.986H541.983L541.974 254.2H535.683V257.359H541.146V259.528H535.665V262.759L542.073 262.768V265H533.046ZM555.847 265H552.571L549.637 260.302L546.757 265H543.931L548.26 258.394L544.066 251.986H547.315L549.916 256.198L552.49 251.986H555.28L551.266 258.052L555.847 265ZM556.803 254.326V251.986H567.216V254.326H563.373V265H560.736V254.326H556.803ZM579.109 265H576.382L574.267 259.987H571.63V265H569.011V251.986H574.501C575.539 251.986 576.388 252.151 577.048 252.481C577.708 252.811 578.194 253.27 578.506 253.858C578.818 254.44 578.974 255.112 578.974 255.874C578.974 256.558 578.866 257.137 578.65 257.611C578.44 258.079 578.161 258.469 577.813 258.781C577.471 259.093 577.096 259.348 576.688 259.546L579.109 265ZM574.033 257.962C574.735 257.962 575.29 257.773 575.698 257.395C576.112 257.017 576.319 256.531 576.319 255.937C576.319 255.337 576.121 254.863 575.725 254.515C575.329 254.167 574.828 253.993 574.222 253.993H571.63V257.962H574.033ZM580.704 265L585.366 251.986H588.138L592.791 265H590.172L589.11 261.985H584.43L583.341 265H580.704ZM585.015 259.69H588.48L586.761 254.524L585.015 259.69ZM598.56 251.986H607.416L607.407 254.182H601.206V257.449H606.579V259.6H601.206V265H598.56V251.986ZM609.599 265V251.986H618.536L618.527 254.2H612.236V257.359H617.699V259.528H612.218V262.759L618.626 262.768V265H609.599ZM621.13 265V251.986H630.067L630.058 254.2H623.767V257.359H629.23V259.528H623.749V262.759L630.157 262.768V265H621.13ZM637.566 265.18C636.924 265.18 636.294 265.099 635.676 264.937C635.058 264.775 634.494 264.532 633.984 264.208C633.474 263.884 633.051 263.479 632.715 262.993C632.385 262.507 632.187 261.937 632.121 261.283H634.812C634.902 261.679 635.073 262.012 635.325 262.282C635.577 262.552 635.895 262.759 636.279 262.903C636.663 263.047 637.089 263.119 637.557 263.119C638.037 263.119 638.475 263.059 638.871 262.939C639.267 262.819 639.585 262.639 639.825 262.399C640.065 262.153 640.185 261.847 640.185 261.481C640.185 261.151 640.086 260.881 639.888 260.671C639.696 260.461 639.435 260.29 639.105 260.158C638.775 260.026 638.4 259.918 637.98 259.834L635.73 259.375C634.746 259.189 633.966 258.799 633.39 258.205C632.814 257.605 632.517 256.807 632.499 255.811C632.493 254.995 632.709 254.29 633.147 253.696C633.591 253.096 634.191 252.634 634.947 252.31C635.709 251.986 636.561 251.824 637.503 251.824C638.625 251.824 639.567 252.001 640.329 252.355C641.097 252.703 641.679 253.177 642.075 253.777C642.477 254.371 642.684 255.034 642.696 255.766H640.059C640.011 255.31 639.873 254.947 639.645 254.677C639.417 254.407 639.123 254.212 638.763 254.092C638.409 253.972 638.004 253.912 637.548 253.912C637.2 253.912 636.882 253.951 636.594 254.029C636.312 254.107 636.072 254.218 635.874 254.362C635.676 254.5 635.523 254.665 635.415 254.857C635.307 255.049 635.253 255.265 635.253 255.505C635.253 255.883 635.379 256.189 635.631 256.423C635.883 256.657 636.354 256.849 637.044 256.999L639.276 257.458C640.074 257.614 640.707 257.845 641.175 258.151C641.649 258.457 642.003 258.802 642.237 259.186C642.477 259.57 642.633 259.963 642.705 260.365C642.783 260.761 642.822 261.127 642.822 261.463C642.822 262.165 642.6 262.798 642.156 263.362C641.718 263.92 641.106 264.364 640.32 264.694C639.534 265.018 638.616 265.18 637.566 265.18ZM644.371 267.52L645.415 265.072L644.497 264.991V262.444H647.152V264.685L645.343 267.52H644.371ZM653.737 265V251.986H662.674L662.665 254.2H656.374V257.359H661.837V259.528H656.356V262.759L662.764 262.768V265H653.737ZM664.253 265L668.915 251.986H671.687L676.34 265H673.721L672.659 261.985H667.979L666.89 265H664.253ZM668.564 259.69H672.029L670.31 254.524L668.564 259.69ZM682.917 265.18C682.275 265.18 681.645 265.099 681.027 264.937C680.409 264.775 679.845 264.532 679.335 264.208C678.825 263.884 678.402 263.479 678.066 262.993C677.736 262.507 677.538 261.937 677.472 261.283H680.163C680.253 261.679 680.424 262.012 680.676 262.282C680.928 262.552 681.246 262.759 681.63 262.903C682.014 263.047 682.44 263.119 682.908 263.119C683.388 263.119 683.826 263.059 684.222 262.939C684.618 262.819 684.936 262.639 685.176 262.399C685.416 262.153 685.536 261.847 685.536 261.481C685.536 261.151 685.437 260.881 685.239 260.671C685.047 260.461 684.786 260.29 684.456 260.158C684.126 260.026 683.751 259.918 683.331 259.834L681.081 259.375C680.097 259.189 679.317 258.799 678.741 258.205C678.165 257.605 677.868 256.807 677.85 255.811C677.844 254.995 678.06 254.29 678.498 253.696C678.942 253.096 679.542 252.634 680.298 252.31C681.06 251.986 681.912 251.824 682.854 251.824C683.976 251.824 684.918 252.001 685.68 252.355C686.448 252.703 687.03 253.177 687.426 253.777C687.828 254.371 688.035 255.034 688.047 255.766H685.41C685.362 255.31 685.224 254.947 684.996 254.677C684.768 254.407 684.474 254.212 684.114 254.092C683.76 253.972 683.355 253.912 682.899 253.912C682.551 253.912 682.233 253.951 681.945 254.029C681.663 254.107 681.423 254.218 681.225 254.362C681.027 254.5 680.874 254.665 680.766 254.857C680.658 255.049 680.604 255.265 680.604 255.505C680.604 255.883 680.73 256.189 680.982 256.423C681.234 256.657 681.705 256.849 682.395 256.999L684.627 257.458C685.425 257.614 686.058 257.845 686.526 258.151C687 258.457 687.354 258.802 687.588 259.186C687.828 259.57 687.984 259.963 688.056 260.365C688.134 260.761 688.173 261.127 688.173 261.463C688.173 262.165 687.951 262.798 687.507 263.362C687.069 263.92 686.457 264.364 685.671 264.694C684.885 265.018 683.967 265.18 682.917 265.18ZM700.317 251.986L695.79 259.528V265H693.162V259.519L688.644 251.986H691.488L694.485 257.26L697.446 251.986H700.317ZM710.216 265.18C709.574 265.18 708.944 265.099 708.326 264.937C707.708 264.775 707.144 264.532 706.634 264.208C706.124 263.884 705.701 263.479 705.365 262.993C705.035 262.507 704.837 261.937 704.771 261.283H707.462C707.552 261.679 707.723 262.012 707.975 262.282C708.227 262.552 708.545 262.759 708.929 262.903C709.313 263.047 709.739 263.119 710.207 263.119C710.687 263.119 711.125 263.059 711.521 262.939C711.917 262.819 712.235 262.639 712.475 262.399C712.715 262.153 712.835 261.847 712.835 261.481C712.835 261.151 712.736 260.881 712.538 260.671C712.346 260.461 712.085 260.29 711.755 260.158C711.425 260.026 711.05 259.918 710.63 259.834L708.38 259.375C707.396 259.189 706.616 258.799 706.04 258.205C705.464 257.605 705.167 256.807 705.149 255.811C705.143 254.995 705.359 254.29 705.797 253.696C706.241 253.096 706.841 252.634 707.597 252.31C708.359 251.986 709.211 251.824 710.153 251.824C711.275 251.824 712.217 252.001 712.979 252.355C713.747 252.703 714.329 253.177 714.725 253.777C715.127 254.371 715.334 255.034 715.346 255.766H712.709C712.661 255.31 712.523 254.947 712.295 254.677C712.067 254.407 711.773 254.212 711.413 254.092C711.059 253.972 710.654 253.912 710.198 253.912C709.85 253.912 709.532 253.951 709.244 254.029C708.962 254.107 708.722 254.218 708.524 254.362C708.326 254.5 708.173 254.665 708.065 254.857C707.957 255.049 707.903 255.265 707.903 255.505C707.903 255.883 708.029 256.189 708.281 256.423C708.533 256.657 709.004 256.849 709.694 256.999L711.926 257.458C712.724 257.614 713.357 257.845 713.825 258.151C714.299 258.457 714.653 258.802 714.887 259.186C715.127 259.57 715.283 259.963 715.355 260.365C715.433 260.761 715.472 261.127 715.472 261.463C715.472 262.165 715.25 262.798 714.806 263.362C714.368 263.92 713.756 264.364 712.97 264.694C712.184 265.018 711.266 265.18 710.216 265.18ZM717.792 265V251.986H726.729L726.72 254.2H720.429V257.359H725.892V259.528H720.411V262.759L726.819 262.768V265H717.792ZM728.524 254.326V251.986H738.937V254.326H735.094V265H732.457V254.326H728.524ZM751.144 260.041C751.144 261.091 750.973 262.003 750.631 262.777C750.289 263.545 749.734 264.139 748.966 264.559C748.204 264.973 747.193 265.18 745.933 265.18C744.667 265.18 743.653 264.97 742.891 264.55C742.129 264.124 741.577 263.521 741.235 262.741C740.899 261.961 740.731 261.031 740.731 259.951V251.986H743.404V260.149C743.404 261.121 743.638 261.832 744.106 262.282C744.574 262.726 745.183 262.948 745.933 262.948C746.431 262.948 746.872 262.852 747.256 262.66C747.64 262.462 747.94 262.159 748.156 261.751C748.378 261.337 748.489 260.803 748.489 260.149V251.986H751.144V260.041ZM753.757 265V251.986H758.545C759.493 251.986 760.342 252.151 761.092 252.481C761.842 252.805 762.433 253.285 762.865 253.921C763.303 254.557 763.522 255.334 763.522 256.252C763.522 257.116 763.33 257.854 762.946 258.466C762.562 259.078 762.022 259.546 761.326 259.87C760.636 260.194 759.823 260.356 758.887 260.356H756.403V265H753.757ZM756.376 258.322H758.815C759.475 258.322 760.015 258.112 760.435 257.692C760.855 257.266 761.065 256.741 761.065 256.117C761.065 255.469 760.843 254.956 760.399 254.578C759.955 254.194 759.415 254.002 758.779 254.002H756.376V258.322Z" fill="#D0F2FF"/>
</svg>
