<svg width="689" height="545" viewBox="0 0 689 545" fill="none" xmlns="http://www.w3.org/2000/svg">
<g filter="url(#filter0_d_27_769)">
<rect x="359" y="266" width="256" height="187" rx="8" fill="#FCFCFC"/>
<path d="M392.25 315.438C391.183 315.438 390.139 315.121 389.252 314.528C388.365 313.935 387.673 313.093 387.265 312.107C386.856 311.121 386.749 310.036 386.958 308.989C387.166 307.942 387.68 306.981 388.434 306.226C389.189 305.472 390.15 304.958 391.197 304.75C392.244 304.541 393.329 304.648 394.315 305.057C395.301 305.465 396.143 306.157 396.736 307.044C397.329 307.931 397.646 308.975 397.646 310.042C397.644 311.472 397.075 312.844 396.063 313.855C395.052 314.867 393.68 315.436 392.25 315.438Z" fill="#0388A9"/>
<path d="M396.32 313.544C395.821 314.137 395.198 314.614 394.494 314.941C393.791 315.268 393.025 315.438 392.25 315.438C391.474 315.438 390.708 315.268 390.005 314.941C389.302 314.614 388.679 314.137 388.179 313.544C387.069 314.232 386.153 315.192 385.516 316.332C384.88 317.473 384.544 318.757 384.542 320.063C384.542 320.471 384.704 320.864 384.993 321.153C385.282 321.442 385.674 321.604 386.083 321.604H398.417C398.825 321.604 399.218 321.442 399.507 321.153C399.796 320.864 399.958 320.471 399.958 320.063C399.955 318.757 399.62 317.473 398.983 316.332C398.347 315.192 397.43 314.232 396.32 313.544V313.544ZM410.75 315.438C409.683 315.438 408.639 315.121 407.752 314.528C406.865 313.935 406.173 313.093 405.765 312.107C405.356 311.121 405.249 310.036 405.458 308.989C405.666 307.942 406.18 306.981 406.934 306.226C407.689 305.472 408.65 304.958 409.697 304.75C410.744 304.541 411.829 304.648 412.815 305.057C413.801 305.465 414.643 306.157 415.236 307.044C415.829 307.931 416.146 308.975 416.146 310.042C416.144 311.472 415.575 312.844 414.563 313.855C413.552 314.867 412.18 315.436 410.75 315.438Z" fill="#C3E8F1"/>
<path d="M414.82 313.544C414.321 314.137 413.698 314.614 412.994 314.941C412.291 315.268 411.525 315.438 410.75 315.438C409.974 315.438 409.208 315.268 408.505 314.941C407.802 314.614 407.179 314.137 406.679 313.544C405.569 314.232 404.653 315.192 404.016 316.332C403.38 317.473 403.044 318.757 403.042 320.063C403.042 320.471 403.204 320.864 403.493 321.153C403.782 321.442 404.174 321.604 404.583 321.604H416.917C417.325 321.604 417.718 321.442 418.007 321.153C418.296 320.864 418.458 320.471 418.458 320.063C418.455 318.757 418.12 317.473 417.483 316.332C416.847 315.192 415.93 314.232 414.82 313.544V313.544Z" fill="#027794"/>
<path d="M409.528 298.931L406.444 295.848C406.154 295.563 405.764 295.404 405.357 295.406C404.951 295.408 404.562 295.57 404.274 295.857C403.987 296.145 403.825 296.534 403.823 296.94C403.821 297.347 403.98 297.737 404.264 298.027L404.716 298.479H398.284L398.736 298.027C399.022 297.738 399.182 297.347 399.181 296.939C399.179 296.532 399.017 296.142 398.729 295.854C398.441 295.566 398.051 295.404 397.644 295.403C397.237 295.402 396.846 295.561 396.556 295.848L393.473 298.931C393.329 299.074 393.216 299.244 393.138 299.431C393.061 299.618 393.021 299.818 393.021 300.021C393.021 300.223 393.061 300.424 393.138 300.611C393.216 300.798 393.329 300.968 393.473 301.111L396.556 304.194C396.846 304.48 397.237 304.64 397.644 304.639C398.051 304.638 398.441 304.475 398.729 304.187C399.017 303.899 399.179 303.509 399.181 303.102C399.182 302.695 399.022 302.304 398.736 302.014L398.284 301.562H404.716L404.264 302.014C403.975 302.303 403.813 302.695 403.813 303.104C403.813 303.513 403.975 303.905 404.264 304.194C404.553 304.483 404.945 304.646 405.354 304.646C405.763 304.646 406.155 304.483 406.444 304.194L409.528 301.111C409.671 300.968 409.784 300.798 409.862 300.611C409.939 300.424 409.979 300.223 409.979 300.021C409.979 299.818 409.939 299.618 409.862 299.431C409.784 299.244 409.671 299.074 409.528 298.931V298.931Z" fill="#027794"/>
<path d="M383.816 368L390.056 350.648H393.212L399.44 368H396.512L394.964 363.644H388.34L386.756 368H383.816ZM389.012 361.052H394.244L391.64 353.492L389.012 361.052ZM406.232 368.24C405.624 368.24 405.036 368.152 404.468 367.976C403.908 367.792 403.404 367.528 402.956 367.184C402.508 366.832 402.152 366.4 401.888 365.888C401.624 365.376 401.492 364.78 401.492 364.1V355.592H404.42V363.764C404.42 364.436 404.632 364.988 405.056 365.42C405.488 365.852 406.136 366.068 407 366.068C407.784 366.068 408.412 365.864 408.884 365.456C409.356 365.04 409.592 364.444 409.592 363.668V355.592H412.496V368H410.252L409.928 365.576C409.776 366.256 409.508 366.792 409.124 367.184C408.748 367.568 408.304 367.84 407.792 368C407.288 368.16 406.768 368.24 406.232 368.24ZM422.673 357.656H419.901L419.913 364.772C419.913 365.14 419.953 365.412 420.033 365.588C420.121 365.756 420.257 365.868 420.441 365.924C420.633 365.972 420.889 365.996 421.209 365.996H422.733V367.844C422.573 367.908 422.329 367.964 422.001 368.012C421.681 368.068 421.249 368.096 420.705 368.096C419.721 368.096 418.957 367.968 418.413 367.712C417.877 367.448 417.505 367.076 417.297 366.596C417.089 366.116 416.985 365.544 416.985 364.88V357.656H414.969V355.592H417.069L417.801 351.908H419.901V355.58H422.673V357.656ZM425.531 368V350.168H428.411V357.392C428.611 357.08 428.875 356.78 429.203 356.492C429.531 356.196 429.931 355.956 430.403 355.772C430.883 355.58 431.455 355.484 432.119 355.484C432.911 355.484 433.635 355.636 434.291 355.94C434.947 356.244 435.471 356.684 435.863 357.26C436.255 357.828 436.451 358.508 436.451 359.3V368H433.523V359.792C433.523 359.152 433.295 358.656 432.839 358.304C432.391 357.952 431.823 357.776 431.135 357.776C430.679 357.776 430.243 357.856 429.827 358.016C429.411 358.176 429.075 358.416 428.819 358.736C428.571 359.048 428.447 359.44 428.447 359.912V368H425.531ZM441.862 362.468C441.854 363.172 441.966 363.796 442.198 364.34C442.43 364.884 442.774 365.312 443.23 365.624C443.686 365.928 444.25 366.08 444.922 366.08C445.61 366.08 446.206 365.928 446.71 365.624C447.222 365.312 447.562 364.84 447.73 364.208H450.406C450.262 365.072 449.918 365.804 449.374 366.404C448.83 367.004 448.17 367.46 447.394 367.772C446.626 368.084 445.826 368.24 444.994 368.24C443.794 368.24 442.738 367.988 441.826 367.484C440.922 366.972 440.214 366.244 439.702 365.3C439.198 364.356 438.946 363.232 438.946 361.928C438.946 360.656 439.178 359.528 439.642 358.544C440.106 357.552 440.774 356.772 441.646 356.204C442.526 355.636 443.582 355.352 444.814 355.352C446.038 355.352 447.066 355.612 447.898 356.132C448.738 356.652 449.37 357.38 449.794 358.316C450.226 359.244 450.442 360.332 450.442 361.58V362.468H441.862ZM441.862 360.656H447.682C447.682 360.056 447.578 359.516 447.37 359.036C447.162 358.548 446.842 358.164 446.41 357.884C445.986 357.596 445.45 357.452 444.802 357.452C444.162 357.452 443.622 357.608 443.182 357.92C442.742 358.232 442.41 358.636 442.186 359.132C441.962 359.62 441.854 360.128 441.862 360.656ZM453.164 368V355.592H456.02V357.368C456.212 357.048 456.472 356.74 456.8 356.444C457.136 356.148 457.548 355.908 458.036 355.724C458.524 355.54 459.096 355.448 459.752 355.448C460.52 355.448 461.232 355.6 461.888 355.904C462.552 356.208 463.084 356.684 463.484 357.332C463.892 357.98 464.096 358.816 464.096 359.84V368H461.168V360.188C461.168 359.372 460.944 358.768 460.496 358.376C460.048 357.976 459.484 357.776 458.804 357.776C458.34 357.776 457.9 357.856 457.484 358.016C457.068 358.168 456.728 358.404 456.464 358.724C456.208 359.036 456.08 359.428 456.08 359.9V368H453.164ZM473.65 357.656H470.878L470.89 364.772C470.89 365.14 470.93 365.412 471.01 365.588C471.098 365.756 471.234 365.868 471.418 365.924C471.61 365.972 471.866 365.996 472.186 365.996H473.71V367.844C473.55 367.908 473.306 367.964 472.978 368.012C472.658 368.068 472.226 368.096 471.682 368.096C470.698 368.096 469.934 367.968 469.39 367.712C468.854 367.448 468.482 367.076 468.274 366.596C468.066 366.116 467.962 365.544 467.962 364.88V357.656H465.946V355.592H468.046L468.778 351.908H470.878V355.58H473.65V357.656ZM479.52 355.592V368H476.712V355.592H479.52ZM479.556 350.66V353.42H476.664V350.66H479.556ZM488.195 355.352C489.163 355.352 490.015 355.544 490.751 355.928C491.487 356.312 492.075 356.844 492.515 357.524C492.963 358.204 493.231 358.976 493.319 359.84H490.823C490.767 359.464 490.631 359.108 490.415 358.772C490.199 358.428 489.907 358.152 489.539 357.944C489.171 357.728 488.727 357.62 488.207 357.62C487.279 357.62 486.523 357.964 485.939 358.652C485.363 359.34 485.075 360.396 485.075 361.82C485.075 363.132 485.351 364.176 485.903 364.952C486.455 365.728 487.243 366.116 488.267 366.116C488.779 366.116 489.215 366.004 489.575 365.78C489.943 365.548 490.231 365.264 490.439 364.928C490.655 364.584 490.795 364.24 490.859 363.896H493.283C493.211 364.736 492.947 365.484 492.491 366.14C492.043 366.796 491.451 367.312 490.715 367.688C489.987 368.056 489.147 368.24 488.195 368.24C487.059 368.24 486.047 367.992 485.159 367.496C484.279 366.992 483.587 366.264 483.083 365.312C482.579 364.352 482.327 363.196 482.327 361.844C482.327 360.556 482.563 359.428 483.035 358.46C483.507 357.484 484.183 356.724 485.063 356.18C485.943 355.628 486.987 355.352 488.195 355.352ZM504.586 368.24C503.794 368.24 503.082 368.096 502.45 367.808C501.826 367.512 501.334 367.092 500.974 366.548C500.622 365.996 500.446 365.328 500.446 364.544C500.446 363.176 500.938 362.144 501.922 361.448C502.914 360.752 504.494 360.388 506.662 360.356L508.51 360.308V359.468C508.51 358.812 508.314 358.3 507.922 357.932C507.538 357.556 506.938 357.372 506.122 357.38C505.522 357.388 504.97 357.532 504.466 357.812C503.97 358.084 503.642 358.544 503.482 359.192H500.998C501.046 358.344 501.29 357.636 501.73 357.068C502.178 356.492 502.79 356.064 503.566 355.784C504.342 355.496 505.238 355.352 506.254 355.352C507.438 355.352 508.402 355.508 509.146 355.82C509.89 356.132 510.438 356.584 510.79 357.176C511.142 357.76 511.318 358.468 511.318 359.3V368H508.858L508.63 365.768C508.182 366.704 507.614 367.352 506.926 367.712C506.246 368.064 505.466 368.24 504.586 368.24ZM505.534 366.26C505.894 366.26 506.25 366.196 506.602 366.068C506.954 365.932 507.274 365.752 507.562 365.528C507.85 365.296 508.078 365.04 508.246 364.76C508.422 364.48 508.51 364.188 508.51 363.884V361.928L506.986 361.952C506.234 361.96 505.578 362.04 505.018 362.192C504.458 362.344 504.018 362.588 503.698 362.924C503.386 363.252 503.23 363.692 503.23 364.244C503.23 364.876 503.45 365.372 503.89 365.732C504.33 366.084 504.878 366.26 505.534 366.26ZM514.734 368V355.592H517.59V357.368C517.782 357.048 518.042 356.74 518.37 356.444C518.706 356.148 519.118 355.908 519.606 355.724C520.094 355.54 520.666 355.448 521.322 355.448C522.09 355.448 522.802 355.6 523.458 355.904C524.122 356.208 524.654 356.684 525.054 357.332C525.462 357.98 525.666 358.816 525.666 359.84V368H522.738V360.188C522.738 359.372 522.514 358.768 522.066 358.376C521.618 357.976 521.054 357.776 520.374 357.776C519.91 357.776 519.47 357.856 519.054 358.016C518.638 358.168 518.298 358.404 518.034 358.724C517.778 359.036 517.65 359.428 517.65 359.9V368H514.734ZM533.345 368.24C531.705 368.24 530.417 367.676 529.481 366.548C528.545 365.42 528.077 363.816 528.077 361.736C528.077 360.44 528.265 359.316 528.641 358.364C529.025 357.404 529.585 356.664 530.321 356.144C531.065 355.616 531.985 355.352 533.081 355.352C533.593 355.352 534.057 355.416 534.473 355.544C534.897 355.664 535.273 355.824 535.601 356.024C535.929 356.224 536.205 356.444 536.429 356.684C536.661 356.924 536.841 357.164 536.969 357.404V350.168H539.897V368H537.737L537.413 365.456C537.317 365.752 537.173 366.064 536.981 366.392C536.797 366.712 536.545 367.012 536.225 367.292C535.913 367.572 535.521 367.8 535.049 367.976C534.577 368.152 534.009 368.24 533.345 368.24ZM533.945 366.092C534.993 366.092 535.757 365.752 536.237 365.072C536.725 364.384 536.969 363.248 536.969 361.664C536.961 360.76 536.849 360 536.633 359.384C536.425 358.768 536.101 358.304 535.661 357.992C535.229 357.68 534.669 357.524 533.981 357.524C533.101 357.524 532.377 357.848 531.809 358.496C531.241 359.144 530.957 360.2 530.957 361.664C530.957 363.12 531.217 364.224 531.737 364.976C532.257 365.72 532.993 366.092 533.945 366.092ZM388.232 396.18C387.432 396.18 386.792 396.08 386.312 395.88C385.832 395.68 385.472 395.412 385.232 395.076C384.992 394.74 384.836 394.364 384.764 393.948C384.692 393.524 384.656 393.092 384.656 392.652V378.168H387.512V392.316C387.512 392.852 387.62 393.268 387.836 393.564C388.06 393.86 388.42 394.032 388.916 394.08L389.54 394.104V395.94C389.324 396.004 389.104 396.06 388.88 396.108C388.656 396.156 388.44 396.18 388.232 396.18ZM397.14 396.24C395.956 396.24 394.924 395.988 394.044 395.484C393.164 394.972 392.48 394.24 391.992 393.288C391.512 392.336 391.272 391.192 391.272 389.856C391.272 388.56 391.504 387.424 391.968 386.448C392.44 385.472 393.116 384.712 393.996 384.168C394.876 383.624 395.928 383.352 397.152 383.352C398.336 383.352 399.364 383.612 400.236 384.132C401.108 384.652 401.78 385.396 402.252 386.364C402.732 387.332 402.972 388.496 402.972 389.856C402.972 391.112 402.744 392.22 402.288 393.18C401.84 394.132 401.18 394.88 400.308 395.424C399.444 395.968 398.388 396.24 397.14 396.24ZM397.152 394.02C397.824 394.02 398.376 393.836 398.808 393.468C399.248 393.1 399.572 392.596 399.78 391.956C399.996 391.316 400.104 390.588 400.104 389.772C400.104 389.012 400.008 388.312 399.816 387.672C399.632 387.032 399.32 386.52 398.88 386.136C398.448 385.744 397.872 385.548 397.152 385.548C396.472 385.548 395.908 385.728 395.46 386.088C395.02 386.44 394.688 386.936 394.464 387.576C394.248 388.208 394.14 388.94 394.14 389.772C394.14 390.524 394.236 391.224 394.428 391.872C394.628 392.512 394.948 393.032 395.388 393.432C395.828 393.824 396.416 394.02 397.152 394.02ZM405.562 396V383.592H408.418V385.368C408.61 385.048 408.87 384.74 409.198 384.444C409.534 384.148 409.946 383.908 410.434 383.724C410.922 383.54 411.494 383.448 412.15 383.448C412.918 383.448 413.63 383.6 414.286 383.904C414.95 384.208 415.482 384.684 415.882 385.332C416.29 385.98 416.494 386.816 416.494 387.84V396H413.566V388.188C413.566 387.372 413.342 386.768 412.894 386.376C412.446 385.976 411.882 385.776 411.202 385.776C410.738 385.776 410.298 385.856 409.882 386.016C409.466 386.168 409.126 386.404 408.862 386.724C408.606 387.036 408.478 387.428 408.478 387.9V396H405.562ZM425.133 400.104C423.045 400.104 421.441 399.824 420.321 399.264C419.201 398.704 418.641 397.936 418.641 396.96C418.641 396.52 418.749 396.152 418.965 395.856C419.181 395.56 419.437 395.316 419.733 395.124C420.029 394.932 420.301 394.784 420.549 394.68C420.797 394.576 420.957 394.5 421.029 394.452C420.893 394.372 420.713 394.268 420.489 394.14C420.265 394.012 420.061 393.836 419.877 393.612C419.701 393.388 419.613 393.096 419.613 392.736C419.613 392.32 419.809 391.936 420.201 391.584C420.601 391.232 421.197 390.98 421.989 390.828C421.213 390.452 420.617 389.944 420.201 389.304C419.785 388.664 419.577 388 419.577 387.312C419.577 386.496 419.813 385.796 420.285 385.212C420.765 384.628 421.429 384.18 422.277 383.868C423.133 383.556 424.121 383.4 425.241 383.4C426.073 383.4 426.761 383.492 427.305 383.676C427.849 383.86 428.357 384.108 428.829 384.42C428.989 384.356 429.213 384.268 429.501 384.156C429.797 384.036 430.117 383.908 430.461 383.772C430.805 383.628 431.133 383.492 431.445 383.364C431.765 383.228 432.037 383.116 432.261 383.028L432.237 385.44L430.089 385.824C430.193 386.056 430.273 386.308 430.329 386.58C430.393 386.852 430.425 387.092 430.425 387.3C430.425 388.02 430.221 388.688 429.813 389.304C429.413 389.912 428.809 390.4 428.001 390.768C427.201 391.136 426.201 391.32 425.001 391.32C424.881 391.32 424.717 391.316 424.509 391.308C424.301 391.3 424.133 391.292 424.005 391.284C423.357 391.308 422.913 391.384 422.673 391.512C422.433 391.64 422.313 391.78 422.313 391.932C422.313 392.148 422.493 392.292 422.853 392.364C423.213 392.436 423.789 392.5 424.581 392.556C424.861 392.572 425.229 392.592 425.685 392.616C426.141 392.64 426.649 392.672 427.209 392.712C428.625 392.8 429.697 393.156 430.425 393.78C431.153 394.396 431.517 395.196 431.517 396.18C431.517 397.324 430.989 398.264 429.933 399C428.877 399.736 427.277 400.104 425.133 400.104ZM425.625 398.388C426.673 398.388 427.449 398.244 427.953 397.956C428.457 397.668 428.709 397.244 428.709 396.684C428.709 396.252 428.537 395.9 428.193 395.628C427.849 395.356 427.337 395.196 426.657 395.148L423.525 394.956C423.181 394.932 422.853 394.996 422.541 395.148C422.237 395.292 421.989 395.496 421.797 395.76C421.605 396.016 421.509 396.3 421.509 396.612C421.509 397.196 421.845 397.636 422.517 397.932C423.189 398.236 424.225 398.388 425.625 398.388ZM425.097 389.604C425.857 389.604 426.473 389.412 426.945 389.028C427.417 388.636 427.653 388.084 427.653 387.372C427.653 386.636 427.417 386.064 426.945 385.656C426.473 385.24 425.857 385.032 425.097 385.032C424.321 385.032 423.693 385.24 423.213 385.656C422.741 386.072 422.505 386.644 422.505 387.372C422.505 388.06 422.733 388.604 423.189 389.004C423.645 389.404 424.281 389.604 425.097 389.604ZM439.855 388.716V390.9L433.519 390.912V388.728L439.855 388.716ZM449.673 385.656H446.901L446.913 392.772C446.913 393.14 446.953 393.412 447.033 393.588C447.121 393.756 447.257 393.868 447.441 393.924C447.633 393.972 447.889 393.996 448.209 393.996H449.733V395.844C449.573 395.908 449.329 395.964 449.001 396.012C448.681 396.068 448.249 396.096 447.705 396.096C446.721 396.096 445.957 395.968 445.413 395.712C444.877 395.448 444.505 395.076 444.297 394.596C444.089 394.116 443.985 393.544 443.985 392.88V385.656H441.969V383.592H444.069L444.801 379.908H446.901V383.58H449.673V385.656ZM454.471 390.468C454.463 391.172 454.575 391.796 454.807 392.34C455.039 392.884 455.383 393.312 455.839 393.624C456.295 393.928 456.859 394.08 457.531 394.08C458.219 394.08 458.815 393.928 459.319 393.624C459.831 393.312 460.171 392.84 460.339 392.208H463.015C462.871 393.072 462.527 393.804 461.983 394.404C461.439 395.004 460.779 395.46 460.003 395.772C459.235 396.084 458.435 396.24 457.603 396.24C456.403 396.24 455.347 395.988 454.435 395.484C453.531 394.972 452.823 394.244 452.311 393.3C451.807 392.356 451.555 391.232 451.555 389.928C451.555 388.656 451.787 387.528 452.251 386.544C452.715 385.552 453.383 384.772 454.255 384.204C455.135 383.636 456.191 383.352 457.423 383.352C458.647 383.352 459.675 383.612 460.507 384.132C461.347 384.652 461.979 385.38 462.403 386.316C462.835 387.244 463.051 388.332 463.051 389.58V390.468H454.471ZM454.471 388.656H460.291C460.291 388.056 460.187 387.516 459.979 387.036C459.771 386.548 459.451 386.164 459.019 385.884C458.595 385.596 458.059 385.452 457.411 385.452C456.771 385.452 456.231 385.608 455.791 385.92C455.351 386.232 455.019 386.636 454.795 387.132C454.571 387.62 454.463 388.128 454.471 388.656ZM465.773 396V383.592H468.569V386.28C468.769 385.664 469.053 385.14 469.421 384.708C469.797 384.268 470.237 383.932 470.741 383.7C471.245 383.468 471.793 383.352 472.385 383.352C472.529 383.352 472.669 383.36 472.805 383.376C472.941 383.392 473.041 383.42 473.105 383.46V386.256C473.017 386.216 472.901 386.188 472.757 386.172C472.621 386.156 472.501 386.148 472.397 386.148C471.797 386.1 471.265 386.124 470.801 386.22C470.345 386.316 469.957 386.48 469.637 386.712C469.325 386.936 469.089 387.224 468.929 387.576C468.769 387.92 468.689 388.324 468.689 388.788V396H465.773ZM475.336 396V383.592H478.18V385.368C478.54 384.824 479.028 384.352 479.644 383.952C480.268 383.552 481.06 383.352 482.02 383.352C482.46 383.352 482.904 383.428 483.352 383.58C483.808 383.732 484.228 383.956 484.612 384.252C485.004 384.548 485.316 384.916 485.548 385.356C485.94 384.772 486.46 384.292 487.108 383.916C487.764 383.54 488.5 383.352 489.316 383.352C489.764 383.352 490.224 383.424 490.696 383.568C491.176 383.712 491.616 383.952 492.016 384.288C492.416 384.624 492.74 385.084 492.988 385.668C493.236 386.244 493.36 386.968 493.36 387.84V396H490.444V388.188C490.444 387.572 490.336 387.088 490.12 386.736C489.904 386.384 489.624 386.136 489.28 385.992C488.944 385.84 488.584 385.764 488.2 385.764C487.856 385.764 487.496 385.832 487.12 385.968C486.752 386.104 486.436 386.328 486.172 386.64C485.916 386.952 485.788 387.372 485.788 387.9V396H482.872V387.72C482.872 387.288 482.76 386.928 482.536 386.64C482.312 386.352 482.028 386.136 481.684 385.992C481.348 385.84 481.004 385.764 480.652 385.764C480.292 385.764 479.924 385.84 479.548 385.992C479.18 386.144 478.872 386.376 478.624 386.688C478.376 387 478.252 387.404 478.252 387.9V396H475.336ZM501.797 396V383.592H504.593V386.28C504.793 385.664 505.077 385.14 505.445 384.708C505.821 384.268 506.261 383.932 506.765 383.7C507.269 383.468 507.817 383.352 508.409 383.352C508.553 383.352 508.693 383.36 508.829 383.376C508.965 383.392 509.065 383.42 509.129 383.46V386.256C509.041 386.216 508.925 386.188 508.781 386.172C508.645 386.156 508.525 386.148 508.421 386.148C507.821 386.1 507.289 386.124 506.825 386.22C506.369 386.316 505.981 386.48 505.661 386.712C505.349 386.936 505.113 387.224 504.953 387.576C504.793 387.92 504.713 388.324 504.713 388.788V396H501.797ZM513.511 390.468C513.503 391.172 513.615 391.796 513.847 392.34C514.079 392.884 514.423 393.312 514.879 393.624C515.335 393.928 515.899 394.08 516.571 394.08C517.259 394.08 517.855 393.928 518.359 393.624C518.871 393.312 519.211 392.84 519.379 392.208H522.055C521.911 393.072 521.567 393.804 521.023 394.404C520.479 395.004 519.819 395.46 519.043 395.772C518.275 396.084 517.475 396.24 516.643 396.24C515.443 396.24 514.387 395.988 513.475 395.484C512.571 394.972 511.863 394.244 511.351 393.3C510.847 392.356 510.595 391.232 510.595 389.928C510.595 388.656 510.827 387.528 511.291 386.544C511.755 385.552 512.423 384.772 513.295 384.204C514.175 383.636 515.231 383.352 516.463 383.352C517.687 383.352 518.715 383.612 519.547 384.132C520.387 384.652 521.019 385.38 521.443 386.316C521.875 387.244 522.091 388.332 522.091 389.58V390.468H513.511ZM513.511 388.656H519.331C519.331 388.056 519.227 387.516 519.019 387.036C518.811 386.548 518.491 386.164 518.059 385.884C517.635 385.596 517.099 385.452 516.451 385.452C515.811 385.452 515.271 385.608 514.831 385.92C514.391 386.232 514.059 386.636 513.835 387.132C513.611 387.62 513.503 388.128 513.511 388.656ZM529.433 396.24C528.569 396.24 527.749 396.104 526.973 395.832C526.205 395.552 525.557 395.116 525.029 394.524C524.509 393.932 524.181 393.168 524.045 392.232H526.613C526.725 392.688 526.921 393.06 527.201 393.348C527.489 393.636 527.829 393.848 528.221 393.984C528.613 394.112 529.013 394.176 529.421 394.176C530.165 394.176 530.765 394.048 531.221 393.792C531.685 393.536 531.917 393.14 531.917 392.604C531.917 392.212 531.789 391.9 531.533 391.668C531.277 391.436 530.869 391.26 530.309 391.14L527.945 390.6C526.897 390.368 526.053 389.984 525.413 389.448C524.781 388.912 524.461 388.156 524.453 387.18C524.445 386.444 524.629 385.788 525.005 385.212C525.381 384.636 525.941 384.184 526.685 383.856C527.429 383.52 528.349 383.352 529.445 383.352C530.893 383.352 532.053 383.676 532.925 384.324C533.797 384.964 534.245 385.88 534.269 387.072H531.785C531.697 386.536 531.445 386.12 531.029 385.824C530.613 385.52 530.073 385.368 529.409 385.368C528.721 385.368 528.157 385.5 527.717 385.764C527.277 386.028 527.057 386.432 527.057 386.976C527.057 387.352 527.225 387.648 527.561 387.864C527.897 388.08 528.401 388.264 529.073 388.416L531.305 388.956C531.945 389.116 532.469 389.332 532.877 389.604C533.285 389.876 533.605 390.176 533.837 390.504C534.069 390.824 534.229 391.156 534.317 391.5C534.413 391.836 534.461 392.148 534.461 392.436C534.461 393.236 534.253 393.92 533.837 394.488C533.429 395.048 532.849 395.48 532.097 395.784C531.345 396.088 530.457 396.24 529.433 396.24ZM541.771 396.24C541.163 396.24 540.575 396.152 540.007 395.976C539.447 395.792 538.943 395.528 538.495 395.184C538.047 394.832 537.691 394.4 537.427 393.888C537.163 393.376 537.031 392.78 537.031 392.1V383.592H539.959V391.764C539.959 392.436 540.171 392.988 540.595 393.42C541.027 393.852 541.675 394.068 542.539 394.068C543.323 394.068 543.951 393.864 544.423 393.456C544.895 393.04 545.131 392.444 545.131 391.668V383.592H548.035V396H545.791L545.467 393.576C545.315 394.256 545.047 394.792 544.663 395.184C544.287 395.568 543.843 395.84 543.331 396C542.827 396.16 542.307 396.24 541.771 396.24ZM554.849 396.18C554.049 396.18 553.409 396.08 552.929 395.88C552.449 395.68 552.089 395.412 551.849 395.076C551.609 394.74 551.453 394.364 551.381 393.948C551.309 393.524 551.273 393.092 551.273 392.652V378.168H554.129V392.316C554.129 392.852 554.237 393.268 554.453 393.564C554.677 393.86 555.037 394.032 555.533 394.08L556.157 394.104V395.94C555.941 396.004 555.721 396.06 555.497 396.108C555.273 396.156 555.057 396.18 554.849 396.18ZM565.056 385.656H562.284L562.296 392.772C562.296 393.14 562.336 393.412 562.416 393.588C562.504 393.756 562.64 393.868 562.824 393.924C563.016 393.972 563.272 393.996 563.592 393.996H565.116V395.844C564.956 395.908 564.712 395.964 564.384 396.012C564.064 396.068 563.632 396.096 563.088 396.096C562.104 396.096 561.34 395.968 560.796 395.712C560.26 395.448 559.888 395.076 559.68 394.596C559.472 394.116 559.368 393.544 559.368 392.88V385.656H557.352V383.592H559.452L560.184 379.908H562.284V383.58H565.056V385.656ZM572.512 396.24C571.648 396.24 570.828 396.104 570.052 395.832C569.284 395.552 568.636 395.116 568.108 394.524C567.588 393.932 567.26 393.168 567.124 392.232H569.692C569.804 392.688 570 393.06 570.28 393.348C570.568 393.636 570.908 393.848 571.3 393.984C571.692 394.112 572.092 394.176 572.5 394.176C573.244 394.176 573.844 394.048 574.3 393.792C574.764 393.536 574.996 393.14 574.996 392.604C574.996 392.212 574.868 391.9 574.612 391.668C574.356 391.436 573.948 391.26 573.388 391.14L571.024 390.6C569.976 390.368 569.132 389.984 568.492 389.448C567.86 388.912 567.54 388.156 567.532 387.18C567.524 386.444 567.708 385.788 568.084 385.212C568.46 384.636 569.02 384.184 569.764 383.856C570.508 383.52 571.428 383.352 572.523 383.352C573.972 383.352 575.132 383.676 576.004 384.324C576.876 384.964 577.324 385.88 577.348 387.072H574.864C574.776 386.536 574.524 386.12 574.108 385.824C573.692 385.52 573.152 385.368 572.488 385.368C571.8 385.368 571.236 385.5 570.796 385.764C570.356 386.028 570.136 386.432 570.136 386.976C570.136 387.352 570.304 387.648 570.64 387.864C570.976 388.08 571.48 388.264 572.152 388.416L574.384 388.956C575.024 389.116 575.548 389.332 575.956 389.604C576.364 389.876 576.684 390.176 576.916 390.504C577.148 390.824 577.308 391.156 577.396 391.5C577.492 391.836 577.54 392.148 577.54 392.436C577.54 393.236 577.332 393.92 576.916 394.488C576.508 395.048 575.928 395.48 575.176 395.784C574.424 396.088 573.536 396.24 572.512 396.24Z" fill="#363940"/>
</g>
<g filter="url(#filter1_d_27_769)">
<rect x="75" y="268" width="256" height="185" rx="8" fill="#FCFCFC"/>
<path d="M126.344 314.542L122.604 317.981C120.681 319.657 118.421 320.903 115.977 321.635L116.969 326.264C117.02 326.501 117.126 326.722 117.277 326.91C117.429 327.098 117.623 327.248 117.844 327.347C118.064 327.446 118.305 327.492 118.547 327.482C118.788 327.471 119.024 327.403 119.234 327.284L125.255 323.889C126.102 323.374 126.764 322.603 127.145 321.688C127.526 320.772 127.607 319.759 127.375 318.795L126.344 314.542ZM110.201 305.529L113.421 301.706L109.405 300.737C108.429 300.397 107.363 300.421 106.403 300.806C105.443 301.191 104.655 301.91 104.184 302.83L100.792 308.842C100.673 309.053 100.606 309.289 100.595 309.53C100.584 309.772 100.63 310.012 100.729 310.233C100.828 310.453 100.978 310.647 101.166 310.799C101.355 310.951 101.576 311.057 101.812 311.107L106.549 312.123C107.335 309.712 108.574 307.474 110.201 305.529V305.529ZM124.798 305.592C125.255 305.592 125.702 305.456 126.083 305.202C126.463 304.948 126.759 304.587 126.934 304.164C127.109 303.742 127.155 303.277 127.066 302.828C126.977 302.379 126.756 301.967 126.433 301.644C126.11 301.321 125.698 301.1 125.249 301.011C124.8 300.922 124.335 300.968 123.913 301.143C123.49 301.318 123.129 301.614 122.875 301.994C122.621 302.375 122.485 302.822 122.485 303.279C122.486 303.892 122.729 304.481 123.163 304.914C123.596 305.348 124.185 305.591 124.798 305.592V305.592Z" fill="#027794"/>
<path d="M133.843 295.179C133.774 294.915 133.635 294.674 133.442 294.481C133.249 294.288 133.008 294.149 132.744 294.08C129.582 293.258 126.251 293.346 123.137 294.334C120.022 295.322 117.25 297.17 115.14 299.665L110.201 305.529C107.734 308.472 106.169 312.065 105.694 315.876C105.663 316.11 105.687 316.348 105.763 316.571C105.839 316.795 105.965 316.998 106.132 317.165L110.912 321.944C111.055 322.088 111.225 322.201 111.412 322.279C111.599 322.356 111.799 322.396 112.002 322.396C112.046 322.396 112.091 322.394 112.136 322.39C116.005 322.07 119.672 320.526 122.604 317.981L128.251 312.788C130.755 310.684 132.609 307.912 133.6 304.794C134.59 301.677 134.674 298.342 133.843 295.179V295.179ZM124.798 305.592C124.34 305.592 123.893 305.456 123.513 305.202C123.133 304.948 122.836 304.587 122.661 304.164C122.486 303.742 122.44 303.277 122.53 302.828C122.619 302.379 122.839 301.967 123.163 301.644C123.486 301.321 123.898 301.1 124.347 301.011C124.795 300.922 125.26 300.968 125.683 301.143C126.105 301.318 126.466 301.614 126.721 301.994C126.975 302.375 127.11 302.822 127.11 303.279C127.11 303.892 126.866 304.48 126.433 304.914C125.999 305.348 125.411 305.591 124.798 305.592V305.592Z" fill="#C3E8F1"/>
<path d="M101.1 352.648H112.452L112.44 355.12H104.064V360.112H111.456V362.548H104.064V370H101.1V352.648ZM118.445 370.24C117.653 370.24 116.941 370.096 116.309 369.808C115.685 369.512 115.193 369.092 114.833 368.548C114.481 367.996 114.305 367.328 114.305 366.544C114.305 365.176 114.797 364.144 115.781 363.448C116.773 362.752 118.353 362.388 120.521 362.356L122.369 362.308V361.468C122.369 360.812 122.173 360.3 121.781 359.932C121.397 359.556 120.797 359.372 119.981 359.38C119.381 359.388 118.829 359.532 118.325 359.812C117.829 360.084 117.501 360.544 117.341 361.192H114.857C114.905 360.344 115.149 359.636 115.589 359.068C116.037 358.492 116.649 358.064 117.425 357.784C118.201 357.496 119.097 357.352 120.113 357.352C121.297 357.352 122.261 357.508 123.005 357.82C123.749 358.132 124.297 358.584 124.649 359.176C125.001 359.76 125.177 360.468 125.177 361.3V370H122.717L122.489 367.768C122.041 368.704 121.473 369.352 120.785 369.712C120.105 370.064 119.325 370.24 118.445 370.24ZM119.393 368.26C119.753 368.26 120.109 368.196 120.461 368.068C120.813 367.932 121.133 367.752 121.421 367.528C121.709 367.296 121.937 367.04 122.105 366.76C122.281 366.48 122.369 366.188 122.369 365.884V363.928L120.845 363.952C120.093 363.96 119.437 364.04 118.877 364.192C118.317 364.344 117.877 364.588 117.557 364.924C117.245 365.252 117.089 365.692 117.089 366.244C117.089 366.876 117.309 367.372 117.749 367.732C118.189 368.084 118.737 368.26 119.393 368.26ZM133.097 370.24C132.233 370.24 131.413 370.104 130.637 369.832C129.869 369.552 129.221 369.116 128.693 368.524C128.173 367.932 127.845 367.168 127.709 366.232H130.277C130.389 366.688 130.585 367.06 130.865 367.348C131.153 367.636 131.493 367.848 131.885 367.984C132.277 368.112 132.677 368.176 133.085 368.176C133.829 368.176 134.429 368.048 134.885 367.792C135.349 367.536 135.581 367.14 135.581 366.604C135.581 366.212 135.453 365.9 135.197 365.668C134.941 365.436 134.533 365.26 133.973 365.14L131.609 364.6C130.561 364.368 129.717 363.984 129.077 363.448C128.445 362.912 128.125 362.156 128.117 361.18C128.109 360.444 128.293 359.788 128.669 359.212C129.045 358.636 129.605 358.184 130.349 357.856C131.093 357.52 132.013 357.352 133.109 357.352C134.557 357.352 135.717 357.676 136.589 358.324C137.461 358.964 137.909 359.88 137.933 361.072H135.449C135.361 360.536 135.109 360.12 134.693 359.824C134.277 359.52 133.737 359.368 133.073 359.368C132.385 359.368 131.821 359.5 131.381 359.764C130.941 360.028 130.721 360.432 130.721 360.976C130.721 361.352 130.889 361.648 131.225 361.864C131.561 362.08 132.065 362.264 132.737 362.416L134.969 362.956C135.609 363.116 136.133 363.332 136.541 363.604C136.949 363.876 137.269 364.176 137.501 364.504C137.733 364.824 137.893 365.156 137.981 365.5C138.077 365.836 138.125 366.148 138.125 366.436C138.125 367.236 137.917 367.92 137.501 368.488C137.093 369.048 136.513 369.48 135.761 369.784C135.009 370.088 134.121 370.24 133.097 370.24ZM147.65 359.656H144.878L144.89 366.772C144.89 367.14 144.93 367.412 145.01 367.588C145.098 367.756 145.234 367.868 145.418 367.924C145.61 367.972 145.866 367.996 146.186 367.996H147.71V369.844C147.55 369.908 147.306 369.964 146.978 370.012C146.658 370.068 146.226 370.096 145.682 370.096C144.698 370.096 143.934 369.968 143.39 369.712C142.854 369.448 142.482 369.076 142.274 368.596C142.066 368.116 141.962 367.544 141.962 366.88V359.656H139.946V357.592H142.046L142.778 353.908H144.878V357.58H147.65V359.656ZM162.743 359.656H159.971L159.983 366.772C159.983 367.14 160.023 367.412 160.103 367.588C160.191 367.756 160.327 367.868 160.511 367.924C160.703 367.972 160.959 367.996 161.279 367.996H162.803V369.844C162.643 369.908 162.399 369.964 162.071 370.012C161.751 370.068 161.319 370.096 160.775 370.096C159.791 370.096 159.027 369.968 158.483 369.712C157.947 369.448 157.575 369.076 157.367 368.596C157.159 368.116 157.055 367.544 157.055 366.88V359.656H155.039V357.592H157.139L157.871 353.908H159.971V357.58H162.743V359.656ZM170.044 370.24C169.436 370.24 168.848 370.152 168.28 369.976C167.72 369.792 167.216 369.528 166.768 369.184C166.32 368.832 165.964 368.4 165.7 367.888C165.436 367.376 165.304 366.78 165.304 366.1V357.592H168.232V365.764C168.232 366.436 168.444 366.988 168.868 367.42C169.3 367.852 169.948 368.068 170.812 368.068C171.596 368.068 172.224 367.864 172.696 367.456C173.168 367.04 173.404 366.444 173.404 365.668V357.592H176.308V370H174.064L173.74 367.576C173.588 368.256 173.32 368.792 172.936 369.184C172.56 369.568 172.116 369.84 171.604 370C171.1 370.16 170.58 370.24 170.044 370.24ZM179.547 370V357.592H182.343V360.28C182.543 359.664 182.827 359.14 183.195 358.708C183.571 358.268 184.011 357.932 184.515 357.7C185.019 357.468 185.567 357.352 186.159 357.352C186.303 357.352 186.443 357.36 186.579 357.376C186.715 357.392 186.815 357.42 186.879 357.46V360.256C186.791 360.216 186.675 360.188 186.531 360.172C186.395 360.156 186.275 360.148 186.171 360.148C185.571 360.1 185.039 360.124 184.575 360.22C184.119 360.316 183.731 360.48 183.411 360.712C183.099 360.936 182.863 361.224 182.703 361.576C182.543 361.92 182.463 362.324 182.463 362.788V370H179.547ZM189.109 370V357.592H191.965V359.368C192.157 359.048 192.417 358.74 192.745 358.444C193.081 358.148 193.493 357.908 193.981 357.724C194.469 357.54 195.041 357.448 195.697 357.448C196.465 357.448 197.177 357.6 197.833 357.904C198.497 358.208 199.029 358.684 199.429 359.332C199.837 359.98 200.041 360.816 200.041 361.84V370H197.113V362.188C197.113 361.372 196.889 360.768 196.441 360.376C195.993 359.976 195.429 359.776 194.749 359.776C194.285 359.776 193.845 359.856 193.429 360.016C193.013 360.168 192.673 360.404 192.409 360.724C192.153 361.036 192.025 361.428 192.025 361.9V370H189.109ZM206.617 370.24C205.825 370.24 205.113 370.096 204.481 369.808C203.857 369.512 203.365 369.092 203.005 368.548C202.653 367.996 202.477 367.328 202.477 366.544C202.477 365.176 202.969 364.144 203.953 363.448C204.945 362.752 206.525 362.388 208.693 362.356L210.541 362.308V361.468C210.541 360.812 210.345 360.3 209.953 359.932C209.569 359.556 208.969 359.372 208.153 359.38C207.553 359.388 207.001 359.532 206.497 359.812C206.001 360.084 205.673 360.544 205.513 361.192H203.029C203.077 360.344 203.321 359.636 203.761 359.068C204.209 358.492 204.821 358.064 205.597 357.784C206.373 357.496 207.269 357.352 208.285 357.352C209.469 357.352 210.433 357.508 211.177 357.82C211.921 358.132 212.469 358.584 212.821 359.176C213.173 359.76 213.349 360.468 213.349 361.3V370H210.889L210.661 367.768C210.213 368.704 209.645 369.352 208.957 369.712C208.277 370.064 207.497 370.24 206.617 370.24ZM207.565 368.26C207.925 368.26 208.281 368.196 208.633 368.068C208.985 367.932 209.305 367.752 209.593 367.528C209.881 367.296 210.109 367.04 210.277 366.76C210.453 366.48 210.541 366.188 210.541 365.884V363.928L209.017 363.952C208.265 363.96 207.609 364.04 207.049 364.192C206.489 364.344 206.049 364.588 205.729 364.924C205.417 365.252 205.261 365.692 205.261 366.244C205.261 366.876 205.481 367.372 205.921 367.732C206.361 368.084 206.909 368.26 207.565 368.26ZM216.765 370V357.592H219.561V360.28C219.761 359.664 220.045 359.14 220.413 358.708C220.789 358.268 221.229 357.932 221.733 357.7C222.237 357.468 222.785 357.352 223.377 357.352C223.521 357.352 223.661 357.36 223.797 357.376C223.933 357.392 224.033 357.42 224.097 357.46V360.256C224.009 360.216 223.893 360.188 223.749 360.172C223.613 360.156 223.493 360.148 223.389 360.148C222.789 360.1 222.257 360.124 221.793 360.22C221.337 360.316 220.949 360.48 220.629 360.712C220.317 360.936 220.081 361.224 219.921 361.576C219.761 361.92 219.681 362.324 219.681 362.788V370H216.765ZM231.335 370.24C230.151 370.24 229.119 369.988 228.239 369.484C227.359 368.972 226.675 368.24 226.187 367.288C225.707 366.336 225.467 365.192 225.467 363.856C225.467 362.56 225.699 361.424 226.163 360.448C226.635 359.472 227.311 358.712 228.191 358.168C229.071 357.624 230.123 357.352 231.347 357.352C232.531 357.352 233.559 357.612 234.431 358.132C235.303 358.652 235.975 359.396 236.447 360.364C236.927 361.332 237.167 362.496 237.167 363.856C237.167 365.112 236.939 366.22 236.483 367.18C236.035 368.132 235.375 368.88 234.503 369.424C233.639 369.968 232.583 370.24 231.335 370.24ZM231.347 368.02C232.019 368.02 232.571 367.836 233.003 367.468C233.443 367.1 233.767 366.596 233.975 365.956C234.191 365.316 234.299 364.588 234.299 363.772C234.299 363.012 234.203 362.312 234.011 361.672C233.827 361.032 233.515 360.52 233.075 360.136C232.643 359.744 232.067 359.548 231.347 359.548C230.667 359.548 230.103 359.728 229.655 360.088C229.215 360.44 228.883 360.936 228.659 361.576C228.443 362.208 228.335 362.94 228.335 363.772C228.335 364.524 228.431 365.224 228.623 365.872C228.823 366.512 229.143 367.032 229.583 367.432C230.023 367.824 230.611 368.02 231.347 368.02ZM244.154 370.24C243.546 370.24 242.958 370.152 242.39 369.976C241.83 369.792 241.326 369.528 240.878 369.184C240.43 368.832 240.074 368.4 239.81 367.888C239.546 367.376 239.414 366.78 239.414 366.1V357.592H242.342V365.764C242.342 366.436 242.554 366.988 242.978 367.42C243.41 367.852 244.058 368.068 244.922 368.068C245.706 368.068 246.334 367.864 246.806 367.456C247.278 367.04 247.514 366.444 247.514 365.668V357.592H250.418V370H248.174L247.85 367.576C247.698 368.256 247.43 368.792 247.046 369.184C246.67 369.568 246.226 369.84 245.714 370C245.21 370.16 244.69 370.24 244.154 370.24ZM253.656 370V357.592H256.512V359.368C256.704 359.048 256.964 358.74 257.292 358.444C257.628 358.148 258.04 357.908 258.528 357.724C259.016 357.54 259.588 357.448 260.244 357.448C261.012 357.448 261.724 357.6 262.38 357.904C263.044 358.208 263.576 358.684 263.976 359.332C264.384 359.98 264.588 360.816 264.588 361.84V370H261.66V362.188C261.66 361.372 261.436 360.768 260.988 360.376C260.54 359.976 259.976 359.776 259.296 359.776C258.832 359.776 258.392 359.856 257.976 360.016C257.56 360.168 257.22 360.404 256.956 360.724C256.7 361.036 256.572 361.428 256.572 361.9V370H253.656ZM272.267 370.24C270.627 370.24 269.339 369.676 268.403 368.548C267.467 367.42 266.999 365.816 266.999 363.736C266.999 362.44 267.187 361.316 267.562 360.364C267.947 359.404 268.507 358.664 269.243 358.144C269.987 357.616 270.907 357.352 272.003 357.352C272.515 357.352 272.979 357.416 273.395 357.544C273.819 357.664 274.195 357.824 274.523 358.024C274.851 358.224 275.127 358.444 275.351 358.684C275.583 358.924 275.763 359.164 275.891 359.404V352.168H278.819V370H276.659L276.335 367.456C276.239 367.752 276.095 368.064 275.903 368.392C275.719 368.712 275.467 369.012 275.147 369.292C274.835 369.572 274.443 369.8 273.971 369.976C273.499 370.152 272.931 370.24 272.267 370.24ZM272.867 368.092C273.915 368.092 274.679 367.752 275.159 367.072C275.647 366.384 275.891 365.248 275.891 363.664C275.883 362.76 275.771 362 275.555 361.384C275.347 360.768 275.023 360.304 274.583 359.992C274.151 359.68 273.591 359.524 272.903 359.524C272.023 359.524 271.299 359.848 270.731 360.496C270.163 361.144 269.879 362.2 269.879 363.664C269.879 365.12 270.139 366.224 270.659 366.976C271.179 367.72 271.915 368.092 272.867 368.092ZM107.712 387.656H104.94L104.952 394.772C104.952 395.14 104.992 395.412 105.072 395.588C105.16 395.756 105.296 395.868 105.48 395.924C105.672 395.972 105.928 395.996 106.248 395.996H107.772V397.844C107.612 397.908 107.368 397.964 107.04 398.012C106.72 398.068 106.288 398.096 105.744 398.096C104.76 398.096 103.996 397.968 103.452 397.712C102.916 397.448 102.544 397.076 102.336 396.596C102.128 396.116 102.024 395.544 102.024 394.88V387.656H100.008V385.592H102.108L102.84 381.908H104.94V385.58H107.712V387.656ZM113.582 385.592V398H110.774V385.592H113.582ZM113.618 380.66V383.42H110.726V380.66H113.618ZM117.226 398V385.592H120.07V387.368C120.43 386.824 120.918 386.352 121.534 385.952C122.158 385.552 122.95 385.352 123.91 385.352C124.35 385.352 124.794 385.428 125.242 385.58C125.698 385.732 126.118 385.956 126.502 386.252C126.894 386.548 127.206 386.916 127.438 387.356C127.83 386.772 128.35 386.292 128.998 385.916C129.654 385.54 130.39 385.352 131.206 385.352C131.654 385.352 132.114 385.424 132.586 385.568C133.066 385.712 133.506 385.952 133.906 386.288C134.306 386.624 134.63 387.084 134.878 387.668C135.126 388.244 135.25 388.968 135.25 389.84V398H132.334V390.188C132.334 389.572 132.226 389.088 132.01 388.736C131.794 388.384 131.514 388.136 131.17 387.992C130.834 387.84 130.474 387.764 130.09 387.764C129.746 387.764 129.386 387.832 129.01 387.968C128.642 388.104 128.326 388.328 128.062 388.64C127.806 388.952 127.678 389.372 127.678 389.9V398H124.762V389.72C124.762 389.288 124.65 388.928 124.426 388.64C124.202 388.352 123.918 388.136 123.574 387.992C123.238 387.84 122.894 387.764 122.542 387.764C122.182 387.764 121.814 387.84 121.438 387.992C121.07 388.144 120.762 388.376 120.514 388.688C120.266 389 120.142 389.404 120.142 389.9V398H117.226ZM140.682 392.468C140.674 393.172 140.786 393.796 141.018 394.34C141.25 394.884 141.594 395.312 142.05 395.624C142.506 395.928 143.07 396.08 143.742 396.08C144.43 396.08 145.026 395.928 145.53 395.624C146.042 395.312 146.382 394.84 146.55 394.208H149.226C149.082 395.072 148.738 395.804 148.194 396.404C147.65 397.004 146.99 397.46 146.214 397.772C145.446 398.084 144.646 398.24 143.814 398.24C142.614 398.24 141.558 397.988 140.646 397.484C139.742 396.972 139.034 396.244 138.522 395.3C138.018 394.356 137.766 393.232 137.766 391.928C137.766 390.656 137.998 389.528 138.462 388.544C138.926 387.552 139.594 386.772 140.466 386.204C141.346 385.636 142.402 385.352 143.634 385.352C144.858 385.352 145.886 385.612 146.718 386.132C147.558 386.652 148.19 387.38 148.614 388.316C149.046 389.244 149.262 390.332 149.262 391.58V392.468H140.682ZM140.682 390.656H146.502C146.502 390.056 146.398 389.516 146.19 389.036C145.982 388.548 145.662 388.164 145.23 387.884C144.806 387.596 144.27 387.452 143.622 387.452C142.982 387.452 142.442 387.608 142.002 387.92C141.562 388.232 141.23 388.636 141.006 389.132C140.782 389.62 140.674 390.128 140.682 390.656Z" fill="#363940"/>
</g>
<g filter="url(#filter2_d_27_769)">
<rect x="360" y="56" width="255" height="187" rx="8" fill="#FCFCFC"/>
<path d="M407.125 83.0834C401.919 83.0856 397.456 86.8059 396.518 91.9272C401 89.4748 406.621 91.1197 409.073 95.6012C410.587 98.3679 410.587 101.715 409.073 104.482C414.933 103.409 418.814 97.7876 417.74 91.9272C416.802 86.8028 412.335 83.0814 407.125 83.0834Z" fill="#C3E8F1"/>
<path d="M394.792 113.917C399.049 113.917 402.5 110.466 402.5 106.208C402.5 101.951 399.049 98.5 394.792 98.5C390.535 98.5 387.083 101.951 387.083 106.208C387.083 110.466 390.535 113.917 394.792 113.917Z" fill="#027794"/>
<path d="M400.958 90.7916C396.205 90.7921 392.225 94.3954 391.754 99.1256C395.664 97.446 400.195 99.2535 401.874 103.163C402.708 105.105 402.708 107.304 401.874 109.245C406.957 108.74 410.669 104.209 410.163 99.126C409.693 94.395 405.712 90.7912 400.958 90.7916Z" fill="#52A0B4"/>
<path d="M386.1 140.648H397.452L397.44 143.12H389.064V148.112H396.456V150.548H389.064V158H386.1V140.648ZM400.164 158V145.592H402.96V148.28C403.16 147.664 403.444 147.14 403.812 146.708C404.188 146.268 404.628 145.932 405.132 145.7C405.636 145.468 406.184 145.352 406.776 145.352C406.92 145.352 407.06 145.36 407.196 145.376C407.332 145.392 407.432 145.42 407.496 145.46V148.256C407.408 148.216 407.292 148.188 407.148 148.172C407.012 148.156 406.892 148.148 406.788 148.148C406.188 148.1 405.656 148.124 405.192 148.22C404.736 148.316 404.348 148.48 404.028 148.712C403.716 148.936 403.48 149.224 403.32 149.576C403.16 149.92 403.08 150.324 403.08 150.788V158H400.164ZM411.878 152.468C411.87 153.172 411.982 153.796 412.214 154.34C412.446 154.884 412.79 155.312 413.246 155.624C413.702 155.928 414.266 156.08 414.938 156.08C415.626 156.08 416.222 155.928 416.726 155.624C417.238 155.312 417.578 154.84 417.746 154.208H420.422C420.278 155.072 419.934 155.804 419.39 156.404C418.846 157.004 418.186 157.46 417.41 157.772C416.642 158.084 415.842 158.24 415.01 158.24C413.81 158.24 412.754 157.988 411.842 157.484C410.938 156.972 410.23 156.244 409.718 155.3C409.214 154.356 408.962 153.232 408.962 151.928C408.962 150.656 409.194 149.528 409.658 148.544C410.122 147.552 410.79 146.772 411.662 146.204C412.542 145.636 413.598 145.352 414.83 145.352C416.054 145.352 417.082 145.612 417.914 146.132C418.754 146.652 419.386 147.38 419.81 148.316C420.242 149.244 420.458 150.332 420.458 151.58V152.468H411.878ZM411.878 150.656H417.698C417.698 150.056 417.594 149.516 417.386 149.036C417.178 148.548 416.858 148.164 416.426 147.884C416.002 147.596 415.466 147.452 414.818 147.452C414.178 147.452 413.638 147.608 413.198 147.92C412.758 148.232 412.426 148.636 412.202 149.132C411.978 149.62 411.87 150.128 411.878 150.656ZM425.471 152.468C425.463 153.172 425.575 153.796 425.807 154.34C426.039 154.884 426.383 155.312 426.839 155.624C427.295 155.928 427.859 156.08 428.531 156.08C429.219 156.08 429.815 155.928 430.319 155.624C430.831 155.312 431.171 154.84 431.339 154.208H434.015C433.871 155.072 433.527 155.804 432.983 156.404C432.439 157.004 431.779 157.46 431.003 157.772C430.235 158.084 429.435 158.24 428.603 158.24C427.403 158.24 426.347 157.988 425.435 157.484C424.531 156.972 423.823 156.244 423.311 155.3C422.807 154.356 422.555 153.232 422.555 151.928C422.555 150.656 422.787 149.528 423.251 148.544C423.715 147.552 424.383 146.772 425.255 146.204C426.135 145.636 427.191 145.352 428.423 145.352C429.647 145.352 430.675 145.612 431.507 146.132C432.347 146.652 432.979 147.38 433.403 148.316C433.835 149.244 434.051 150.332 434.051 151.58V152.468H425.471ZM425.471 150.656H431.291C431.291 150.056 431.187 149.516 430.979 149.036C430.771 148.548 430.451 148.164 430.019 147.884C429.595 147.596 429.059 147.452 428.411 147.452C427.771 147.452 427.231 147.608 426.791 147.92C426.351 148.232 426.019 148.636 425.795 149.132C425.571 149.62 425.463 150.128 425.471 150.656ZM445.529 158.18C444.729 158.18 444.089 158.08 443.609 157.88C443.129 157.68 442.769 157.412 442.529 157.076C442.289 156.74 442.133 156.364 442.061 155.948C441.989 155.524 441.953 155.092 441.953 154.652V140.168H444.809V154.316C444.809 154.852 444.917 155.268 445.133 155.564C445.357 155.86 445.717 156.032 446.213 156.08L446.837 156.104V157.94C446.621 158.004 446.401 158.06 446.177 158.108C445.953 158.156 445.737 158.18 445.529 158.18ZM452.395 145.592V158H449.587V145.592H452.395ZM452.431 140.66V143.42H449.539V140.66H452.431ZM456.039 158V145.592H458.895V147.368C459.087 147.048 459.347 146.74 459.675 146.444C460.011 146.148 460.423 145.908 460.911 145.724C461.399 145.54 461.971 145.448 462.627 145.448C463.395 145.448 464.107 145.6 464.763 145.904C465.427 146.208 465.959 146.684 466.359 147.332C466.767 147.98 466.971 148.816 466.971 149.84V158H464.043V150.188C464.043 149.372 463.819 148.768 463.371 148.376C462.923 147.976 462.359 147.776 461.679 147.776C461.215 147.776 460.775 147.856 460.359 148.016C459.943 148.168 459.603 148.404 459.339 148.724C459.083 149.036 458.955 149.428 458.955 149.9V158H456.039ZM481.585 158H478.621L475.021 152.252L473.005 154.364V158H470.101V140.168H473.005V151.22L478.153 145.592H481.357L476.869 150.44L481.585 158ZM495.708 158.24C495.044 158.24 494.476 158.152 494.004 157.976C493.532 157.8 493.136 157.572 492.816 157.292C492.504 157.012 492.252 156.712 492.06 156.392C491.876 156.064 491.736 155.752 491.64 155.456L491.304 158H489.156V140.168H492.084V147.404C492.212 147.164 492.388 146.924 492.612 146.684C492.844 146.444 493.124 146.224 493.452 146.024C493.78 145.824 494.152 145.664 494.568 145.544C494.992 145.416 495.46 145.352 495.972 145.352C497.516 145.352 498.736 145.9 499.632 146.996C500.528 148.092 500.976 149.672 500.976 151.736C500.976 153.04 500.776 154.18 500.376 155.156C499.984 156.132 499.396 156.892 498.612 157.436C497.836 157.972 496.868 158.24 495.708 158.24ZM495.108 156.092C495.98 156.092 496.696 155.744 497.256 155.048C497.816 154.352 498.096 153.224 498.096 151.664C498.096 150.304 497.832 149.276 497.304 148.58C496.776 147.876 496.032 147.524 495.072 147.524C494.384 147.524 493.82 147.68 493.38 147.992C492.948 148.304 492.624 148.768 492.408 149.384C492.2 150 492.092 150.76 492.084 151.664C492.084 153.248 492.324 154.384 492.804 155.072C493.292 155.752 494.06 156.092 495.108 156.092ZM507.966 158.24C507.358 158.24 506.77 158.152 506.202 157.976C505.642 157.792 505.138 157.528 504.69 157.184C504.242 156.832 503.886 156.4 503.622 155.888C503.358 155.376 503.226 154.78 503.226 154.1V145.592H506.154V153.764C506.154 154.436 506.366 154.988 506.79 155.42C507.222 155.852 507.87 156.068 508.734 156.068C509.518 156.068 510.146 155.864 510.618 155.456C511.09 155.04 511.326 154.444 511.326 153.668V145.592H514.23V158H511.986L511.662 155.576C511.51 156.256 511.242 156.792 510.858 157.184C510.482 157.568 510.038 157.84 509.526 158C509.022 158.16 508.502 158.24 507.966 158.24ZM520.481 145.592V158H517.673V145.592H520.481ZM520.517 140.66V143.42H517.625V140.66H520.517ZM527.701 158.18C526.901 158.18 526.261 158.08 525.781 157.88C525.301 157.68 524.941 157.412 524.701 157.076C524.461 156.74 524.305 156.364 524.233 155.948C524.161 155.524 524.125 155.092 524.125 154.652V140.168H526.981V154.316C526.981 154.852 527.089 155.268 527.305 155.564C527.529 155.86 527.889 156.032 528.385 156.08L529.009 156.104V157.94C528.793 158.004 528.573 158.06 528.349 158.108C528.125 158.156 527.909 158.18 527.701 158.18ZM536.009 158.24C534.369 158.24 533.081 157.676 532.145 156.548C531.209 155.42 530.741 153.816 530.741 151.736C530.741 150.44 530.929 149.316 531.305 148.364C531.689 147.404 532.249 146.664 532.985 146.144C533.729 145.616 534.649 145.352 535.745 145.352C536.257 145.352 536.721 145.416 537.137 145.544C537.561 145.664 537.937 145.824 538.265 146.024C538.593 146.224 538.869 146.444 539.093 146.684C539.325 146.924 539.505 147.164 539.633 147.404V140.168H542.561V158H540.401L540.077 155.456C539.981 155.752 539.837 156.064 539.645 156.392C539.461 156.712 539.209 157.012 538.889 157.292C538.577 157.572 538.185 157.8 537.713 157.976C537.241 158.152 536.673 158.24 536.009 158.24ZM536.609 156.092C537.657 156.092 538.421 155.752 538.901 155.072C539.389 154.384 539.633 153.248 539.633 151.664C539.625 150.76 539.513 150 539.297 149.384C539.089 148.768 538.765 148.304 538.325 147.992C537.893 147.68 537.333 147.524 536.645 147.524C535.765 147.524 535.041 147.848 534.473 148.496C533.905 149.144 533.621 150.2 533.621 151.664C533.621 153.12 533.881 154.224 534.401 154.976C534.921 155.72 535.657 156.092 536.609 156.092ZM549.004 145.592V158H546.196V145.592H549.004ZM549.04 140.66V143.42H546.148V140.66H549.04ZM552.648 158V145.592H555.504V147.368C555.696 147.048 555.956 146.74 556.284 146.444C556.62 146.148 557.032 145.908 557.52 145.724C558.008 145.54 558.58 145.448 559.236 145.448C560.004 145.448 560.716 145.6 561.372 145.904C562.036 146.208 562.568 146.684 562.968 147.332C563.376 147.98 563.58 148.816 563.58 149.84V158H560.652V150.188C560.652 149.372 560.428 148.768 559.98 148.376C559.532 147.976 558.968 147.776 558.288 147.776C557.824 147.776 557.384 147.856 556.968 148.016C556.552 148.168 556.212 148.404 555.948 148.724C555.692 149.036 555.564 149.428 555.564 149.9V158H552.648ZM572.219 162.104C570.131 162.104 568.527 161.824 567.407 161.264C566.287 160.704 565.727 159.936 565.727 158.96C565.727 158.52 565.835 158.152 566.051 157.856C566.267 157.56 566.523 157.316 566.819 157.124C567.115 156.932 567.387 156.784 567.635 156.68C567.883 156.576 568.043 156.5 568.115 156.452C567.979 156.372 567.799 156.268 567.575 156.14C567.351 156.012 567.147 155.836 566.963 155.612C566.787 155.388 566.699 155.096 566.699 154.736C566.699 154.32 566.895 153.936 567.287 153.584C567.687 153.232 568.283 152.98 569.075 152.828C568.299 152.452 567.703 151.944 567.287 151.304C566.871 150.664 566.663 150 566.663 149.312C566.663 148.496 566.899 147.796 567.371 147.212C567.851 146.628 568.515 146.18 569.363 145.868C570.219 145.556 571.207 145.4 572.327 145.4C573.159 145.4 573.847 145.492 574.391 145.676C574.935 145.86 575.443 146.108 575.915 146.42C576.075 146.356 576.299 146.268 576.587 146.156C576.883 146.036 577.203 145.908 577.547 145.772C577.891 145.628 578.219 145.492 578.531 145.364C578.851 145.228 579.123 145.116 579.347 145.028L579.323 147.44L577.175 147.824C577.279 148.056 577.359 148.308 577.415 148.58C577.479 148.852 577.511 149.092 577.511 149.3C577.511 150.02 577.307 150.688 576.899 151.304C576.499 151.912 575.895 152.4 575.087 152.768C574.287 153.136 573.287 153.32 572.087 153.32C571.967 153.32 571.803 153.316 571.595 153.308C571.387 153.3 571.219 153.292 571.091 153.284C570.443 153.308 569.999 153.384 569.759 153.512C569.519 153.64 569.399 153.78 569.399 153.932C569.399 154.148 569.579 154.292 569.939 154.364C570.299 154.436 570.875 154.5 571.667 154.556C571.947 154.572 572.315 154.592 572.771 154.616C573.227 154.64 573.735 154.672 574.295 154.712C575.711 154.8 576.783 155.156 577.511 155.78C578.239 156.396 578.603 157.196 578.603 158.18C578.603 159.324 578.075 160.264 577.019 161C575.963 161.736 574.363 162.104 572.219 162.104ZM572.711 160.388C573.759 160.388 574.535 160.244 575.039 159.956C575.543 159.668 575.795 159.244 575.795 158.684C575.795 158.252 575.623 157.9 575.279 157.628C574.935 157.356 574.423 157.196 573.743 157.148L570.611 156.956C570.267 156.932 569.939 156.996 569.627 157.148C569.323 157.292 569.075 157.496 568.883 157.76C568.691 158.016 568.595 158.3 568.595 158.612C568.595 159.196 568.931 159.636 569.603 159.932C570.275 160.236 571.311 160.388 572.711 160.388ZM572.183 151.604C572.943 151.604 573.559 151.412 574.031 151.028C574.503 150.636 574.739 150.084 574.739 149.372C574.739 148.636 574.503 148.064 574.031 147.656C573.559 147.24 572.943 147.032 572.183 147.032C571.407 147.032 570.779 147.24 570.299 147.656C569.827 148.072 569.591 148.644 569.591 149.372C569.591 150.06 569.819 150.604 570.275 151.004C570.731 151.404 571.367 151.604 572.183 151.604ZM390.324 186.24C389.46 186.24 388.64 186.104 387.864 185.832C387.096 185.552 386.448 185.116 385.92 184.524C385.4 183.932 385.072 183.168 384.936 182.232H387.504C387.616 182.688 387.812 183.06 388.092 183.348C388.38 183.636 388.72 183.848 389.112 183.984C389.504 184.112 389.904 184.176 390.312 184.176C391.056 184.176 391.656 184.048 392.112 183.792C392.576 183.536 392.808 183.14 392.808 182.604C392.808 182.212 392.68 181.9 392.424 181.668C392.168 181.436 391.76 181.26 391.2 181.14L388.836 180.6C387.788 180.368 386.944 179.984 386.304 179.448C385.672 178.912 385.352 178.156 385.344 177.18C385.336 176.444 385.52 175.788 385.896 175.212C386.272 174.636 386.832 174.184 387.576 173.856C388.32 173.52 389.24 173.352 390.336 173.352C391.784 173.352 392.944 173.676 393.816 174.324C394.688 174.964 395.136 175.88 395.16 177.072H392.676C392.588 176.536 392.336 176.12 391.92 175.824C391.504 175.52 390.964 175.368 390.3 175.368C389.612 175.368 389.048 175.5 388.608 175.764C388.168 176.028 387.948 176.432 387.948 176.976C387.948 177.352 388.116 177.648 388.452 177.864C388.788 178.08 389.292 178.264 389.964 178.416L392.196 178.956C392.836 179.116 393.36 179.332 393.768 179.604C394.176 179.876 394.496 180.176 394.728 180.504C394.96 180.824 395.12 181.156 395.208 181.5C395.304 181.836 395.352 182.148 395.352 182.436C395.352 183.236 395.144 183.92 394.728 184.488C394.32 185.048 393.74 185.48 392.988 185.784C392.236 186.088 391.348 186.24 390.324 186.24ZM404.876 175.656H402.104L402.116 182.772C402.116 183.14 402.156 183.412 402.236 183.588C402.324 183.756 402.46 183.868 402.644 183.924C402.836 183.972 403.092 183.996 403.412 183.996H404.936V185.844C404.776 185.908 404.532 185.964 404.204 186.012C403.884 186.068 403.452 186.096 402.908 186.096C401.924 186.096 401.16 185.968 400.616 185.712C400.08 185.448 399.708 185.076 399.5 184.596C399.292 184.116 399.188 183.544 399.188 182.88V175.656H397.172V173.592H399.272L400.004 169.908H402.104V173.58H404.876V175.656ZM407.734 186V173.592H410.53V176.28C410.73 175.664 411.014 175.14 411.382 174.708C411.758 174.268 412.198 173.932 412.702 173.7C413.206 173.468 413.754 173.352 414.346 173.352C414.49 173.352 414.63 173.36 414.766 173.376C414.902 173.392 415.002 173.42 415.066 173.46V176.256C414.978 176.216 414.862 176.188 414.718 176.172C414.582 176.156 414.462 176.148 414.358 176.148C413.758 176.1 413.226 176.124 412.762 176.22C412.306 176.316 411.918 176.48 411.598 176.712C411.286 176.936 411.05 177.224 410.89 177.576C410.73 177.92 410.65 178.324 410.65 178.788V186H407.734ZM420.602 186.24C419.81 186.24 419.098 186.096 418.466 185.808C417.842 185.512 417.35 185.092 416.99 184.548C416.638 183.996 416.462 183.328 416.462 182.544C416.462 181.176 416.954 180.144 417.938 179.448C418.93 178.752 420.51 178.388 422.678 178.356L424.526 178.308V177.468C424.526 176.812 424.33 176.3 423.938 175.932C423.554 175.556 422.954 175.372 422.138 175.38C421.538 175.388 420.986 175.532 420.482 175.812C419.986 176.084 419.658 176.544 419.498 177.192H417.014C417.062 176.344 417.306 175.636 417.746 175.068C418.194 174.492 418.806 174.064 419.582 173.784C420.358 173.496 421.254 173.352 422.27 173.352C423.454 173.352 424.418 173.508 425.162 173.82C425.906 174.132 426.454 174.584 426.806 175.176C427.158 175.76 427.334 176.468 427.334 177.3V186H424.874L424.646 183.768C424.198 184.704 423.63 185.352 422.942 185.712C422.262 186.064 421.482 186.24 420.602 186.24ZM421.55 184.26C421.91 184.26 422.266 184.196 422.618 184.068C422.97 183.932 423.29 183.752 423.578 183.528C423.866 183.296 424.094 183.04 424.262 182.76C424.438 182.48 424.526 182.188 424.526 181.884V179.928L423.002 179.952C422.25 179.96 421.594 180.04 421.034 180.192C420.474 180.344 420.034 180.588 419.714 180.924C419.402 181.252 419.246 181.692 419.246 182.244C419.246 182.876 419.466 183.372 419.906 183.732C420.346 184.084 420.894 184.26 421.55 184.26ZM437.173 175.656H434.401L434.413 182.772C434.413 183.14 434.453 183.412 434.533 183.588C434.621 183.756 434.757 183.868 434.941 183.924C435.133 183.972 435.389 183.996 435.709 183.996H437.233V185.844C437.073 185.908 436.829 185.964 436.501 186.012C436.181 186.068 435.749 186.096 435.205 186.096C434.221 186.096 433.457 185.968 432.913 185.712C432.377 185.448 432.005 185.076 431.797 184.596C431.589 184.116 431.485 183.544 431.485 182.88V175.656H429.469V173.592H431.569L432.301 169.908H434.401V173.58H437.173V175.656ZM441.971 180.468C441.963 181.172 442.075 181.796 442.307 182.34C442.539 182.884 442.883 183.312 443.339 183.624C443.795 183.928 444.359 184.08 445.031 184.08C445.719 184.08 446.315 183.928 446.819 183.624C447.331 183.312 447.671 182.84 447.839 182.208H450.515C450.371 183.072 450.027 183.804 449.483 184.404C448.939 185.004 448.279 185.46 447.503 185.772C446.735 186.084 445.935 186.24 445.103 186.24C443.903 186.24 442.847 185.988 441.935 185.484C441.031 184.972 440.323 184.244 439.811 183.3C439.307 182.356 439.055 181.232 439.055 179.928C439.055 178.656 439.287 177.528 439.751 176.544C440.215 175.552 440.883 174.772 441.755 174.204C442.635 173.636 443.691 173.352 444.923 173.352C446.147 173.352 447.175 173.612 448.007 174.132C448.847 174.652 449.479 175.38 449.903 176.316C450.335 177.244 450.551 178.332 450.551 179.58V180.468H441.971ZM441.971 178.656H447.791C447.791 178.056 447.687 177.516 447.479 177.036C447.271 176.548 446.951 176.164 446.519 175.884C446.095 175.596 445.559 175.452 444.911 175.452C444.271 175.452 443.731 175.608 443.291 175.92C442.851 176.232 442.519 176.636 442.295 177.132C442.071 177.62 441.963 178.128 441.971 178.656ZM458.664 190.104C456.576 190.104 454.972 189.824 453.852 189.264C452.732 188.704 452.172 187.936 452.172 186.96C452.172 186.52 452.28 186.152 452.496 185.856C452.712 185.56 452.968 185.316 453.264 185.124C453.56 184.932 453.832 184.784 454.08 184.68C454.328 184.576 454.488 184.5 454.56 184.452C454.424 184.372 454.244 184.268 454.02 184.14C453.796 184.012 453.592 183.836 453.408 183.612C453.232 183.388 453.144 183.096 453.144 182.736C453.144 182.32 453.34 181.936 453.732 181.584C454.132 181.232 454.728 180.98 455.52 180.828C454.744 180.452 454.148 179.944 453.732 179.304C453.316 178.664 453.108 178 453.108 177.312C453.108 176.496 453.344 175.796 453.816 175.212C454.296 174.628 454.96 174.18 455.808 173.868C456.664 173.556 457.652 173.4 458.772 173.4C459.604 173.4 460.292 173.492 460.836 173.676C461.38 173.86 461.888 174.108 462.36 174.42C462.52 174.356 462.744 174.268 463.032 174.156C463.328 174.036 463.648 173.908 463.992 173.772C464.336 173.628 464.664 173.492 464.976 173.364C465.296 173.228 465.568 173.116 465.792 173.028L465.768 175.44L463.62 175.824C463.724 176.056 463.804 176.308 463.86 176.58C463.924 176.852 463.956 177.092 463.956 177.3C463.956 178.02 463.752 178.688 463.344 179.304C462.944 179.912 462.34 180.4 461.532 180.768C460.732 181.136 459.732 181.32 458.532 181.32C458.412 181.32 458.248 181.316 458.04 181.308C457.832 181.3 457.664 181.292 457.536 181.284C456.888 181.308 456.444 181.384 456.204 181.512C455.964 181.64 455.844 181.78 455.844 181.932C455.844 182.148 456.024 182.292 456.384 182.364C456.744 182.436 457.32 182.5 458.112 182.556C458.392 182.572 458.76 182.592 459.216 182.616C459.672 182.64 460.18 182.672 460.74 182.712C462.156 182.8 463.228 183.156 463.956 183.78C464.684 184.396 465.048 185.196 465.048 186.18C465.048 187.324 464.52 188.264 463.464 189C462.408 189.736 460.808 190.104 458.664 190.104ZM459.156 188.388C460.204 188.388 460.98 188.244 461.484 187.956C461.988 187.668 462.24 187.244 462.24 186.684C462.24 186.252 462.068 185.9 461.724 185.628C461.38 185.356 460.868 185.196 460.188 185.148L457.056 184.956C456.712 184.932 456.384 184.996 456.072 185.148C455.768 185.292 455.52 185.496 455.328 185.76C455.136 186.016 455.04 186.3 455.04 186.612C455.04 187.196 455.376 187.636 456.048 187.932C456.72 188.236 457.756 188.388 459.156 188.388ZM458.628 179.604C459.388 179.604 460.004 179.412 460.476 179.028C460.948 178.636 461.184 178.084 461.184 177.372C461.184 176.636 460.948 176.064 460.476 175.656C460.004 175.24 459.388 175.032 458.628 175.032C457.852 175.032 457.224 175.24 456.744 175.656C456.272 176.072 456.036 176.644 456.036 177.372C456.036 178.06 456.264 178.604 456.72 179.004C457.176 179.404 457.812 179.604 458.628 179.604ZM471.145 173.592V186H468.337V173.592H471.145ZM471.181 168.66V171.42H468.289V168.66H471.181ZM476.964 180.468C476.956 181.172 477.068 181.796 477.3 182.34C477.532 182.884 477.876 183.312 478.332 183.624C478.788 183.928 479.352 184.08 480.024 184.08C480.712 184.08 481.308 183.928 481.812 183.624C482.324 183.312 482.664 182.84 482.832 182.208H485.508C485.364 183.072 485.02 183.804 484.476 184.404C483.932 185.004 483.272 185.46 482.496 185.772C481.728 186.084 480.928 186.24 480.096 186.24C478.896 186.24 477.84 185.988 476.928 185.484C476.024 184.972 475.316 184.244 474.804 183.3C474.3 182.356 474.048 181.232 474.048 179.928C474.048 178.656 474.28 177.528 474.744 176.544C475.208 175.552 475.876 174.772 476.748 174.204C477.628 173.636 478.684 173.352 479.916 173.352C481.14 173.352 482.168 173.612 483 174.132C483.84 174.652 484.472 175.38 484.896 176.316C485.328 177.244 485.544 178.332 485.544 179.58V180.468H476.964ZM476.964 178.656H482.784C482.784 178.056 482.68 177.516 482.472 177.036C482.264 176.548 481.944 176.164 481.512 175.884C481.088 175.596 480.552 175.452 479.904 175.452C479.264 175.452 478.724 175.608 478.284 175.92C477.844 176.232 477.512 176.636 477.288 177.132C477.064 177.62 476.956 178.128 476.964 178.656ZM492.887 186.24C492.023 186.24 491.203 186.104 490.427 185.832C489.659 185.552 489.011 185.116 488.483 184.524C487.963 183.932 487.635 183.168 487.499 182.232H490.067C490.179 182.688 490.375 183.06 490.655 183.348C490.943 183.636 491.283 183.848 491.675 183.984C492.067 184.112 492.467 184.176 492.875 184.176C493.619 184.176 494.219 184.048 494.675 183.792C495.139 183.536 495.371 183.14 495.371 182.604C495.371 182.212 495.243 181.9 494.987 181.668C494.731 181.436 494.323 181.26 493.763 181.14L491.399 180.6C490.351 180.368 489.507 179.984 488.867 179.448C488.235 178.912 487.915 178.156 487.907 177.18C487.899 176.444 488.083 175.788 488.459 175.212C488.835 174.636 489.395 174.184 490.139 173.856C490.883 173.52 491.803 173.352 492.898 173.352C494.347 173.352 495.507 173.676 496.379 174.324C497.251 174.964 497.699 175.88 497.723 177.072H495.239C495.151 176.536 494.899 176.12 494.483 175.824C494.067 175.52 493.527 175.368 492.863 175.368C492.175 175.368 491.611 175.5 491.171 175.764C490.731 176.028 490.511 176.432 490.511 176.976C490.511 177.352 490.679 177.648 491.015 177.864C491.351 178.08 491.855 178.264 492.527 178.416L494.759 178.956C495.399 179.116 495.923 179.332 496.331 179.604C496.739 179.876 497.059 180.176 497.291 180.504C497.523 180.824 497.683 181.156 497.771 181.5C497.867 181.836 497.915 182.148 497.915 182.436C497.915 183.236 497.707 183.92 497.291 184.488C496.883 185.048 496.303 185.48 495.551 185.784C494.799 186.088 493.911 186.24 492.887 186.24Z" fill="#363940"/>
</g>
<g filter="url(#filter3_d_27_769)">
<rect x="74" y="56" width="256" height="187" rx="8" fill="#FCFCFC"/>
<path d="M127.292 89.25H105.708C103.154 89.25 101.083 91.3207 101.083 93.875V98.0697L111.624 101.583H121.376L131.917 98.0697V93.875C131.917 91.3207 129.846 89.25 127.292 89.25Z" fill="#C3E8F1"/>
<path d="M113.417 89.25V87.7083H119.583V89.25H122.667V87.7083C122.665 86.0063 121.286 84.6269 119.583 84.625H113.417C111.715 84.6269 110.335 86.0063 110.333 87.7083V89.25H113.417ZM111.624 101.583L101.083 98.0696V107.75C101.086 110.303 103.155 112.372 105.708 112.375H127.292C129.845 112.372 131.914 110.303 131.917 107.75V98.0696L121.376 101.583H111.624Z" fill="#027794"/>
<path d="M100.1 158V140.648H106.064C108.264 140.648 109.908 141.04 110.996 141.824C112.092 142.6 112.64 143.72 112.64 145.184C112.64 146.072 112.412 146.84 111.956 147.488C111.5 148.136 110.696 148.684 109.544 149.132C110.248 149.3 110.828 149.532 111.284 149.828C111.748 150.116 112.108 150.448 112.364 150.824C112.62 151.192 112.8 151.588 112.904 152.012C113.008 152.436 113.06 152.872 113.06 153.32C113.06 154.904 112.508 156.08 111.404 156.848C110.308 157.616 108.608 158 106.304 158H100.1ZM103.016 155.672H106.34C107.572 155.672 108.504 155.452 109.136 155.012C109.776 154.564 110.096 153.92 110.096 153.08C110.096 152.472 109.94 151.972 109.628 151.58C109.316 151.18 108.892 150.884 108.356 150.692C107.82 150.5 107.22 150.404 106.556 150.404H103.016V155.672ZM103.016 148.04H106.556C106.964 148.04 107.36 147.996 107.744 147.908C108.128 147.82 108.476 147.68 108.788 147.488C109.1 147.296 109.348 147.04 109.532 146.72C109.724 146.4 109.82 146.012 109.82 145.556C109.82 144.684 109.488 144.036 108.824 143.612C108.168 143.18 107.324 142.964 106.292 142.964H103.016V148.04ZM118.331 152.468C118.323 153.172 118.435 153.796 118.667 154.34C118.899 154.884 119.243 155.312 119.699 155.624C120.155 155.928 120.719 156.08 121.391 156.08C122.079 156.08 122.675 155.928 123.179 155.624C123.691 155.312 124.031 154.84 124.199 154.208H126.875C126.731 155.072 126.387 155.804 125.843 156.404C125.299 157.004 124.639 157.46 123.863 157.772C123.095 158.084 122.295 158.24 121.463 158.24C120.263 158.24 119.207 157.988 118.295 157.484C117.391 156.972 116.683 156.244 116.171 155.3C115.667 154.356 115.415 153.232 115.415 151.928C115.415 150.656 115.647 149.528 116.111 148.544C116.575 147.552 117.243 146.772 118.115 146.204C118.995 145.636 120.051 145.352 121.283 145.352C122.507 145.352 123.535 145.612 124.367 146.132C125.207 146.652 125.839 147.38 126.263 148.316C126.695 149.244 126.911 150.332 126.911 151.58V152.468H118.331ZM118.331 150.656H124.151C124.151 150.056 124.047 149.516 123.839 149.036C123.631 148.548 123.311 148.164 122.879 147.884C122.455 147.596 121.919 147.452 121.271 147.452C120.631 147.452 120.091 147.608 119.651 147.92C119.211 148.232 118.879 148.636 118.655 149.132C118.431 149.62 118.323 150.128 118.331 150.656ZM134.254 158.24C133.39 158.24 132.57 158.104 131.794 157.832C131.026 157.552 130.378 157.116 129.85 156.524C129.33 155.932 129.002 155.168 128.866 154.232H131.434C131.546 154.688 131.742 155.06 132.022 155.348C132.31 155.636 132.65 155.848 133.042 155.984C133.434 156.112 133.834 156.176 134.242 156.176C134.986 156.176 135.586 156.048 136.042 155.792C136.506 155.536 136.738 155.14 136.738 154.604C136.738 154.212 136.61 153.9 136.354 153.668C136.098 153.436 135.69 153.26 135.13 153.14L132.766 152.6C131.718 152.368 130.874 151.984 130.234 151.448C129.602 150.912 129.282 150.156 129.274 149.18C129.266 148.444 129.45 147.788 129.826 147.212C130.202 146.636 130.762 146.184 131.506 145.856C132.25 145.52 133.17 145.352 134.266 145.352C135.714 145.352 136.874 145.676 137.746 146.324C138.618 146.964 139.066 147.88 139.09 149.072H136.606C136.518 148.536 136.266 148.12 135.85 147.824C135.434 147.52 134.894 147.368 134.23 147.368C133.542 147.368 132.978 147.5 132.538 147.764C132.098 148.028 131.878 148.432 131.878 148.976C131.878 149.352 132.046 149.648 132.382 149.864C132.718 150.08 133.222 150.264 133.894 150.416L136.126 150.956C136.766 151.116 137.29 151.332 137.698 151.604C138.106 151.876 138.426 152.176 138.658 152.504C138.89 152.824 139.05 153.156 139.138 153.5C139.234 153.836 139.282 154.148 139.282 154.436C139.282 155.236 139.074 155.92 138.658 156.488C138.25 157.048 137.67 157.48 136.918 157.784C136.166 158.088 135.278 158.24 134.254 158.24ZM142.031 161.864V145.592H144.947L144.971 147.548C145.131 147.276 145.335 147.008 145.583 146.744C145.839 146.48 146.131 146.244 146.459 146.036C146.795 145.828 147.167 145.664 147.575 145.544C147.983 145.416 148.431 145.352 148.919 145.352C149.871 145.352 150.715 145.58 151.451 146.036C152.187 146.484 152.763 147.176 153.179 148.112C153.603 149.048 153.815 150.232 153.815 151.664C153.815 153.128 153.599 154.348 153.167 155.324C152.735 156.3 152.131 157.032 151.355 157.52C150.579 158 149.679 158.24 148.655 158.24C148.183 158.24 147.751 158.176 147.359 158.048C146.975 157.92 146.631 157.744 146.327 157.52C146.023 157.296 145.755 157.052 145.523 156.788C145.299 156.524 145.111 156.248 144.959 155.96V161.864H142.031ZM148.007 156.056C148.887 156.056 149.615 155.708 150.191 155.012C150.767 154.308 151.055 153.208 151.055 151.712C151.055 150.416 150.783 149.396 150.239 148.652C149.703 147.9 148.959 147.524 148.007 147.524C146.983 147.524 146.215 147.92 145.703 148.712C145.191 149.496 144.935 150.496 144.935 151.712C144.935 152.496 145.047 153.22 145.271 153.884C145.503 154.54 145.843 155.068 146.291 155.468C146.747 155.86 147.319 156.056 148.007 156.056ZM161.546 158.24C160.362 158.24 159.33 157.988 158.45 157.484C157.57 156.972 156.886 156.24 156.398 155.288C155.918 154.336 155.678 153.192 155.678 151.856C155.678 150.56 155.91 149.424 156.374 148.448C156.846 147.472 157.522 146.712 158.402 146.168C159.282 145.624 160.334 145.352 161.558 145.352C162.742 145.352 163.77 145.612 164.642 146.132C165.514 146.652 166.186 147.396 166.658 148.364C167.138 149.332 167.378 150.496 167.378 151.856C167.378 153.112 167.15 154.22 166.694 155.18C166.246 156.132 165.586 156.88 164.714 157.424C163.85 157.968 162.794 158.24 161.546 158.24ZM161.558 156.02C162.23 156.02 162.782 155.836 163.214 155.468C163.654 155.1 163.978 154.596 164.186 153.956C164.402 153.316 164.51 152.588 164.51 151.772C164.51 151.012 164.414 150.312 164.222 149.672C164.038 149.032 163.726 148.52 163.286 148.136C162.854 147.744 162.278 147.548 161.558 147.548C160.878 147.548 160.314 147.728 159.866 148.088C159.426 148.44 159.094 148.936 158.87 149.576C158.654 150.208 158.546 150.94 158.546 151.772C158.546 152.524 158.642 153.224 158.834 153.872C159.034 154.512 159.354 155.032 159.794 155.432C160.234 155.824 160.822 156.02 161.558 156.02ZM181.453 158H178.489L174.889 152.252L172.873 154.364V158H169.969V140.168H172.873V151.22L178.021 145.592H181.225L176.737 150.44L181.453 158ZM185.432 152.468C185.424 153.172 185.536 153.796 185.768 154.34C186 154.884 186.344 155.312 186.8 155.624C187.256 155.928 187.82 156.08 188.492 156.08C189.18 156.08 189.776 155.928 190.28 155.624C190.792 155.312 191.132 154.84 191.3 154.208H193.976C193.832 155.072 193.488 155.804 192.944 156.404C192.4 157.004 191.74 157.46 190.964 157.772C190.196 158.084 189.396 158.24 188.564 158.24C187.364 158.24 186.308 157.988 185.396 157.484C184.492 156.972 183.784 156.244 183.272 155.3C182.768 154.356 182.516 153.232 182.516 151.928C182.516 150.656 182.748 149.528 183.212 148.544C183.676 147.552 184.344 146.772 185.216 146.204C186.096 145.636 187.152 145.352 188.384 145.352C189.608 145.352 190.636 145.612 191.468 146.132C192.308 146.652 192.94 147.38 193.364 148.316C193.796 149.244 194.012 150.332 194.012 151.58V152.468H185.432ZM185.432 150.656H191.252C191.252 150.056 191.148 149.516 190.94 149.036C190.732 148.548 190.412 148.164 189.98 147.884C189.556 147.596 189.02 147.452 188.372 147.452C187.732 147.452 187.192 147.608 186.752 147.92C186.312 148.232 185.98 148.636 185.756 149.132C185.532 149.62 185.424 150.128 185.432 150.656ZM103.172 186.24C102.38 186.24 101.668 186.096 101.036 185.808C100.412 185.512 99.92 185.092 99.56 184.548C99.208 183.996 99.032 183.328 99.032 182.544C99.032 181.176 99.524 180.144 100.508 179.448C101.5 178.752 103.08 178.388 105.248 178.356L107.096 178.308V177.468C107.096 176.812 106.9 176.3 106.508 175.932C106.124 175.556 105.524 175.372 104.708 175.38C104.108 175.388 103.556 175.532 103.052 175.812C102.556 176.084 102.228 176.544 102.068 177.192H99.584C99.632 176.344 99.876 175.636 100.316 175.068C100.764 174.492 101.376 174.064 102.152 173.784C102.928 173.496 103.824 173.352 104.84 173.352C106.024 173.352 106.988 173.508 107.732 173.82C108.476 174.132 109.024 174.584 109.376 175.176C109.728 175.76 109.904 176.468 109.904 177.3V186H107.444L107.216 183.768C106.768 184.704 106.2 185.352 105.512 185.712C104.832 186.064 104.052 186.24 103.172 186.24ZM104.12 184.26C104.48 184.26 104.836 184.196 105.188 184.068C105.54 183.932 105.86 183.752 106.148 183.528C106.436 183.296 106.664 183.04 106.832 182.76C107.008 182.48 107.096 182.188 107.096 181.884V179.928L105.572 179.952C104.82 179.96 104.164 180.04 103.604 180.192C103.044 180.344 102.604 180.588 102.284 180.924C101.972 181.252 101.816 181.692 101.816 182.244C101.816 182.876 102.036 183.372 102.476 183.732C102.916 184.084 103.464 184.26 104.12 184.26ZM118.468 173.352C119.436 173.352 120.288 173.544 121.024 173.928C121.76 174.312 122.348 174.844 122.788 175.524C123.236 176.204 123.504 176.976 123.592 177.84H121.096C121.04 177.464 120.904 177.108 120.688 176.772C120.472 176.428 120.18 176.152 119.812 175.944C119.444 175.728 119 175.62 118.48 175.62C117.552 175.62 116.796 175.964 116.212 176.652C115.636 177.34 115.348 178.396 115.348 179.82C115.348 181.132 115.624 182.176 116.176 182.952C116.728 183.728 117.516 184.116 118.54 184.116C119.052 184.116 119.488 184.004 119.848 183.78C120.216 183.548 120.504 183.264 120.712 182.928C120.928 182.584 121.068 182.24 121.132 181.896H123.556C123.484 182.736 123.22 183.484 122.764 184.14C122.316 184.796 121.724 185.312 120.988 185.688C120.26 186.056 119.42 186.24 118.468 186.24C117.332 186.24 116.32 185.992 115.432 185.496C114.552 184.992 113.86 184.264 113.356 183.312C112.852 182.352 112.6 181.196 112.6 179.844C112.6 178.556 112.836 177.428 113.308 176.46C113.78 175.484 114.456 174.724 115.336 174.18C116.216 173.628 117.26 173.352 118.468 173.352ZM131.429 173.352C132.397 173.352 133.249 173.544 133.985 173.928C134.721 174.312 135.309 174.844 135.749 175.524C136.197 176.204 136.465 176.976 136.553 177.84H134.057C134.001 177.464 133.865 177.108 133.649 176.772C133.433 176.428 133.141 176.152 132.773 175.944C132.405 175.728 131.961 175.62 131.441 175.62C130.513 175.62 129.757 175.964 129.173 176.652C128.597 177.34 128.309 178.396 128.309 179.82C128.309 181.132 128.585 182.176 129.137 182.952C129.689 183.728 130.477 184.116 131.501 184.116C132.013 184.116 132.449 184.004 132.809 183.78C133.177 183.548 133.465 183.264 133.673 182.928C133.889 182.584 134.029 182.24 134.093 181.896H136.517C136.445 182.736 136.181 183.484 135.725 184.14C135.277 184.796 134.685 185.312 133.949 185.688C133.221 186.056 132.381 186.24 131.429 186.24C130.293 186.24 129.281 185.992 128.393 185.496C127.513 184.992 126.821 184.264 126.317 183.312C125.813 182.352 125.561 181.196 125.561 179.844C125.561 178.556 125.797 177.428 126.269 176.46C126.741 175.484 127.417 174.724 128.297 174.18C129.177 173.628 130.221 173.352 131.429 173.352ZM144.39 186.24C143.206 186.24 142.174 185.988 141.294 185.484C140.414 184.972 139.73 184.24 139.242 183.288C138.762 182.336 138.522 181.192 138.522 179.856C138.522 178.56 138.754 177.424 139.218 176.448C139.69 175.472 140.366 174.712 141.246 174.168C142.126 173.624 143.178 173.352 144.402 173.352C145.586 173.352 146.614 173.612 147.486 174.132C148.358 174.652 149.03 175.396 149.502 176.364C149.982 177.332 150.222 178.496 150.222 179.856C150.222 181.112 149.994 182.22 149.538 183.18C149.09 184.132 148.43 184.88 147.558 185.424C146.694 185.968 145.638 186.24 144.39 186.24ZM144.402 184.02C145.074 184.02 145.626 183.836 146.058 183.468C146.498 183.1 146.822 182.596 147.03 181.956C147.246 181.316 147.354 180.588 147.354 179.772C147.354 179.012 147.258 178.312 147.066 177.672C146.882 177.032 146.57 176.52 146.13 176.136C145.698 175.744 145.122 175.548 144.402 175.548C143.722 175.548 143.158 175.728 142.71 176.088C142.27 176.44 141.938 176.936 141.714 177.576C141.498 178.208 141.39 178.94 141.39 179.772C141.39 180.524 141.486 181.224 141.678 181.872C141.878 182.512 142.198 183.032 142.638 183.432C143.078 183.824 143.666 184.02 144.402 184.02ZM157.208 186.24C156.6 186.24 156.012 186.152 155.444 185.976C154.884 185.792 154.38 185.528 153.932 185.184C153.484 184.832 153.128 184.4 152.864 183.888C152.6 183.376 152.468 182.78 152.468 182.1V173.592H155.396V181.764C155.396 182.436 155.608 182.988 156.032 183.42C156.464 183.852 157.112 184.068 157.976 184.068C158.76 184.068 159.388 183.864 159.86 183.456C160.332 183.04 160.568 182.444 160.568 181.668V173.592H163.472V186H161.228L160.904 183.576C160.752 184.256 160.484 184.792 160.1 185.184C159.724 185.568 159.28 185.84 158.768 186C158.264 186.16 157.744 186.24 157.208 186.24ZM166.711 186V173.592H169.567V175.368C169.759 175.048 170.019 174.74 170.347 174.444C170.683 174.148 171.095 173.908 171.583 173.724C172.071 173.54 172.643 173.448 173.299 173.448C174.067 173.448 174.779 173.6 175.435 173.904C176.099 174.208 176.631 174.684 177.031 175.332C177.439 175.98 177.643 176.816 177.643 177.84V186H174.715V178.188C174.715 177.372 174.491 176.768 174.043 176.376C173.595 175.976 173.031 175.776 172.351 175.776C171.887 175.776 171.447 175.856 171.031 176.016C170.615 176.168 170.275 176.404 170.011 176.724C169.755 177.036 169.627 177.428 169.627 177.9V186H166.711ZM187.196 175.656H184.424L184.436 182.772C184.436 183.14 184.476 183.412 184.556 183.588C184.644 183.756 184.78 183.868 184.964 183.924C185.156 183.972 185.412 183.996 185.732 183.996H187.256V185.844C187.096 185.908 186.852 185.964 186.524 186.012C186.204 186.068 185.772 186.096 185.228 186.096C184.244 186.096 183.48 185.968 182.936 185.712C182.4 185.448 182.028 185.076 181.82 184.596C181.612 184.116 181.508 183.544 181.508 182.88V175.656H179.492V173.592H181.592L182.324 169.908H184.424V173.58H187.196V175.656ZM99.656 214V201.592H102.5V203.368C102.86 202.824 103.348 202.352 103.964 201.952C104.588 201.552 105.38 201.352 106.34 201.352C106.78 201.352 107.224 201.428 107.672 201.58C108.128 201.732 108.548 201.956 108.932 202.252C109.324 202.548 109.636 202.916 109.868 203.356C110.26 202.772 110.78 202.292 111.428 201.916C112.084 201.54 112.82 201.352 113.636 201.352C114.084 201.352 114.544 201.424 115.016 201.568C115.496 201.712 115.936 201.952 116.336 202.288C116.736 202.624 117.06 203.084 117.308 203.668C117.556 204.244 117.68 204.968 117.68 205.84V214H114.764V206.188C114.764 205.572 114.656 205.088 114.44 204.736C114.224 204.384 113.944 204.136 113.6 203.992C113.264 203.84 112.904 203.764 112.52 203.764C112.176 203.764 111.816 203.832 111.44 203.968C111.072 204.104 110.756 204.328 110.492 204.64C110.236 204.952 110.108 205.372 110.108 205.9V214H107.192V205.72C107.192 205.288 107.08 204.928 106.856 204.64C106.632 204.352 106.348 204.136 106.004 203.992C105.668 203.84 105.324 203.764 104.972 203.764C104.612 203.764 104.244 203.84 103.868 203.992C103.5 204.144 103.192 204.376 102.944 204.688C102.696 205 102.572 205.404 102.572 205.9V214H99.656ZM124.266 214.24C123.474 214.24 122.762 214.096 122.13 213.808C121.506 213.512 121.014 213.092 120.654 212.548C120.302 211.996 120.126 211.328 120.126 210.544C120.126 209.176 120.618 208.144 121.602 207.448C122.594 206.752 124.174 206.388 126.342 206.356L128.19 206.308V205.468C128.19 204.812 127.994 204.3 127.602 203.932C127.218 203.556 126.618 203.372 125.802 203.38C125.202 203.388 124.65 203.532 124.146 203.812C123.65 204.084 123.322 204.544 123.162 205.192H120.678C120.726 204.344 120.97 203.636 121.41 203.068C121.858 202.492 122.47 202.064 123.246 201.784C124.022 201.496 124.918 201.352 125.934 201.352C127.118 201.352 128.082 201.508 128.826 201.82C129.57 202.132 130.118 202.584 130.47 203.176C130.822 203.76 130.998 204.468 130.998 205.3V214H128.538L128.31 211.768C127.862 212.704 127.294 213.352 126.606 213.712C125.926 214.064 125.146 214.24 124.266 214.24ZM125.214 212.26C125.574 212.26 125.93 212.196 126.282 212.068C126.634 211.932 126.954 211.752 127.242 211.528C127.53 211.296 127.758 211.04 127.926 210.76C128.102 210.48 128.19 210.188 128.19 209.884V207.928L126.666 207.952C125.914 207.96 125.258 208.04 124.698 208.192C124.138 208.344 123.698 208.588 123.378 208.924C123.066 209.252 122.91 209.692 122.91 210.244C122.91 210.876 123.13 211.372 123.57 211.732C124.01 212.084 124.558 212.26 125.214 212.26ZM134.414 214V201.592H137.27V203.368C137.462 203.048 137.722 202.74 138.05 202.444C138.386 202.148 138.798 201.908 139.286 201.724C139.774 201.54 140.346 201.448 141.002 201.448C141.77 201.448 142.482 201.6 143.138 201.904C143.802 202.208 144.334 202.684 144.734 203.332C145.142 203.98 145.346 204.816 145.346 205.84V214H142.418V206.188C142.418 205.372 142.194 204.768 141.746 204.376C141.298 203.976 140.734 203.776 140.054 203.776C139.59 203.776 139.15 203.856 138.734 204.016C138.318 204.168 137.978 204.404 137.714 204.724C137.458 205.036 137.33 205.428 137.33 205.9V214H134.414ZM151.922 214.24C151.13 214.24 150.418 214.096 149.786 213.808C149.162 213.512 148.67 213.092 148.31 212.548C147.958 211.996 147.782 211.328 147.782 210.544C147.782 209.176 148.274 208.144 149.258 207.448C150.25 206.752 151.83 206.388 153.998 206.356L155.846 206.308V205.468C155.846 204.812 155.65 204.3 155.258 203.932C154.874 203.556 154.274 203.372 153.458 203.38C152.858 203.388 152.306 203.532 151.802 203.812C151.306 204.084 150.978 204.544 150.818 205.192H148.334C148.382 204.344 148.626 203.636 149.066 203.068C149.514 202.492 150.126 202.064 150.902 201.784C151.678 201.496 152.574 201.352 153.59 201.352C154.774 201.352 155.738 201.508 156.482 201.82C157.226 202.132 157.774 202.584 158.126 203.176C158.478 203.76 158.654 204.468 158.654 205.3V214H156.194L155.966 211.768C155.518 212.704 154.95 213.352 154.262 213.712C153.582 214.064 152.802 214.24 151.922 214.24ZM152.87 212.26C153.23 212.26 153.586 212.196 153.938 212.068C154.29 211.932 154.61 211.752 154.898 211.528C155.186 211.296 155.414 211.04 155.582 210.76C155.758 210.48 155.846 210.188 155.846 209.884V207.928L154.322 207.952C153.57 207.96 152.914 208.04 152.354 208.192C151.794 208.344 151.354 208.588 151.034 208.924C150.722 209.252 150.566 209.692 150.566 210.244C150.566 210.876 150.786 211.372 151.226 211.732C151.666 212.084 152.214 212.26 152.87 212.26ZM167.578 218.104C165.49 218.104 163.886 217.824 162.766 217.264C161.646 216.704 161.086 215.936 161.086 214.96C161.086 214.52 161.194 214.152 161.41 213.856C161.626 213.56 161.882 213.316 162.178 213.124C162.474 212.932 162.746 212.784 162.994 212.68C163.242 212.576 163.402 212.5 163.474 212.452C163.338 212.372 163.158 212.268 162.934 212.14C162.71 212.012 162.506 211.836 162.322 211.612C162.146 211.388 162.058 211.096 162.058 210.736C162.058 210.32 162.254 209.936 162.646 209.584C163.046 209.232 163.642 208.98 164.434 208.828C163.658 208.452 163.062 207.944 162.646 207.304C162.23 206.664 162.022 206 162.022 205.312C162.022 204.496 162.258 203.796 162.73 203.212C163.21 202.628 163.874 202.18 164.722 201.868C165.578 201.556 166.566 201.4 167.686 201.4C168.518 201.4 169.206 201.492 169.75 201.676C170.294 201.86 170.802 202.108 171.274 202.42C171.434 202.356 171.658 202.268 171.946 202.156C172.242 202.036 172.562 201.908 172.906 201.772C173.25 201.628 173.578 201.492 173.89 201.364C174.21 201.228 174.482 201.116 174.706 201.028L174.682 203.44L172.534 203.824C172.638 204.056 172.718 204.308 172.774 204.58C172.838 204.852 172.87 205.092 172.87 205.3C172.87 206.02 172.666 206.688 172.258 207.304C171.858 207.912 171.254 208.4 170.446 208.768C169.646 209.136 168.646 209.32 167.446 209.32C167.326 209.32 167.162 209.316 166.954 209.308C166.746 209.3 166.578 209.292 166.45 209.284C165.802 209.308 165.358 209.384 165.118 209.512C164.878 209.64 164.758 209.78 164.758 209.932C164.758 210.148 164.938 210.292 165.298 210.364C165.658 210.436 166.234 210.5 167.026 210.556C167.306 210.572 167.674 210.592 168.13 210.616C168.586 210.64 169.094 210.672 169.654 210.712C171.07 210.8 172.142 211.156 172.87 211.78C173.598 212.396 173.962 213.196 173.962 214.18C173.962 215.324 173.434 216.264 172.378 217C171.322 217.736 169.722 218.104 167.578 218.104ZM168.07 216.388C169.118 216.388 169.894 216.244 170.398 215.956C170.902 215.668 171.154 215.244 171.154 214.684C171.154 214.252 170.982 213.9 170.638 213.628C170.294 213.356 169.782 213.196 169.102 213.148L165.97 212.956C165.626 212.932 165.298 212.996 164.986 213.148C164.682 213.292 164.434 213.496 164.242 213.76C164.05 214.016 163.954 214.3 163.954 214.612C163.954 215.196 164.29 215.636 164.962 215.932C165.634 216.236 166.67 216.388 168.07 216.388ZM167.542 207.604C168.302 207.604 168.918 207.412 169.39 207.028C169.862 206.636 170.098 206.084 170.098 205.372C170.098 204.636 169.862 204.064 169.39 203.656C168.918 203.24 168.302 203.032 167.542 203.032C166.766 203.032 166.138 203.24 165.658 203.656C165.186 204.072 164.95 204.644 164.95 205.372C164.95 206.06 165.178 206.604 165.634 207.004C166.09 207.404 166.726 207.604 167.542 207.604ZM178.987 208.468C178.979 209.172 179.091 209.796 179.323 210.34C179.555 210.884 179.899 211.312 180.355 211.624C180.811 211.928 181.375 212.08 182.047 212.08C182.735 212.08 183.331 211.928 183.835 211.624C184.347 211.312 184.687 210.84 184.855 210.208H187.531C187.387 211.072 187.043 211.804 186.499 212.404C185.955 213.004 185.295 213.46 184.519 213.772C183.751 214.084 182.951 214.24 182.119 214.24C180.919 214.24 179.863 213.988 178.951 213.484C178.047 212.972 177.339 212.244 176.827 211.3C176.323 210.356 176.071 209.232 176.071 207.928C176.071 206.656 176.303 205.528 176.767 204.544C177.231 203.552 177.899 202.772 178.771 202.204C179.651 201.636 180.707 201.352 181.939 201.352C183.163 201.352 184.191 201.612 185.023 202.132C185.863 202.652 186.495 203.38 186.919 204.316C187.351 205.244 187.567 206.332 187.567 207.58V208.468H178.987ZM178.987 206.656H184.807C184.807 206.056 184.703 205.516 184.495 205.036C184.287 204.548 183.967 204.164 183.535 203.884C183.111 203.596 182.575 203.452 181.927 203.452C181.287 203.452 180.747 203.608 180.307 203.92C179.867 204.232 179.535 204.636 179.311 205.132C179.087 205.62 178.979 206.128 178.987 206.656ZM190.289 214V201.592H193.133V203.368C193.493 202.824 193.981 202.352 194.597 201.952C195.221 201.552 196.013 201.352 196.973 201.352C197.413 201.352 197.857 201.428 198.305 201.58C198.761 201.732 199.181 201.956 199.565 202.252C199.957 202.548 200.269 202.916 200.501 203.356C200.893 202.772 201.413 202.292 202.061 201.916C202.717 201.54 203.453 201.352 204.269 201.352C204.717 201.352 205.177 201.424 205.649 201.568C206.129 201.712 206.569 201.952 206.969 202.288C207.369 202.624 207.693 203.084 207.941 203.668C208.189 204.244 208.313 204.968 208.313 205.84V214H205.397V206.188C205.397 205.572 205.289 205.088 205.073 204.736C204.857 204.384 204.577 204.136 204.233 203.992C203.897 203.84 203.537 203.764 203.153 203.764C202.809 203.764 202.449 203.832 202.073 203.968C201.705 204.104 201.389 204.328 201.125 204.64C200.869 204.952 200.741 205.372 200.741 205.9V214H197.825V205.72C197.825 205.288 197.713 204.928 197.489 204.64C197.265 204.352 196.981 204.136 196.637 203.992C196.301 203.84 195.957 203.764 195.605 203.764C195.245 203.764 194.877 203.84 194.501 203.992C194.133 204.144 193.825 204.376 193.577 204.688C193.329 205 193.205 205.404 193.205 205.9V214H190.289ZM213.745 208.468C213.737 209.172 213.849 209.796 214.081 210.34C214.313 210.884 214.657 211.312 215.113 211.624C215.569 211.928 216.133 212.08 216.805 212.08C217.493 212.08 218.089 211.928 218.593 211.624C219.105 211.312 219.445 210.84 219.613 210.208H222.289C222.145 211.072 221.801 211.804 221.257 212.404C220.713 213.004 220.053 213.46 219.277 213.772C218.509 214.084 217.709 214.24 216.877 214.24C215.677 214.24 214.621 213.988 213.709 213.484C212.805 212.972 212.097 212.244 211.585 211.3C211.081 210.356 210.829 209.232 210.829 207.928C210.829 206.656 211.061 205.528 211.525 204.544C211.989 203.552 212.657 202.772 213.529 202.204C214.409 201.636 215.465 201.352 216.697 201.352C217.921 201.352 218.949 201.612 219.781 202.132C220.621 202.652 221.253 203.38 221.677 204.316C222.109 205.244 222.325 206.332 222.325 207.58V208.468H213.745ZM213.745 206.656H219.565C219.565 206.056 219.461 205.516 219.253 205.036C219.045 204.548 218.725 204.164 218.293 203.884C217.869 203.596 217.333 203.452 216.685 203.452C216.045 203.452 215.505 203.608 215.065 203.92C214.625 204.232 214.293 204.636 214.069 205.132C213.845 205.62 213.737 206.128 213.745 206.656ZM225.047 214V201.592H227.903V203.368C228.095 203.048 228.355 202.74 228.683 202.444C229.019 202.148 229.431 201.908 229.919 201.724C230.407 201.54 230.979 201.448 231.635 201.448C232.403 201.448 233.115 201.6 233.771 201.904C234.435 202.208 234.967 202.684 235.367 203.332C235.775 203.98 235.979 204.816 235.979 205.84V214H233.051V206.188C233.051 205.372 232.827 204.768 232.379 204.376C231.931 203.976 231.367 203.776 230.687 203.776C230.223 203.776 229.783 203.856 229.367 204.016C228.951 204.168 228.611 204.404 228.347 204.724C228.091 205.036 227.963 205.428 227.963 205.9V214H225.047ZM245.532 203.656H242.76L242.772 210.772C242.772 211.14 242.812 211.412 242.892 211.588C242.98 211.756 243.116 211.868 243.3 211.924C243.492 211.972 243.748 211.996 244.068 211.996H245.592V213.844C245.432 213.908 245.188 213.964 244.86 214.012C244.54 214.068 244.108 214.096 243.564 214.096C242.58 214.096 241.816 213.968 241.272 213.712C240.736 213.448 240.364 213.076 240.156 212.596C239.948 212.116 239.844 211.544 239.844 210.88V203.656H237.828V201.592H239.928L240.66 197.908H242.76V201.58H245.532V203.656Z" fill="#363940"/>
</g>
<defs>
<filter id="filter0_d_27_769" x="285" y="210" width="404" height="335" filterUnits="userSpaceOnUse" color-interpolation-filters="sRGB">
<feFlood flood-opacity="0" result="BackgroundImageFix"/>
<feColorMatrix in="SourceAlpha" type="matrix" values="0 0 0 0 0 0 0 0 0 0 0 0 0 0 0 0 0 0 127 0" result="hardAlpha"/>
<feMorphology radius="16" operator="dilate" in="SourceAlpha" result="effect1_dropShadow_27_769"/>
<feOffset dy="18"/>
<feGaussianBlur stdDeviation="29"/>
<feColorMatrix type="matrix" values="0 0 0 0 0 0 0 0 0 0 0 0 0 0 0 0 0 0 0.06 0"/>
<feBlend mode="normal" in2="BackgroundImageFix" result="effect1_dropShadow_27_769"/>
<feBlend mode="normal" in="SourceGraphic" in2="effect1_dropShadow_27_769" result="shape"/>
</filter>
<filter id="filter1_d_27_769" x="1" y="212" width="404" height="333" filterUnits="userSpaceOnUse" color-interpolation-filters="sRGB">
<feFlood flood-opacity="0" result="BackgroundImageFix"/>
<feColorMatrix in="SourceAlpha" type="matrix" values="0 0 0 0 0 0 0 0 0 0 0 0 0 0 0 0 0 0 127 0" result="hardAlpha"/>
<feMorphology radius="16" operator="dilate" in="SourceAlpha" result="effect1_dropShadow_27_769"/>
<feOffset dy="18"/>
<feGaussianBlur stdDeviation="29"/>
<feColorMatrix type="matrix" values="0 0 0 0 0 0 0 0 0 0 0 0 0 0 0 0 0 0 0.06 0"/>
<feBlend mode="normal" in2="BackgroundImageFix" result="effect1_dropShadow_27_769"/>
<feBlend mode="normal" in="SourceGraphic" in2="effect1_dropShadow_27_769" result="shape"/>
</filter>
<filter id="filter2_d_27_769" x="286" y="0" width="403" height="335" filterUnits="userSpaceOnUse" color-interpolation-filters="sRGB">
<feFlood flood-opacity="0" result="BackgroundImageFix"/>
<feColorMatrix in="SourceAlpha" type="matrix" values="0 0 0 0 0 0 0 0 0 0 0 0 0 0 0 0 0 0 127 0" result="hardAlpha"/>
<feMorphology radius="16" operator="dilate" in="SourceAlpha" result="effect1_dropShadow_27_769"/>
<feOffset dy="18"/>
<feGaussianBlur stdDeviation="29"/>
<feColorMatrix type="matrix" values="0 0 0 0 0 0 0 0 0 0 0 0 0 0 0 0 0 0 0.06 0"/>
<feBlend mode="normal" in2="BackgroundImageFix" result="effect1_dropShadow_27_769"/>
<feBlend mode="normal" in="SourceGraphic" in2="effect1_dropShadow_27_769" result="shape"/>
</filter>
<filter id="filter3_d_27_769" x="0" y="0" width="404" height="335" filterUnits="userSpaceOnUse" color-interpolation-filters="sRGB">
<feFlood flood-opacity="0" result="BackgroundImageFix"/>
<feColorMatrix in="SourceAlpha" type="matrix" values="0 0 0 0 0 0 0 0 0 0 0 0 0 0 0 0 0 0 127 0" result="hardAlpha"/>
<feMorphology radius="16" operator="dilate" in="SourceAlpha" result="effect1_dropShadow_27_769"/>
<feOffset dy="18"/>
<feGaussianBlur stdDeviation="29"/>
<feColorMatrix type="matrix" values="0 0 0 0 0 0 0 0 0 0 0 0 0 0 0 0 0 0 0.06 0"/>
<feBlend mode="normal" in2="BackgroundImageFix" result="effect1_dropShadow_27_769"/>
<feBlend mode="normal" in="SourceGraphic" in2="effect1_dropShadow_27_769" result="shape"/>
</filter>
</defs>
</svg>
