<svg width="1336" height="162" viewBox="0 0 1336 162" fill="none" xmlns="http://www.w3.org/2000/svg">
<g filter="url(#filter0_dd_32_998)">
<path fill-rule="evenodd" clip-rule="evenodd" d="M32 28C32 18.5719 32 13.8579 34.9289 10.9289C37.8579 8 42.5719 8 52 8H407C416.428 8 421.142 8 424.071 10.9289C427 13.8579 427 18.5719 427 28V86C427 95.4281 427 100.142 424.071 103.071C421.142 106 416.428 106 407 106H52C42.5719 106 37.8579 106 34.9289 103.071C32 100.142 32 95.4281 32 86V28Z" fill="#F2F6FC"/>
</g>
<g filter="url(#filter1_dd_32_998)">
<path fill-rule="evenodd" clip-rule="evenodd" d="M464 28C464 18.5719 464 13.8579 466.929 10.9289C469.858 8 474.572 8 484 8H852C861.428 8 866.142 8 869.071 10.9289C872 13.8579 872 18.5719 872 28V86C872 95.4281 872 100.142 869.071 103.071C866.142 106 861.428 106 852 106H484C474.572 106 469.858 106 466.929 103.071C464 100.142 464 95.4281 464 86V28Z" fill="#F2F6FC"/>
</g>
<g filter="url(#filter2_dd_32_998)">
<path fill-rule="evenodd" clip-rule="evenodd" d="M909 28C909 18.5719 909 13.8579 911.929 10.9289C914.858 8 919.572 8 929 8H1284C1293.43 8 1298.14 8 1301.07 10.9289C1304 13.8579 1304 18.5719 1304 28V86C1304 95.4281 1304 100.142 1301.07 103.071C1298.14 106 1293.43 106 1284 106H929C919.572 106 914.858 106 911.929 103.071C909 100.142 909 95.4281 909 86V28Z" fill="#F2F6FC"/>
</g>
<path d="M88.9001 58.5C88.9001 65.3483 83.3484 70.9 76.5001 70.9C69.6518 70.9 64.1001 65.3483 64.1001 58.5C64.1001 51.6516 69.6518 46.1 76.5001 46.1C78.4456 46.1 80.2864 46.548 81.9251 47.3465M86.5751 50.75L75.7251 61.6L72.6251 58.5" stroke="#1CCAFF" stroke-width="4" stroke-linecap="round" stroke-linejoin="round"/>
<path d="M522.9 57.5C522.9 64.3483 517.348 69.9 510.5 69.9C503.652 69.9 498.1 64.3483 498.1 57.5C498.1 50.6516 503.652 45.1 510.5 45.1C512.446 45.1 514.286 45.548 515.925 46.3465M520.575 49.75L509.725 60.6L506.625 57.5" stroke="#1CCAFF" stroke-width="4" stroke-linecap="round" stroke-linejoin="round"/>
<path d="M970.9 57.5C970.9 64.3483 965.348 69.9 958.5 69.9C951.652 69.9 946.1 64.3483 946.1 57.5C946.1 50.6516 951.652 45.1 958.5 45.1C960.446 45.1 962.286 45.548 963.925 46.3465M968.575 49.75L957.725 60.6L954.625 57.5" stroke="#1CCAFF" stroke-width="4" stroke-linecap="round" stroke-linejoin="round"/>
<path d="M120.719 50.986H128.828L128.819 52.444H122.429V56.746H128.171V58.186H122.429V64H120.719V50.986ZM131.065 64V54.694H132.649V56.485C132.805 56.041 133.024 55.675 133.306 55.387C133.588 55.093 133.909 54.874 134.269 54.73C134.635 54.586 135.013 54.514 135.403 54.514C135.541 54.514 135.676 54.523 135.808 54.541C135.94 54.559 136.042 54.589 136.114 54.631V56.242C136.024 56.2 135.907 56.173 135.763 56.161C135.625 56.143 135.508 56.134 135.412 56.134C135.04 56.11 134.692 56.134 134.368 56.206C134.044 56.272 133.759 56.389 133.513 56.557C133.267 56.725 133.072 56.947 132.928 57.223C132.79 57.493 132.721 57.823 132.721 58.213V64H131.065ZM139.038 59.734C139.038 60.322 139.134 60.856 139.326 61.336C139.524 61.81 139.821 62.188 140.217 62.47C140.619 62.752 141.12 62.893 141.72 62.893C142.314 62.893 142.824 62.755 143.25 62.479C143.682 62.203 143.958 61.804 144.078 61.282H145.653C145.539 61.912 145.287 62.443 144.897 62.875C144.507 63.307 144.036 63.634 143.484 63.856C142.932 64.072 142.356 64.18 141.756 64.18C140.886 64.18 140.121 63.991 139.461 63.613C138.801 63.235 138.285 62.692 137.913 61.984C137.541 61.276 137.355 60.427 137.355 59.437C137.355 58.459 137.523 57.601 137.859 56.863C138.195 56.125 138.681 55.549 139.317 55.135C139.959 54.721 140.73 54.514 141.63 54.514C142.506 54.514 143.247 54.703 143.853 55.081C144.459 55.459 144.918 55.993 145.23 56.683C145.548 57.367 145.707 58.18 145.707 59.122V59.734H139.038ZM139.047 58.609H144.105C144.105 58.075 144.015 57.595 143.835 57.169C143.655 56.737 143.379 56.398 143.007 56.152C142.641 55.9 142.179 55.774 141.621 55.774C141.039 55.774 140.556 55.915 140.172 56.197C139.794 56.473 139.509 56.83 139.317 57.268C139.131 57.7 139.041 58.147 139.047 58.609ZM149.18 59.734C149.18 60.322 149.276 60.856 149.468 61.336C149.666 61.81 149.963 62.188 150.359 62.47C150.761 62.752 151.262 62.893 151.862 62.893C152.456 62.893 152.966 62.755 153.392 62.479C153.824 62.203 154.1 61.804 154.22 61.282H155.795C155.681 61.912 155.429 62.443 155.039 62.875C154.649 63.307 154.178 63.634 153.626 63.856C153.074 64.072 152.498 64.18 151.898 64.18C151.028 64.18 150.263 63.991 149.603 63.613C148.943 63.235 148.427 62.692 148.055 61.984C147.683 61.276 147.497 60.427 147.497 59.437C147.497 58.459 147.665 57.601 148.001 56.863C148.337 56.125 148.823 55.549 149.459 55.135C150.101 54.721 150.872 54.514 151.772 54.514C152.648 54.514 153.389 54.703 153.995 55.081C154.601 55.459 155.06 55.993 155.372 56.683C155.69 57.367 155.849 58.18 155.849 59.122V59.734H149.18ZM149.189 58.609H154.247C154.247 58.075 154.157 57.595 153.977 57.169C153.797 56.737 153.521 56.398 153.149 56.152C152.783 55.9 152.321 55.774 151.763 55.774C151.181 55.774 150.698 55.915 150.314 56.197C149.936 56.473 149.651 56.83 149.459 57.268C149.273 57.7 149.183 58.147 149.189 58.609ZM164.752 64.18C164.152 64.18 163.621 64.075 163.159 63.865C162.697 63.649 162.334 63.34 162.07 62.938C161.812 62.536 161.683 62.05 161.683 61.48C161.683 60.448 162.043 59.68 162.763 59.176C163.483 58.672 164.638 58.402 166.228 58.366L167.893 58.321V57.592C167.893 57.022 167.722 56.572 167.38 56.242C167.038 55.906 166.507 55.738 165.787 55.738C165.253 55.744 164.782 55.87 164.374 56.116C163.972 56.362 163.711 56.764 163.591 57.322H162.124C162.16 56.716 162.331 56.206 162.637 55.792C162.943 55.372 163.369 55.054 163.915 54.838C164.467 54.622 165.118 54.514 165.868 54.514C166.678 54.514 167.35 54.628 167.884 54.856C168.424 55.084 168.826 55.42 169.09 55.864C169.36 56.308 169.495 56.854 169.495 57.502V64H168.073L167.956 62.254C167.596 62.98 167.137 63.484 166.579 63.766C166.027 64.042 165.418 64.18 164.752 64.18ZM165.256 62.983C165.568 62.983 165.877 62.926 166.183 62.812C166.495 62.698 166.78 62.545 167.038 62.353C167.296 62.155 167.5 61.936 167.65 61.696C167.806 61.45 167.887 61.198 167.893 60.94V59.347L166.507 59.374C165.799 59.386 165.205 59.458 164.725 59.59C164.251 59.722 163.894 59.929 163.654 60.211C163.42 60.493 163.303 60.862 163.303 61.318C163.303 61.84 163.483 62.248 163.843 62.542C164.209 62.836 164.68 62.983 165.256 62.983ZM176.046 54.514C176.712 54.514 177.312 54.643 177.846 54.901C178.38 55.153 178.815 55.513 179.151 55.981C179.493 56.449 179.706 57.001 179.79 57.637H178.314C178.26 57.313 178.134 57.016 177.936 56.746C177.744 56.476 177.489 56.26 177.171 56.098C176.853 55.936 176.481 55.855 176.055 55.855C175.257 55.855 174.609 56.143 174.111 56.719C173.613 57.295 173.364 58.177 173.364 59.365C173.364 60.439 173.592 61.3 174.048 61.948C174.51 62.59 175.188 62.911 176.082 62.911C176.508 62.911 176.877 62.83 177.189 62.668C177.507 62.5 177.762 62.281 177.954 62.011C178.146 61.735 178.269 61.441 178.323 61.129H179.772C179.694 61.753 179.484 62.293 179.142 62.749C178.8 63.205 178.362 63.559 177.828 63.811C177.3 64.057 176.706 64.18 176.046 64.18C175.212 64.18 174.471 63.997 173.823 63.631C173.181 63.265 172.677 62.725 172.311 62.011C171.945 61.297 171.762 60.421 171.762 59.383C171.762 58.411 171.927 57.562 172.257 56.836C172.593 56.104 173.079 55.534 173.715 55.126C174.357 54.718 175.134 54.514 176.046 54.514ZM185.749 54.514C186.415 54.514 187.015 54.643 187.549 54.901C188.083 55.153 188.518 55.513 188.854 55.981C189.196 56.449 189.409 57.001 189.493 57.637H188.017C187.963 57.313 187.837 57.016 187.639 56.746C187.447 56.476 187.192 56.26 186.874 56.098C186.556 55.936 186.184 55.855 185.758 55.855C184.96 55.855 184.312 56.143 183.814 56.719C183.316 57.295 183.067 58.177 183.067 59.365C183.067 60.439 183.295 61.3 183.751 61.948C184.213 62.59 184.891 62.911 185.785 62.911C186.211 62.911 186.58 62.83 186.892 62.668C187.21 62.5 187.465 62.281 187.657 62.011C187.849 61.735 187.972 61.441 188.026 61.129H189.475C189.397 61.753 189.187 62.293 188.845 62.749C188.503 63.205 188.065 63.559 187.531 63.811C187.003 64.057 186.409 64.18 185.749 64.18C184.915 64.18 184.174 63.997 183.526 63.631C182.884 63.265 182.38 62.725 182.014 62.011C181.648 61.297 181.465 60.421 181.465 59.383C181.465 58.411 181.63 57.562 181.96 56.836C182.296 56.104 182.782 55.534 183.418 55.126C184.06 54.718 184.837 54.514 185.749 54.514ZM192.932 59.734C192.932 60.322 193.028 60.856 193.22 61.336C193.418 61.81 193.715 62.188 194.111 62.47C194.513 62.752 195.014 62.893 195.614 62.893C196.208 62.893 196.718 62.755 197.144 62.479C197.576 62.203 197.852 61.804 197.972 61.282H199.547C199.433 61.912 199.181 62.443 198.791 62.875C198.401 63.307 197.93 63.634 197.378 63.856C196.826 64.072 196.25 64.18 195.65 64.18C194.78 64.18 194.015 63.991 193.355 63.613C192.695 63.235 192.179 62.692 191.807 61.984C191.435 61.276 191.249 60.427 191.249 59.437C191.249 58.459 191.417 57.601 191.753 56.863C192.089 56.125 192.575 55.549 193.211 55.135C193.853 54.721 194.624 54.514 195.524 54.514C196.4 54.514 197.141 54.703 197.747 55.081C198.353 55.459 198.812 55.993 199.124 56.683C199.442 57.367 199.601 58.18 199.601 59.122V59.734H192.932ZM192.941 58.609H197.999C197.999 58.075 197.909 57.595 197.729 57.169C197.549 56.737 197.273 56.398 196.901 56.152C196.535 55.9 196.073 55.774 195.515 55.774C194.933 55.774 194.45 55.915 194.066 56.197C193.688 56.473 193.403 56.83 193.211 57.268C193.025 57.7 192.935 58.147 192.941 58.609ZM205.137 64.18C204.489 64.18 203.886 64.081 203.328 63.883C202.776 63.679 202.317 63.364 201.951 62.938C201.585 62.506 201.354 61.957 201.258 61.291H202.77C202.854 61.657 203.004 61.963 203.22 62.209C203.442 62.449 203.718 62.632 204.048 62.758C204.378 62.878 204.738 62.938 205.128 62.938C205.752 62.938 206.256 62.821 206.64 62.587C207.024 62.353 207.216 61.993 207.216 61.507C207.216 61.165 207.114 60.892 206.91 60.688C206.712 60.478 206.403 60.325 205.983 60.229L204.057 59.752C203.307 59.572 202.707 59.29 202.257 58.906C201.807 58.522 201.582 57.985 201.582 57.295C201.576 56.749 201.705 56.269 201.969 55.855C202.233 55.441 202.629 55.114 203.157 54.874C203.685 54.634 204.342 54.514 205.128 54.514C206.136 54.514 206.949 54.742 207.567 55.198C208.191 55.648 208.515 56.311 208.539 57.187H207.072C207.012 56.743 206.811 56.392 206.469 56.134C206.133 55.87 205.68 55.738 205.11 55.738C204.516 55.738 204.033 55.858 203.661 56.098C203.289 56.332 203.103 56.698 203.103 57.196C203.103 57.526 203.235 57.787 203.499 57.979C203.763 58.165 204.153 58.321 204.669 58.447L206.532 58.915C206.964 59.029 207.318 59.179 207.594 59.365C207.876 59.551 208.098 59.758 208.26 59.986C208.428 60.214 208.545 60.454 208.611 60.706C208.683 60.952 208.719 61.189 208.719 61.417C208.719 61.987 208.575 62.479 208.287 62.893C208.005 63.301 207.597 63.619 207.063 63.847C206.535 64.069 205.893 64.18 205.137 64.18ZM214.207 64.18C213.559 64.18 212.956 64.081 212.398 63.883C211.846 63.679 211.387 63.364 211.021 62.938C210.655 62.506 210.424 61.957 210.328 61.291H211.84C211.924 61.657 212.074 61.963 212.29 62.209C212.512 62.449 212.788 62.632 213.118 62.758C213.448 62.878 213.808 62.938 214.198 62.938C214.822 62.938 215.326 62.821 215.71 62.587C216.094 62.353 216.286 61.993 216.286 61.507C216.286 61.165 216.184 60.892 215.98 60.688C215.782 60.478 215.473 60.325 215.053 60.229L213.127 59.752C212.377 59.572 211.777 59.29 211.327 58.906C210.877 58.522 210.652 57.985 210.652 57.295C210.646 56.749 210.775 56.269 211.039 55.855C211.303 55.441 211.699 55.114 212.227 54.874C212.755 54.634 213.412 54.514 214.198 54.514C215.206 54.514 216.019 54.742 216.637 55.198C217.261 55.648 217.585 56.311 217.609 57.187H216.142C216.082 56.743 215.881 56.392 215.539 56.134C215.203 55.87 214.75 55.738 214.18 55.738C213.586 55.738 213.103 55.858 212.731 56.098C212.359 56.332 212.173 56.698 212.173 57.196C212.173 57.526 212.305 57.787 212.569 57.979C212.833 58.165 213.223 58.321 213.739 58.447L215.602 58.915C216.034 59.029 216.388 59.179 216.664 59.365C216.946 59.551 217.168 59.758 217.33 59.986C217.498 60.214 217.615 60.454 217.681 60.706C217.753 60.952 217.789 61.189 217.789 61.417C217.789 61.987 217.645 62.479 217.357 62.893C217.075 63.301 216.667 63.619 216.133 63.847C215.605 64.069 214.963 64.18 214.207 64.18ZM228.939 55.909H226.842V61.696C226.842 62.026 226.875 62.269 226.941 62.425C227.013 62.575 227.13 62.671 227.292 62.713C227.46 62.755 227.688 62.776 227.976 62.776H228.993V63.892C228.879 63.934 228.705 63.97 228.471 64C228.243 64.03 227.958 64.045 227.616 64.045C226.974 64.045 226.476 63.958 226.122 63.784C225.768 63.61 225.519 63.352 225.375 63.01C225.237 62.668 225.168 62.248 225.168 61.75V55.909H223.656V54.694H225.213L225.618 51.985H226.842V54.685H228.939V55.909ZM234.783 64.18C233.925 64.18 233.175 63.997 232.533 63.631C231.891 63.259 231.393 62.716 231.039 62.002C230.685 61.288 230.508 60.415 230.508 59.383C230.508 58.411 230.673 57.559 231.003 56.827C231.333 56.095 231.816 55.528 232.452 55.126C233.094 54.718 233.871 54.514 234.783 54.514C235.641 54.514 236.385 54.703 237.015 55.081C237.651 55.453 238.143 56.002 238.491 56.728C238.839 57.454 239.013 58.339 239.013 59.383C239.013 60.331 238.851 61.165 238.527 61.885C238.209 62.605 237.735 63.169 237.105 63.577C236.481 63.979 235.707 64.18 234.783 64.18ZM234.783 62.866C235.341 62.866 235.812 62.725 236.196 62.443C236.58 62.161 236.871 61.756 237.069 61.228C237.267 60.7 237.366 60.073 237.366 59.347C237.366 58.681 237.279 58.084 237.105 57.556C236.931 57.022 236.652 56.599 236.268 56.287C235.89 55.975 235.395 55.819 234.783 55.819C234.219 55.819 233.742 55.96 233.352 56.242C232.962 56.518 232.665 56.92 232.461 57.448C232.263 57.976 232.164 58.609 232.164 59.347C232.164 60.001 232.254 60.595 232.434 61.129C232.614 61.663 232.896 62.086 233.28 62.398C233.664 62.71 234.165 62.866 234.783 62.866ZM248.705 64.18C247.847 64.18 247.097 63.997 246.455 63.631C245.813 63.259 245.315 62.716 244.961 62.002C244.607 61.288 244.43 60.415 244.43 59.383C244.43 58.411 244.595 57.559 244.925 56.827C245.255 56.095 245.738 55.528 246.374 55.126C247.016 54.718 247.793 54.514 248.705 54.514C249.563 54.514 250.307 54.703 250.937 55.081C251.573 55.453 252.065 56.002 252.413 56.728C252.761 57.454 252.935 58.339 252.935 59.383C252.935 60.331 252.773 61.165 252.449 61.885C252.131 62.605 251.657 63.169 251.027 63.577C250.403 63.979 249.629 64.18 248.705 64.18ZM248.705 62.866C249.263 62.866 249.734 62.725 250.118 62.443C250.502 62.161 250.793 61.756 250.991 61.228C251.189 60.7 251.288 60.073 251.288 59.347C251.288 58.681 251.201 58.084 251.027 57.556C250.853 57.022 250.574 56.599 250.19 56.287C249.812 55.975 249.317 55.819 248.705 55.819C248.141 55.819 247.664 55.96 247.274 56.242C246.884 56.518 246.587 56.92 246.383 57.448C246.185 57.976 246.086 58.609 246.086 59.347C246.086 60.001 246.176 60.595 246.356 61.129C246.536 61.663 246.818 62.086 247.202 62.398C247.586 62.71 248.087 62.866 248.705 62.866ZM258.393 64.18C257.907 64.174 257.448 64.105 257.016 63.973C256.59 63.835 256.212 63.634 255.882 63.37C255.552 63.106 255.291 62.779 255.099 62.389C254.913 61.993 254.82 61.534 254.82 61.012V54.694H256.485V60.841C256.485 61.447 256.671 61.939 257.043 62.317C257.421 62.695 257.988 62.884 258.744 62.884C259.428 62.884 259.977 62.707 260.391 62.353C260.811 61.993 261.021 61.459 261.021 60.751V54.694H262.677V64H261.354L261.183 62.218C261.069 62.686 260.874 63.064 260.598 63.352C260.328 63.64 260.001 63.853 259.617 63.991C259.239 64.123 258.831 64.186 258.393 64.18ZM265.379 64V54.694H266.963V56.485C267.119 56.041 267.338 55.675 267.62 55.387C267.902 55.093 268.223 54.874 268.583 54.73C268.949 54.586 269.327 54.514 269.717 54.514C269.855 54.514 269.99 54.523 270.122 54.541C270.254 54.559 270.356 54.589 270.428 54.631V56.242C270.338 56.2 270.221 56.173 270.077 56.161C269.939 56.143 269.822 56.134 269.726 56.134C269.354 56.11 269.006 56.134 268.682 56.206C268.358 56.272 268.073 56.389 267.827 56.557C267.581 56.725 267.386 56.947 267.242 57.223C267.104 57.493 267.035 57.823 267.035 58.213V64H265.379ZM276.506 64V54.694H278.108V56.044C278.366 55.636 278.72 55.279 279.17 54.973C279.62 54.667 280.205 54.514 280.925 54.514C281.261 54.514 281.603 54.571 281.951 54.685C282.305 54.799 282.629 54.97 282.923 55.198C283.217 55.426 283.445 55.705 283.607 56.035C283.895 55.579 284.285 55.213 284.777 54.937C285.269 54.655 285.824 54.514 286.442 54.514C286.766 54.514 287.105 54.565 287.459 54.667C287.813 54.763 288.14 54.937 288.44 55.189C288.746 55.435 288.995 55.78 289.187 56.224C289.379 56.662 289.475 57.226 289.475 57.916V64H287.801V58.078C287.801 57.514 287.711 57.079 287.531 56.773C287.351 56.461 287.114 56.242 286.82 56.116C286.532 55.99 286.223 55.927 285.893 55.927C285.605 55.927 285.299 55.984 284.975 56.098C284.651 56.212 284.375 56.404 284.147 56.674C283.919 56.944 283.805 57.313 283.805 57.781V64H282.149V57.592C282.149 57.226 282.05 56.92 281.852 56.674C281.66 56.428 281.417 56.242 281.123 56.116C280.835 55.99 280.547 55.927 280.259 55.927C279.941 55.927 279.62 55.99 279.296 56.116C278.978 56.242 278.708 56.443 278.486 56.719C278.27 56.989 278.162 57.343 278.162 57.781V64H276.506ZM294.619 64.18C294.019 64.18 293.488 64.075 293.026 63.865C292.564 63.649 292.201 63.34 291.937 62.938C291.679 62.536 291.55 62.05 291.55 61.48C291.55 60.448 291.91 59.68 292.63 59.176C293.35 58.672 294.505 58.402 296.095 58.366L297.76 58.321V57.592C297.76 57.022 297.589 56.572 297.247 56.242C296.905 55.906 296.374 55.738 295.654 55.738C295.12 55.744 294.649 55.87 294.241 56.116C293.839 56.362 293.578 56.764 293.458 57.322H291.991C292.027 56.716 292.198 56.206 292.504 55.792C292.81 55.372 293.236 55.054 293.782 54.838C294.334 54.622 294.985 54.514 295.735 54.514C296.545 54.514 297.217 54.628 297.751 54.856C298.291 55.084 298.693 55.42 298.957 55.864C299.227 56.308 299.362 56.854 299.362 57.502V64H297.94L297.823 62.254C297.463 62.98 297.004 63.484 296.446 63.766C295.894 64.042 295.285 64.18 294.619 64.18ZM295.123 62.983C295.435 62.983 295.744 62.926 296.05 62.812C296.362 62.698 296.647 62.545 296.905 62.353C297.163 62.155 297.367 61.936 297.517 61.696C297.673 61.45 297.754 61.198 297.76 60.94V59.347L296.374 59.374C295.666 59.386 295.072 59.458 294.592 59.59C294.118 59.722 293.761 59.929 293.521 60.211C293.287 60.493 293.17 60.862 293.17 61.318C293.17 61.84 293.35 62.248 293.71 62.542C294.076 62.836 294.547 62.983 295.123 62.983ZM302.205 64V54.694H303.789V56.485C303.945 56.041 304.164 55.675 304.446 55.387C304.728 55.093 305.049 54.874 305.409 54.73C305.775 54.586 306.153 54.514 306.543 54.514C306.681 54.514 306.816 54.523 306.948 54.541C307.08 54.559 307.182 54.589 307.254 54.631V56.242C307.164 56.2 307.047 56.173 306.903 56.161C306.765 56.143 306.648 56.134 306.552 56.134C306.18 56.11 305.832 56.134 305.508 56.206C305.184 56.272 304.899 56.389 304.653 56.557C304.407 56.725 304.212 56.947 304.068 57.223C303.93 57.493 303.861 57.823 303.861 58.213V64H302.205ZM317.356 64H315.592L312.676 59.329L310.84 61.228V64H309.184V50.626H310.84V59.347L315.214 54.694H317.122L313.765 58.24L317.356 64ZM320.11 59.734C320.11 60.322 320.206 60.856 320.398 61.336C320.596 61.81 320.893 62.188 321.289 62.47C321.691 62.752 322.192 62.893 322.792 62.893C323.386 62.893 323.896 62.755 324.322 62.479C324.754 62.203 325.03 61.804 325.15 61.282H326.725C326.611 61.912 326.359 62.443 325.969 62.875C325.579 63.307 325.108 63.634 324.556 63.856C324.004 64.072 323.428 64.18 322.828 64.18C321.958 64.18 321.193 63.991 320.533 63.613C319.873 63.235 319.357 62.692 318.985 61.984C318.613 61.276 318.427 60.427 318.427 59.437C318.427 58.459 318.595 57.601 318.931 56.863C319.267 56.125 319.753 55.549 320.389 55.135C321.031 54.721 321.802 54.514 322.702 54.514C323.578 54.514 324.319 54.703 324.925 55.081C325.531 55.459 325.99 55.993 326.302 56.683C326.62 57.367 326.779 58.18 326.779 59.122V59.734H320.11ZM320.119 58.609H325.177C325.177 58.075 325.087 57.595 324.907 57.169C324.727 56.737 324.451 56.398 324.079 56.152C323.713 55.9 323.251 55.774 322.693 55.774C322.111 55.774 321.628 55.915 321.244 56.197C320.866 56.473 320.581 56.83 320.389 57.268C320.203 57.7 320.113 58.147 320.119 58.609ZM333.494 55.909H331.397V61.696C331.397 62.026 331.43 62.269 331.496 62.425C331.568 62.575 331.685 62.671 331.847 62.713C332.015 62.755 332.243 62.776 332.531 62.776H333.548V63.892C333.434 63.934 333.26 63.97 333.026 64C332.798 64.03 332.513 64.045 332.171 64.045C331.529 64.045 331.031 63.958 330.677 63.784C330.323 63.61 330.074 63.352 329.93 63.01C329.792 62.668 329.723 62.248 329.723 61.75V55.909H328.211V54.694H329.768L330.173 51.985H331.397V54.685H333.494V55.909ZM335.885 66.898V54.694H337.541L337.559 56.314C337.667 56.122 337.805 55.921 337.973 55.711C338.147 55.501 338.357 55.306 338.603 55.126C338.855 54.946 339.146 54.799 339.476 54.685C339.812 54.571 340.193 54.514 340.619 54.514C341.363 54.514 342.017 54.685 342.581 55.027C343.151 55.363 343.595 55.879 343.913 56.575C344.231 57.271 344.39 58.153 344.39 59.221C344.39 60.289 344.234 61.192 343.922 61.93C343.616 62.662 343.172 63.22 342.59 63.604C342.008 63.988 341.306 64.18 340.484 64.18C340.07 64.18 339.701 64.12 339.377 64C339.059 63.886 338.78 63.736 338.54 63.55C338.306 63.358 338.108 63.154 337.946 62.938C337.79 62.722 337.661 62.515 337.559 62.317V66.898H335.885ZM340.169 62.884C340.937 62.884 341.564 62.593 342.05 62.011C342.536 61.423 342.779 60.511 342.779 59.275C342.779 58.213 342.557 57.37 342.113 56.746C341.669 56.122 341.021 55.81 340.169 55.81C339.305 55.81 338.651 56.131 338.207 56.773C337.763 57.409 337.541 58.243 337.541 59.275C337.541 59.941 337.64 60.547 337.838 61.093C338.036 61.639 338.33 62.074 338.72 62.398C339.11 62.722 339.593 62.884 340.169 62.884ZM348.921 64.117C348.417 64.117 348.009 64.048 347.697 63.91C347.391 63.772 347.154 63.586 346.986 63.352C346.824 63.118 346.713 62.851 346.653 62.551C346.599 62.245 346.572 61.93 346.572 61.606V50.626H348.21V61.444C348.21 61.912 348.3 62.263 348.48 62.497C348.666 62.731 348.924 62.86 349.254 62.884L349.758 62.893V63.973C349.62 64.015 349.476 64.048 349.326 64.072C349.176 64.102 349.041 64.117 348.921 64.117ZM354.42 64.18C353.82 64.18 353.289 64.075 352.827 63.865C352.365 63.649 352.002 63.34 351.738 62.938C351.48 62.536 351.351 62.05 351.351 61.48C351.351 60.448 351.711 59.68 352.431 59.176C353.151 58.672 354.306 58.402 355.896 58.366L357.561 58.321V57.592C357.561 57.022 357.39 56.572 357.048 56.242C356.706 55.906 356.175 55.738 355.455 55.738C354.921 55.744 354.45 55.87 354.042 56.116C353.64 56.362 353.379 56.764 353.259 57.322H351.792C351.828 56.716 351.999 56.206 352.305 55.792C352.611 55.372 353.037 55.054 353.583 54.838C354.135 54.622 354.786 54.514 355.536 54.514C356.346 54.514 357.018 54.628 357.552 54.856C358.092 55.084 358.494 55.42 358.758 55.864C359.028 56.308 359.163 56.854 359.163 57.502V64H357.741L357.624 62.254C357.264 62.98 356.805 63.484 356.247 63.766C355.695 64.042 355.086 64.18 354.42 64.18ZM354.924 62.983C355.236 62.983 355.545 62.926 355.851 62.812C356.163 62.698 356.448 62.545 356.706 62.353C356.964 62.155 357.168 61.936 357.318 61.696C357.474 61.45 357.555 61.198 357.561 60.94V59.347L356.175 59.374C355.467 59.386 354.873 59.458 354.393 59.59C353.919 59.722 353.562 59.929 353.322 60.211C353.088 60.493 352.971 60.862 352.971 61.318C352.971 61.84 353.151 62.248 353.511 62.542C353.877 62.836 354.348 62.983 354.924 62.983ZM365.714 54.514C366.38 54.514 366.98 54.643 367.514 54.901C368.048 55.153 368.483 55.513 368.819 55.981C369.161 56.449 369.374 57.001 369.458 57.637H367.982C367.928 57.313 367.802 57.016 367.604 56.746C367.412 56.476 367.157 56.26 366.839 56.098C366.521 55.936 366.149 55.855 365.723 55.855C364.925 55.855 364.277 56.143 363.779 56.719C363.281 57.295 363.032 58.177 363.032 59.365C363.032 60.439 363.26 61.3 363.716 61.948C364.178 62.59 364.856 62.911 365.75 62.911C366.176 62.911 366.545 62.83 366.857 62.668C367.175 62.5 367.43 62.281 367.622 62.011C367.814 61.735 367.937 61.441 367.991 61.129H369.44C369.362 61.753 369.152 62.293 368.81 62.749C368.468 63.205 368.03 63.559 367.496 63.811C366.968 64.057 366.374 64.18 365.714 64.18C364.88 64.18 364.139 63.997 363.491 63.631C362.849 63.265 362.345 62.725 361.979 62.011C361.613 61.297 361.43 60.421 361.43 59.383C361.43 58.411 361.595 57.562 361.925 56.836C362.261 56.104 362.747 55.534 363.383 55.126C364.025 54.718 364.802 54.514 365.714 54.514ZM372.897 59.734C372.897 60.322 372.993 60.856 373.185 61.336C373.383 61.81 373.68 62.188 374.076 62.47C374.478 62.752 374.979 62.893 375.579 62.893C376.173 62.893 376.683 62.755 377.109 62.479C377.541 62.203 377.817 61.804 377.937 61.282H379.512C379.398 61.912 379.146 62.443 378.756 62.875C378.366 63.307 377.895 63.634 377.343 63.856C376.791 64.072 376.215 64.18 375.615 64.18C374.745 64.18 373.98 63.991 373.32 63.613C372.66 63.235 372.144 62.692 371.772 61.984C371.4 61.276 371.214 60.427 371.214 59.437C371.214 58.459 371.382 57.601 371.718 56.863C372.054 56.125 372.54 55.549 373.176 55.135C373.818 54.721 374.589 54.514 375.489 54.514C376.365 54.514 377.106 54.703 377.712 55.081C378.318 55.459 378.777 55.993 379.089 56.683C379.407 57.367 379.566 58.18 379.566 59.122V59.734H372.897ZM372.906 58.609H377.964C377.964 58.075 377.874 57.595 377.694 57.169C377.514 56.737 377.238 56.398 376.866 56.152C376.5 55.9 376.038 55.774 375.48 55.774C374.898 55.774 374.415 55.915 374.031 56.197C373.653 56.473 373.368 56.83 373.176 57.268C372.99 57.7 372.9 58.147 372.906 58.609Z" fill="black"/>
<path d="M539.747 64L544.454 50.986H546.335L551.042 64H549.341L548.063 60.436H542.744L541.439 64H539.747ZM543.167 58.906H547.622L545.408 52.633L543.167 58.906ZM556.389 64.18C555.741 64.18 555.138 64.081 554.58 63.883C554.028 63.679 553.569 63.364 553.203 62.938C552.837 62.506 552.606 61.957 552.51 61.291H554.022C554.106 61.657 554.256 61.963 554.472 62.209C554.694 62.449 554.97 62.632 555.3 62.758C555.63 62.878 555.99 62.938 556.38 62.938C557.004 62.938 557.508 62.821 557.892 62.587C558.276 62.353 558.468 61.993 558.468 61.507C558.468 61.165 558.366 60.892 558.162 60.688C557.964 60.478 557.655 60.325 557.235 60.229L555.309 59.752C554.559 59.572 553.959 59.29 553.509 58.906C553.059 58.522 552.834 57.985 552.834 57.295C552.828 56.749 552.957 56.269 553.221 55.855C553.485 55.441 553.881 55.114 554.409 54.874C554.937 54.634 555.594 54.514 556.38 54.514C557.388 54.514 558.201 54.742 558.819 55.198C559.443 55.648 559.767 56.311 559.791 57.187H558.324C558.264 56.743 558.063 56.392 557.721 56.134C557.385 55.87 556.932 55.738 556.362 55.738C555.768 55.738 555.285 55.858 554.913 56.098C554.541 56.332 554.355 56.698 554.355 57.196C554.355 57.526 554.487 57.787 554.751 57.979C555.015 58.165 555.405 58.321 555.921 58.447L557.784 58.915C558.216 59.029 558.57 59.179 558.846 59.365C559.128 59.551 559.35 59.758 559.512 59.986C559.68 60.214 559.797 60.454 559.863 60.706C559.935 60.952 559.971 61.189 559.971 61.417C559.971 61.987 559.827 62.479 559.539 62.893C559.257 63.301 558.849 63.619 558.315 63.847C557.787 64.069 557.145 64.18 556.389 64.18ZM565.459 64.18C564.811 64.18 564.208 64.081 563.65 63.883C563.098 63.679 562.639 63.364 562.273 62.938C561.907 62.506 561.676 61.957 561.58 61.291H563.092C563.176 61.657 563.326 61.963 563.542 62.209C563.764 62.449 564.04 62.632 564.37 62.758C564.7 62.878 565.06 62.938 565.45 62.938C566.074 62.938 566.578 62.821 566.962 62.587C567.346 62.353 567.538 61.993 567.538 61.507C567.538 61.165 567.436 60.892 567.232 60.688C567.034 60.478 566.725 60.325 566.305 60.229L564.379 59.752C563.629 59.572 563.029 59.29 562.579 58.906C562.129 58.522 561.904 57.985 561.904 57.295C561.898 56.749 562.027 56.269 562.291 55.855C562.555 55.441 562.951 55.114 563.479 54.874C564.007 54.634 564.664 54.514 565.45 54.514C566.458 54.514 567.271 54.742 567.889 55.198C568.513 55.648 568.837 56.311 568.861 57.187H567.394C567.334 56.743 567.133 56.392 566.791 56.134C566.455 55.87 566.002 55.738 565.432 55.738C564.838 55.738 564.355 55.858 563.983 56.098C563.611 56.332 563.425 56.698 563.425 57.196C563.425 57.526 563.557 57.787 563.821 57.979C564.085 58.165 564.475 58.321 564.991 58.447L566.854 58.915C567.286 59.029 567.64 59.179 567.916 59.365C568.198 59.551 568.42 59.758 568.582 59.986C568.75 60.214 568.867 60.454 568.933 60.706C569.005 60.952 569.041 61.189 569.041 61.417C569.041 61.987 568.897 62.479 568.609 62.893C568.327 63.301 567.919 63.619 567.385 63.847C566.857 64.069 566.215 64.18 565.459 64.18ZM573.167 54.694V64H571.556V54.694H573.167ZM573.203 50.995V52.723H571.502V50.995H573.203ZM579.399 64.18C578.751 64.18 578.148 64.081 577.59 63.883C577.038 63.679 576.579 63.364 576.213 62.938C575.847 62.506 575.616 61.957 575.52 61.291H577.032C577.116 61.657 577.266 61.963 577.482 62.209C577.704 62.449 577.98 62.632 578.31 62.758C578.64 62.878 579 62.938 579.39 62.938C580.014 62.938 580.518 62.821 580.902 62.587C581.286 62.353 581.478 61.993 581.478 61.507C581.478 61.165 581.376 60.892 581.172 60.688C580.974 60.478 580.665 60.325 580.245 60.229L578.319 59.752C577.569 59.572 576.969 59.29 576.519 58.906C576.069 58.522 575.844 57.985 575.844 57.295C575.838 56.749 575.967 56.269 576.231 55.855C576.495 55.441 576.891 55.114 577.419 54.874C577.947 54.634 578.604 54.514 579.39 54.514C580.398 54.514 581.211 54.742 581.829 55.198C582.453 55.648 582.777 56.311 582.801 57.187H581.334C581.274 56.743 581.073 56.392 580.731 56.134C580.395 55.87 579.942 55.738 579.372 55.738C578.778 55.738 578.295 55.858 577.923 56.098C577.551 56.332 577.365 56.698 577.365 57.196C577.365 57.526 577.497 57.787 577.761 57.979C578.025 58.165 578.415 58.321 578.931 58.447L580.794 58.915C581.226 59.029 581.58 59.179 581.856 59.365C582.138 59.551 582.36 59.758 582.522 59.986C582.69 60.214 582.807 60.454 582.873 60.706C582.945 60.952 582.981 61.189 582.981 61.417C582.981 61.987 582.837 62.479 582.549 62.893C582.267 63.301 581.859 63.619 581.325 63.847C580.797 64.069 580.155 64.18 579.399 64.18ZM589.824 55.909H587.727V61.696C587.727 62.026 587.76 62.269 587.826 62.425C587.898 62.575 588.015 62.671 588.177 62.713C588.345 62.755 588.573 62.776 588.861 62.776H589.878V63.892C589.764 63.934 589.59 63.97 589.356 64C589.128 64.03 588.843 64.045 588.501 64.045C587.859 64.045 587.361 63.958 587.007 63.784C586.653 63.61 586.404 63.352 586.26 63.01C586.122 62.668 586.053 62.248 586.053 61.75V55.909H584.541V54.694H586.098L586.503 51.985H587.727V54.685H589.824V55.909ZM594.736 64.18C594.136 64.18 593.605 64.075 593.143 63.865C592.681 63.649 592.318 63.34 592.054 62.938C591.796 62.536 591.667 62.05 591.667 61.48C591.667 60.448 592.027 59.68 592.747 59.176C593.467 58.672 594.622 58.402 596.212 58.366L597.877 58.321V57.592C597.877 57.022 597.706 56.572 597.364 56.242C597.022 55.906 596.491 55.738 595.771 55.738C595.237 55.744 594.766 55.87 594.358 56.116C593.956 56.362 593.695 56.764 593.575 57.322H592.108C592.144 56.716 592.315 56.206 592.621 55.792C592.927 55.372 593.353 55.054 593.899 54.838C594.451 54.622 595.102 54.514 595.852 54.514C596.662 54.514 597.334 54.628 597.868 54.856C598.408 55.084 598.81 55.42 599.074 55.864C599.344 56.308 599.479 56.854 599.479 57.502V64H598.057L597.94 62.254C597.58 62.98 597.121 63.484 596.563 63.766C596.011 64.042 595.402 64.18 594.736 64.18ZM595.24 62.983C595.552 62.983 595.861 62.926 596.167 62.812C596.479 62.698 596.764 62.545 597.022 62.353C597.28 62.155 597.484 61.936 597.634 61.696C597.79 61.45 597.871 61.198 597.877 60.94V59.347L596.491 59.374C595.783 59.386 595.189 59.458 594.709 59.59C594.235 59.722 593.878 59.929 593.638 60.211C593.404 60.493 593.287 60.862 593.287 61.318C593.287 61.84 593.467 62.248 593.827 62.542C594.193 62.836 594.664 62.983 595.24 62.983ZM602.322 64V54.694H603.933V56.044C604.083 55.786 604.29 55.543 604.554 55.315C604.824 55.087 605.148 54.904 605.526 54.766C605.91 54.628 606.351 54.559 606.849 54.559C607.437 54.559 607.977 54.676 608.469 54.91C608.967 55.144 609.363 55.51 609.657 56.008C609.957 56.5 610.107 57.136 610.107 57.916V64H608.442V58.078C608.442 57.352 608.25 56.815 607.866 56.467C607.488 56.113 606.996 55.936 606.39 55.936C605.97 55.936 605.577 56.005 605.211 56.143C604.845 56.275 604.548 56.479 604.32 56.755C604.092 57.025 603.978 57.367 603.978 57.781V64H602.322ZM616.419 54.514C617.085 54.514 617.685 54.643 618.219 54.901C618.753 55.153 619.188 55.513 619.524 55.981C619.866 56.449 620.079 57.001 620.163 57.637H618.687C618.633 57.313 618.507 57.016 618.309 56.746C618.117 56.476 617.862 56.26 617.544 56.098C617.226 55.936 616.854 55.855 616.428 55.855C615.63 55.855 614.982 56.143 614.484 56.719C613.986 57.295 613.737 58.177 613.737 59.365C613.737 60.439 613.965 61.3 614.421 61.948C614.883 62.59 615.561 62.911 616.455 62.911C616.881 62.911 617.25 62.83 617.562 62.668C617.88 62.5 618.135 62.281 618.327 62.011C618.519 61.735 618.642 61.441 618.696 61.129H620.145C620.067 61.753 619.857 62.293 619.515 62.749C619.173 63.205 618.735 63.559 618.201 63.811C617.673 64.057 617.079 64.18 616.419 64.18C615.585 64.18 614.844 63.997 614.196 63.631C613.554 63.265 613.05 62.725 612.684 62.011C612.318 61.297 612.135 60.421 612.135 59.383C612.135 58.411 612.3 57.562 612.63 56.836C612.966 56.104 613.452 55.534 614.088 55.126C614.73 54.718 615.507 54.514 616.419 54.514ZM623.602 59.734C623.602 60.322 623.698 60.856 623.89 61.336C624.088 61.81 624.385 62.188 624.781 62.47C625.183 62.752 625.684 62.893 626.284 62.893C626.878 62.893 627.388 62.755 627.814 62.479C628.246 62.203 628.522 61.804 628.642 61.282H630.217C630.103 61.912 629.851 62.443 629.461 62.875C629.071 63.307 628.6 63.634 628.048 63.856C627.496 64.072 626.92 64.18 626.32 64.18C625.45 64.18 624.685 63.991 624.025 63.613C623.365 63.235 622.849 62.692 622.477 61.984C622.105 61.276 621.919 60.427 621.919 59.437C621.919 58.459 622.087 57.601 622.423 56.863C622.759 56.125 623.245 55.549 623.881 55.135C624.523 54.721 625.294 54.514 626.194 54.514C627.07 54.514 627.811 54.703 628.417 55.081C629.023 55.459 629.482 55.993 629.794 56.683C630.112 57.367 630.271 58.18 630.271 59.122V59.734H623.602ZM623.611 58.609H628.669C628.669 58.075 628.579 57.595 628.399 57.169C628.219 56.737 627.943 56.398 627.571 56.152C627.205 55.9 626.743 55.774 626.185 55.774C625.603 55.774 625.12 55.915 624.736 56.197C624.358 56.473 624.073 56.83 623.881 57.268C623.695 57.7 623.605 58.147 623.611 58.609ZM641.856 54.694V55.909H639.597V64H637.923V55.909H635.961V54.694H637.923V53.254C637.923 52.516 638.112 51.955 638.49 51.571C638.868 51.181 639.432 50.986 640.182 50.986H641.937L641.946 52.165H640.551C640.173 52.165 639.915 52.267 639.777 52.471C639.639 52.675 639.57 52.984 639.57 53.398V54.694H641.856ZM643.912 64V54.694H645.496V56.485C645.652 56.041 645.871 55.675 646.153 55.387C646.435 55.093 646.756 54.874 647.116 54.73C647.482 54.586 647.86 54.514 648.25 54.514C648.388 54.514 648.523 54.523 648.655 54.541C648.787 54.559 648.889 54.589 648.961 54.631V56.242C648.871 56.2 648.754 56.173 648.61 56.161C648.472 56.143 648.355 56.134 648.259 56.134C647.887 56.11 647.539 56.134 647.215 56.206C646.891 56.272 646.606 56.389 646.36 56.557C646.114 56.725 645.919 56.947 645.775 57.223C645.637 57.493 645.568 57.823 645.568 58.213V64H643.912ZM654.396 64.18C653.538 64.18 652.788 63.997 652.146 63.631C651.504 63.259 651.006 62.716 650.652 62.002C650.298 61.288 650.121 60.415 650.121 59.383C650.121 58.411 650.286 57.559 650.616 56.827C650.946 56.095 651.429 55.528 652.065 55.126C652.707 54.718 653.484 54.514 654.396 54.514C655.254 54.514 655.998 54.703 656.628 55.081C657.264 55.453 657.756 56.002 658.104 56.728C658.452 57.454 658.626 58.339 658.626 59.383C658.626 60.331 658.464 61.165 658.14 61.885C657.822 62.605 657.348 63.169 656.718 63.577C656.094 63.979 655.32 64.18 654.396 64.18ZM654.396 62.866C654.954 62.866 655.425 62.725 655.809 62.443C656.193 62.161 656.484 61.756 656.682 61.228C656.88 60.7 656.979 60.073 656.979 59.347C656.979 58.681 656.892 58.084 656.718 57.556C656.544 57.022 656.265 56.599 655.881 56.287C655.503 55.975 655.008 55.819 654.396 55.819C653.832 55.819 653.355 55.96 652.965 56.242C652.575 56.518 652.278 56.92 652.074 57.448C651.876 57.976 651.777 58.609 651.777 59.347C651.777 60.001 651.867 60.595 652.047 61.129C652.227 61.663 652.509 62.086 652.893 62.398C653.277 62.71 653.778 62.866 654.396 62.866ZM660.805 64V54.694H662.407V56.044C662.665 55.636 663.019 55.279 663.469 54.973C663.919 54.667 664.504 54.514 665.224 54.514C665.56 54.514 665.902 54.571 666.25 54.685C666.604 54.799 666.928 54.97 667.222 55.198C667.516 55.426 667.744 55.705 667.906 56.035C668.194 55.579 668.584 55.213 669.076 54.937C669.568 54.655 670.123 54.514 670.741 54.514C671.065 54.514 671.404 54.565 671.758 54.667C672.112 54.763 672.439 54.937 672.739 55.189C673.045 55.435 673.294 55.78 673.486 56.224C673.678 56.662 673.774 57.226 673.774 57.916V64H672.1V58.078C672.1 57.514 672.01 57.079 671.83 56.773C671.65 56.461 671.413 56.242 671.119 56.116C670.831 55.99 670.522 55.927 670.192 55.927C669.904 55.927 669.598 55.984 669.274 56.098C668.95 56.212 668.674 56.404 668.446 56.674C668.218 56.944 668.104 57.313 668.104 57.781V64H666.448V57.592C666.448 57.226 666.349 56.92 666.151 56.674C665.959 56.428 665.716 56.242 665.422 56.116C665.134 55.99 664.846 55.927 664.558 55.927C664.24 55.927 663.919 55.99 663.595 56.116C663.277 56.242 663.007 56.443 662.785 56.719C662.569 56.989 662.461 57.343 662.461 57.781V64H660.805ZM683.998 64.18C683.14 64.18 682.39 63.997 681.748 63.631C681.106 63.259 680.608 62.716 680.254 62.002C679.9 61.288 679.723 60.415 679.723 59.383C679.723 58.411 679.888 57.559 680.218 56.827C680.548 56.095 681.031 55.528 681.667 55.126C682.309 54.718 683.086 54.514 683.998 54.514C684.856 54.514 685.6 54.703 686.23 55.081C686.866 55.453 687.358 56.002 687.706 56.728C688.054 57.454 688.228 58.339 688.228 59.383C688.228 60.331 688.066 61.165 687.742 61.885C687.424 62.605 686.95 63.169 686.32 63.577C685.696 63.979 684.922 64.18 683.998 64.18ZM683.998 62.866C684.556 62.866 685.027 62.725 685.411 62.443C685.795 62.161 686.086 61.756 686.284 61.228C686.482 60.7 686.581 60.073 686.581 59.347C686.581 58.681 686.494 58.084 686.32 57.556C686.146 57.022 685.867 56.599 685.483 56.287C685.105 55.975 684.61 55.819 683.998 55.819C683.434 55.819 682.957 55.96 682.567 56.242C682.177 56.518 681.88 56.92 681.676 57.448C681.478 57.976 681.379 58.609 681.379 59.347C681.379 60.001 681.469 60.595 681.649 61.129C681.829 61.663 682.111 62.086 682.495 62.398C682.879 62.71 683.38 62.866 683.998 62.866ZM693.686 64.18C693.2 64.174 692.741 64.105 692.309 63.973C691.883 63.835 691.505 63.634 691.175 63.37C690.845 63.106 690.584 62.779 690.392 62.389C690.206 61.993 690.113 61.534 690.113 61.012V54.694H691.778V60.841C691.778 61.447 691.964 61.939 692.336 62.317C692.714 62.695 693.281 62.884 694.037 62.884C694.721 62.884 695.27 62.707 695.684 62.353C696.104 61.993 696.314 61.459 696.314 60.751V54.694H697.97V64H696.647L696.476 62.218C696.362 62.686 696.167 63.064 695.891 63.352C695.621 63.64 695.294 63.853 694.91 63.991C694.532 64.123 694.124 64.186 693.686 64.18ZM700.672 64V54.694H702.256V56.485C702.412 56.041 702.631 55.675 702.913 55.387C703.195 55.093 703.516 54.874 703.876 54.73C704.242 54.586 704.62 54.514 705.01 54.514C705.148 54.514 705.283 54.523 705.415 54.541C705.547 54.559 705.649 54.589 705.721 54.631V56.242C705.631 56.2 705.514 56.173 705.37 56.161C705.232 56.143 705.115 56.134 705.019 56.134C704.647 56.11 704.299 56.134 703.975 56.206C703.651 56.272 703.366 56.389 703.12 56.557C702.874 56.725 702.679 56.947 702.535 57.223C702.397 57.493 702.328 57.823 702.328 58.213V64H700.672ZM716.544 55.909H714.447V61.696C714.447 62.026 714.48 62.269 714.546 62.425C714.618 62.575 714.735 62.671 714.897 62.713C715.065 62.755 715.293 62.776 715.581 62.776H716.598V63.892C716.484 63.934 716.31 63.97 716.076 64C715.848 64.03 715.563 64.045 715.221 64.045C714.579 64.045 714.081 63.958 713.727 63.784C713.373 63.61 713.124 63.352 712.98 63.01C712.842 62.668 712.773 62.248 712.773 61.75V55.909H711.261V54.694H712.818L713.223 51.985H714.447V54.685H716.544V55.909ZM719.878 59.734C719.878 60.322 719.974 60.856 720.166 61.336C720.364 61.81 720.661 62.188 721.057 62.47C721.459 62.752 721.96 62.893 722.56 62.893C723.154 62.893 723.664 62.755 724.09 62.479C724.522 62.203 724.798 61.804 724.918 61.282H726.493C726.379 61.912 726.127 62.443 725.737 62.875C725.347 63.307 724.876 63.634 724.324 63.856C723.772 64.072 723.196 64.18 722.596 64.18C721.726 64.18 720.961 63.991 720.301 63.613C719.641 63.235 719.125 62.692 718.753 61.984C718.381 61.276 718.195 60.427 718.195 59.437C718.195 58.459 718.363 57.601 718.699 56.863C719.035 56.125 719.521 55.549 720.157 55.135C720.799 54.721 721.57 54.514 722.47 54.514C723.346 54.514 724.087 54.703 724.693 55.081C725.299 55.459 725.758 55.993 726.07 56.683C726.388 57.367 726.547 58.18 726.547 59.122V59.734H719.878ZM719.887 58.609H724.945C724.945 58.075 724.855 57.595 724.675 57.169C724.495 56.737 724.219 56.398 723.847 56.152C723.481 55.9 723.019 55.774 722.461 55.774C721.879 55.774 721.396 55.915 721.012 56.197C720.634 56.473 720.349 56.83 720.157 57.268C719.971 57.7 719.881 58.147 719.887 58.609ZM731.301 64.18C730.701 64.18 730.17 64.075 729.708 63.865C729.246 63.649 728.883 63.34 728.619 62.938C728.361 62.536 728.232 62.05 728.232 61.48C728.232 60.448 728.592 59.68 729.312 59.176C730.032 58.672 731.187 58.402 732.777 58.366L734.442 58.321V57.592C734.442 57.022 734.271 56.572 733.929 56.242C733.587 55.906 733.056 55.738 732.336 55.738C731.802 55.744 731.331 55.87 730.923 56.116C730.521 56.362 730.26 56.764 730.14 57.322H728.673C728.709 56.716 728.88 56.206 729.186 55.792C729.492 55.372 729.918 55.054 730.464 54.838C731.016 54.622 731.667 54.514 732.417 54.514C733.227 54.514 733.899 54.628 734.433 54.856C734.973 55.084 735.375 55.42 735.639 55.864C735.909 56.308 736.044 56.854 736.044 57.502V64H734.622L734.505 62.254C734.145 62.98 733.686 63.484 733.128 63.766C732.576 64.042 731.967 64.18 731.301 64.18ZM731.805 62.983C732.117 62.983 732.426 62.926 732.732 62.812C733.044 62.698 733.329 62.545 733.587 62.353C733.845 62.155 734.049 61.936 734.199 61.696C734.355 61.45 734.436 61.198 734.442 60.94V59.347L733.056 59.374C732.348 59.386 731.754 59.458 731.274 59.59C730.8 59.722 730.443 59.929 730.203 60.211C729.969 60.493 729.852 60.862 729.852 61.318C729.852 61.84 730.032 62.248 730.392 62.542C730.758 62.836 731.229 62.983 731.805 62.983ZM738.887 64V54.694H740.489V56.044C740.747 55.636 741.101 55.279 741.551 54.973C742.001 54.667 742.586 54.514 743.306 54.514C743.642 54.514 743.984 54.571 744.332 54.685C744.686 54.799 745.01 54.97 745.304 55.198C745.598 55.426 745.826 55.705 745.988 56.035C746.276 55.579 746.666 55.213 747.158 54.937C747.65 54.655 748.205 54.514 748.823 54.514C749.147 54.514 749.486 54.565 749.84 54.667C750.194 54.763 750.521 54.937 750.821 55.189C751.127 55.435 751.376 55.78 751.568 56.224C751.76 56.662 751.856 57.226 751.856 57.916V64H750.182V58.078C750.182 57.514 750.092 57.079 749.912 56.773C749.732 56.461 749.495 56.242 749.201 56.116C748.913 55.99 748.604 55.927 748.274 55.927C747.986 55.927 747.68 55.984 747.356 56.098C747.032 56.212 746.756 56.404 746.528 56.674C746.3 56.944 746.186 57.313 746.186 57.781V64H744.53V57.592C744.53 57.226 744.431 56.92 744.233 56.674C744.041 56.428 743.798 56.242 743.504 56.116C743.216 55.99 742.928 55.927 742.64 55.927C742.322 55.927 742.001 55.99 741.677 56.116C741.359 56.242 741.089 56.443 740.867 56.719C740.651 56.989 740.543 57.343 740.543 57.781V64H738.887ZM762.08 64.18C761.222 64.18 760.472 63.997 759.83 63.631C759.188 63.259 758.69 62.716 758.336 62.002C757.982 61.288 757.805 60.415 757.805 59.383C757.805 58.411 757.97 57.559 758.3 56.827C758.63 56.095 759.113 55.528 759.749 55.126C760.391 54.718 761.168 54.514 762.08 54.514C762.938 54.514 763.682 54.703 764.312 55.081C764.948 55.453 765.44 56.002 765.788 56.728C766.136 57.454 766.31 58.339 766.31 59.383C766.31 60.331 766.148 61.165 765.824 61.885C765.506 62.605 765.032 63.169 764.402 63.577C763.778 63.979 763.004 64.18 762.08 64.18ZM762.08 62.866C762.638 62.866 763.109 62.725 763.493 62.443C763.877 62.161 764.168 61.756 764.366 61.228C764.564 60.7 764.663 60.073 764.663 59.347C764.663 58.681 764.576 58.084 764.402 57.556C764.228 57.022 763.949 56.599 763.565 56.287C763.187 55.975 762.692 55.819 762.08 55.819C761.516 55.819 761.039 55.96 760.649 56.242C760.259 56.518 759.962 56.92 759.758 57.448C759.56 57.976 759.461 58.609 759.461 59.347C759.461 60.001 759.551 60.595 759.731 61.129C759.911 61.663 760.193 62.086 760.577 62.398C760.961 62.71 761.462 62.866 762.08 62.866ZM773.375 54.694V55.909H771.116V64H769.442V55.909H767.48V54.694H769.442V53.254C769.442 52.516 769.631 51.955 770.009 51.571C770.387 51.181 770.951 50.986 771.701 50.986H773.456L773.465 52.165H772.07C771.692 52.165 771.434 52.267 771.296 52.471C771.158 52.675 771.089 52.984 771.089 53.398V54.694H773.375ZM780.54 59.734C780.54 60.322 780.636 60.856 780.828 61.336C781.026 61.81 781.323 62.188 781.719 62.47C782.121 62.752 782.622 62.893 783.222 62.893C783.816 62.893 784.326 62.755 784.752 62.479C785.184 62.203 785.46 61.804 785.58 61.282H787.155C787.041 61.912 786.789 62.443 786.399 62.875C786.009 63.307 785.538 63.634 784.986 63.856C784.434 64.072 783.858 64.18 783.258 64.18C782.388 64.18 781.623 63.991 780.963 63.613C780.303 63.235 779.787 62.692 779.415 61.984C779.043 61.276 778.857 60.427 778.857 59.437C778.857 58.459 779.025 57.601 779.361 56.863C779.697 56.125 780.183 55.549 780.819 55.135C781.461 54.721 782.232 54.514 783.132 54.514C784.008 54.514 784.749 54.703 785.355 55.081C785.961 55.459 786.42 55.993 786.732 56.683C787.05 57.367 787.209 58.18 787.209 59.122V59.734H780.54ZM780.549 58.609H785.607C785.607 58.075 785.517 57.595 785.337 57.169C785.157 56.737 784.881 56.398 784.509 56.152C784.143 55.9 783.681 55.774 783.123 55.774C782.541 55.774 782.058 55.915 781.674 56.197C781.296 56.473 781.011 56.83 780.819 57.268C780.633 57.7 780.543 58.147 780.549 58.609ZM797.069 64H795.26L792.551 60.355L789.86 64H788.033L791.624 59.167L788.321 54.694H790.139L792.551 57.961L794.972 54.694H796.79L793.478 59.167L797.069 64ZM799.004 66.898V54.694H800.66L800.678 56.314C800.786 56.122 800.924 55.921 801.092 55.711C801.266 55.501 801.476 55.306 801.722 55.126C801.974 54.946 802.265 54.799 802.595 54.685C802.931 54.571 803.312 54.514 803.738 54.514C804.482 54.514 805.136 54.685 805.7 55.027C806.27 55.363 806.714 55.879 807.032 56.575C807.35 57.271 807.509 58.153 807.509 59.221C807.509 60.289 807.353 61.192 807.041 61.93C806.735 62.662 806.291 63.22 805.709 63.604C805.127 63.988 804.425 64.18 803.603 64.18C803.189 64.18 802.82 64.12 802.496 64C802.178 63.886 801.899 63.736 801.659 63.55C801.425 63.358 801.227 63.154 801.065 62.938C800.909 62.722 800.78 62.515 800.678 62.317V66.898H799.004ZM803.288 62.884C804.056 62.884 804.683 62.593 805.169 62.011C805.655 61.423 805.898 60.511 805.898 59.275C805.898 58.213 805.676 57.37 805.232 56.746C804.788 56.122 804.14 55.81 803.288 55.81C802.424 55.81 801.77 56.131 801.326 56.773C800.882 57.409 800.66 58.243 800.66 59.275C800.66 59.941 800.759 60.547 800.957 61.093C801.155 61.639 801.449 62.074 801.839 62.398C802.229 62.722 802.712 62.884 803.288 62.884ZM810.879 59.734C810.879 60.322 810.975 60.856 811.167 61.336C811.365 61.81 811.662 62.188 812.058 62.47C812.46 62.752 812.961 62.893 813.561 62.893C814.155 62.893 814.665 62.755 815.091 62.479C815.523 62.203 815.799 61.804 815.919 61.282H817.494C817.38 61.912 817.128 62.443 816.738 62.875C816.348 63.307 815.877 63.634 815.325 63.856C814.773 64.072 814.197 64.18 813.597 64.18C812.727 64.18 811.962 63.991 811.302 63.613C810.642 63.235 810.126 62.692 809.754 61.984C809.382 61.276 809.196 60.427 809.196 59.437C809.196 58.459 809.364 57.601 809.7 56.863C810.036 56.125 810.522 55.549 811.158 55.135C811.8 54.721 812.571 54.514 813.471 54.514C814.347 54.514 815.088 54.703 815.694 55.081C816.3 55.459 816.759 55.993 817.071 56.683C817.389 57.367 817.548 58.18 817.548 59.122V59.734H810.879ZM810.888 58.609H815.946C815.946 58.075 815.856 57.595 815.676 57.169C815.496 56.737 815.22 56.398 814.848 56.152C814.482 55.9 814.02 55.774 813.462 55.774C812.88 55.774 812.397 55.915 812.013 56.197C811.635 56.473 811.35 56.83 811.158 57.268C810.972 57.7 810.882 58.147 810.888 58.609ZM819.834 64V54.694H821.418V56.485C821.574 56.041 821.793 55.675 822.075 55.387C822.357 55.093 822.678 54.874 823.038 54.73C823.404 54.586 823.782 54.514 824.172 54.514C824.31 54.514 824.445 54.523 824.577 54.541C824.709 54.559 824.811 54.589 824.883 54.631V56.242C824.793 56.2 824.676 56.173 824.532 56.161C824.394 56.143 824.277 56.134 824.181 56.134C823.809 56.11 823.461 56.134 823.137 56.206C822.813 56.272 822.528 56.389 822.282 56.557C822.036 56.725 821.841 56.947 821.697 57.223C821.559 57.493 821.49 57.823 821.49 58.213V64H819.834ZM831.751 55.909H829.654V61.696C829.654 62.026 829.687 62.269 829.753 62.425C829.825 62.575 829.942 62.671 830.104 62.713C830.272 62.755 830.5 62.776 830.788 62.776H831.805V63.892C831.691 63.934 831.517 63.97 831.283 64C831.055 64.03 830.77 64.045 830.428 64.045C829.786 64.045 829.288 63.958 828.934 63.784C828.58 63.61 828.331 63.352 828.187 63.01C828.049 62.668 827.98 62.248 827.98 61.75V55.909H826.468V54.694H828.025L828.43 51.985H829.654V54.685H831.751V55.909ZM837.41 64.18C836.762 64.18 836.159 64.081 835.601 63.883C835.049 63.679 834.59 63.364 834.224 62.938C833.858 62.506 833.627 61.957 833.531 61.291H835.043C835.127 61.657 835.277 61.963 835.493 62.209C835.715 62.449 835.991 62.632 836.321 62.758C836.651 62.878 837.011 62.938 837.401 62.938C838.025 62.938 838.529 62.821 838.913 62.587C839.297 62.353 839.489 61.993 839.489 61.507C839.489 61.165 839.387 60.892 839.183 60.688C838.985 60.478 838.676 60.325 838.256 60.229L836.33 59.752C835.58 59.572 834.98 59.29 834.53 58.906C834.08 58.522 833.855 57.985 833.855 57.295C833.849 56.749 833.978 56.269 834.242 55.855C834.506 55.441 834.902 55.114 835.43 54.874C835.958 54.634 836.615 54.514 837.401 54.514C838.409 54.514 839.222 54.742 839.84 55.198C840.464 55.648 840.788 56.311 840.812 57.187H839.345C839.285 56.743 839.084 56.392 838.742 56.134C838.406 55.87 837.953 55.738 837.383 55.738C836.789 55.738 836.306 55.858 835.934 56.098C835.562 56.332 835.376 56.698 835.376 57.196C835.376 57.526 835.508 57.787 835.772 57.979C836.036 58.165 836.426 58.321 836.942 58.447L838.805 58.915C839.237 59.029 839.591 59.179 839.867 59.365C840.149 59.551 840.371 59.758 840.533 59.986C840.701 60.214 840.818 60.454 840.884 60.706C840.956 60.952 840.992 61.189 840.992 61.417C840.992 61.987 840.848 62.479 840.56 62.893C840.278 63.301 839.87 63.619 839.336 63.847C838.808 64.069 838.166 64.18 837.41 64.18Z" fill="black"/>
<path d="M1012.51 50.806C1013.43 50.806 1014.24 50.998 1014.95 51.382C1015.65 51.76 1016.22 52.267 1016.66 52.903C1017.09 53.539 1017.34 54.238 1017.42 55H1015.65C1015.55 54.49 1015.37 54.028 1015.1 53.614C1014.83 53.2 1014.48 52.87 1014.04 52.624C1013.6 52.378 1013.07 52.255 1012.46 52.255C1011.68 52.255 1011.01 52.441 1010.46 52.813C1009.92 53.179 1009.51 53.746 1009.23 54.514C1008.96 55.282 1008.82 56.266 1008.82 57.466C1008.82 59.278 1009.13 60.61 1009.74 61.462C1010.37 62.308 1011.27 62.731 1012.46 62.731C1013.07 62.731 1013.6 62.602 1014.04 62.344C1014.48 62.086 1014.83 61.741 1015.1 61.309C1015.37 60.877 1015.55 60.409 1015.65 59.905H1017.42C1017.36 60.457 1017.21 60.991 1016.97 61.507C1016.74 62.017 1016.43 62.473 1016.03 62.875C1015.62 63.277 1015.13 63.595 1014.54 63.829C1013.96 64.063 1013.28 64.18 1012.51 64.18C1011.34 64.18 1010.34 63.913 1009.51 63.379C1008.69 62.845 1008.06 62.077 1007.62 61.075C1007.19 60.073 1006.97 58.864 1006.97 57.448C1006.97 56.038 1007.19 54.838 1007.62 53.848C1008.05 52.858 1008.68 52.105 1009.5 51.589C1010.33 51.067 1011.33 50.806 1012.51 50.806ZM1023.45 64.18C1022.59 64.18 1021.84 63.997 1021.2 63.631C1020.56 63.259 1020.06 62.716 1019.71 62.002C1019.35 61.288 1019.18 60.415 1019.18 59.383C1019.18 58.411 1019.34 57.559 1019.67 56.827C1020 56.095 1020.48 55.528 1021.12 55.126C1021.76 54.718 1022.54 54.514 1023.45 54.514C1024.31 54.514 1025.05 54.703 1025.68 55.081C1026.32 55.453 1026.81 56.002 1027.16 56.728C1027.51 57.454 1027.68 58.339 1027.68 59.383C1027.68 60.331 1027.52 61.165 1027.2 61.885C1026.88 62.605 1026.4 63.169 1025.77 63.577C1025.15 63.979 1024.38 64.18 1023.45 64.18ZM1023.45 62.866C1024.01 62.866 1024.48 62.725 1024.86 62.443C1025.25 62.161 1025.54 61.756 1025.74 61.228C1025.94 60.7 1026.03 60.073 1026.03 59.347C1026.03 58.681 1025.95 58.084 1025.77 57.556C1025.6 57.022 1025.32 56.599 1024.94 56.287C1024.56 55.975 1024.06 55.819 1023.45 55.819C1022.89 55.819 1022.41 55.96 1022.02 56.242C1021.63 56.518 1021.33 56.92 1021.13 57.448C1020.93 57.976 1020.83 58.609 1020.83 59.347C1020.83 60.001 1020.92 60.595 1021.1 61.129C1021.28 61.663 1021.56 62.086 1021.95 62.398C1022.33 62.71 1022.83 62.866 1023.45 62.866ZM1029.86 64V54.694H1031.47V56.044C1031.62 55.786 1031.83 55.543 1032.09 55.315C1032.36 55.087 1032.69 54.904 1033.06 54.766C1033.45 54.628 1033.89 54.559 1034.39 54.559C1034.97 54.559 1035.51 54.676 1036.01 54.91C1036.5 55.144 1036.9 55.51 1037.19 56.008C1037.49 56.5 1037.64 57.136 1037.64 57.916V64H1035.98V58.078C1035.98 57.352 1035.79 56.815 1035.4 56.467C1035.03 56.113 1034.53 55.936 1033.93 55.936C1033.51 55.936 1033.11 56.005 1032.75 56.143C1032.38 56.275 1032.09 56.479 1031.86 56.755C1031.63 57.025 1031.52 57.367 1031.52 57.781V64H1029.86ZM1044.54 55.909H1042.44V61.696C1042.44 62.026 1042.47 62.269 1042.54 62.425C1042.61 62.575 1042.73 62.671 1042.89 62.713C1043.06 62.755 1043.29 62.776 1043.57 62.776H1044.59V63.892C1044.48 63.934 1044.3 63.97 1044.07 64C1043.84 64.03 1043.56 64.045 1043.21 64.045C1042.57 64.045 1042.07 63.958 1041.72 63.784C1041.37 63.61 1041.12 63.352 1040.97 63.01C1040.83 62.668 1040.77 62.248 1040.77 61.75V55.909H1039.25V54.694H1040.81L1041.22 51.985H1042.44V54.685H1044.54V55.909ZM1047.87 59.734C1047.87 60.322 1047.97 60.856 1048.16 61.336C1048.36 61.81 1048.65 62.188 1049.05 62.47C1049.45 62.752 1049.95 62.893 1050.55 62.893C1051.15 62.893 1051.66 62.755 1052.08 62.479C1052.51 62.203 1052.79 61.804 1052.91 61.282H1054.48C1054.37 61.912 1054.12 62.443 1053.73 62.875C1053.34 63.307 1052.87 63.634 1052.32 63.856C1051.76 64.072 1051.19 64.18 1050.59 64.18C1049.72 64.18 1048.95 63.991 1048.29 63.613C1047.63 63.235 1047.12 62.692 1046.74 61.984C1046.37 61.276 1046.19 60.427 1046.19 59.437C1046.19 58.459 1046.35 57.601 1046.69 56.863C1047.03 56.125 1047.51 55.549 1048.15 55.135C1048.79 54.721 1049.56 54.514 1050.46 54.514C1051.34 54.514 1052.08 54.703 1052.68 55.081C1053.29 55.459 1053.75 55.993 1054.06 56.683C1054.38 57.367 1054.54 58.18 1054.54 59.122V59.734H1047.87ZM1047.88 58.609H1052.94C1052.94 58.075 1052.85 57.595 1052.67 57.169C1052.49 56.737 1052.21 56.398 1051.84 56.152C1051.47 55.9 1051.01 55.774 1050.45 55.774C1049.87 55.774 1049.39 55.915 1049 56.197C1048.63 56.473 1048.34 56.83 1048.15 57.268C1047.96 57.7 1047.87 58.147 1047.88 58.609ZM1056.82 64V54.694H1058.44V56.044C1058.59 55.786 1058.79 55.543 1059.06 55.315C1059.33 55.087 1059.65 54.904 1060.03 54.766C1060.41 54.628 1060.85 54.559 1061.35 54.559C1061.94 54.559 1062.48 54.676 1062.97 54.91C1063.47 55.144 1063.87 55.51 1064.16 56.008C1064.46 56.5 1064.61 57.136 1064.61 57.916V64H1062.94V58.078C1062.94 57.352 1062.75 56.815 1062.37 56.467C1061.99 56.113 1061.5 55.936 1060.89 55.936C1060.47 55.936 1060.08 56.005 1059.71 56.143C1059.35 56.275 1059.05 56.479 1058.82 56.755C1058.59 57.025 1058.48 57.367 1058.48 57.781V64H1056.82ZM1071.5 55.909H1069.4V61.696C1069.4 62.026 1069.44 62.269 1069.5 62.425C1069.58 62.575 1069.69 62.671 1069.85 62.713C1070.02 62.755 1070.25 62.776 1070.54 62.776H1071.56V63.892C1071.44 63.934 1071.27 63.97 1071.03 64C1070.81 64.03 1070.52 64.045 1070.18 64.045C1069.54 64.045 1069.04 63.958 1068.68 63.784C1068.33 63.61 1068.08 63.352 1067.94 63.01C1067.8 62.668 1067.73 62.248 1067.73 61.75V55.909H1066.22V54.694H1067.78L1068.18 51.985H1069.4V54.685H1071.5V55.909ZM1079.84 54.694V64H1078.23V54.694H1079.84ZM1079.88 50.995V52.723H1078.18V50.995H1079.88ZM1082.88 64V54.694H1084.49V56.044C1084.64 55.786 1084.84 55.543 1085.11 55.315C1085.38 55.087 1085.7 54.904 1086.08 54.766C1086.46 54.628 1086.9 54.559 1087.4 54.559C1087.99 54.559 1088.53 54.676 1089.02 54.91C1089.52 55.144 1089.92 55.51 1090.21 56.008C1090.51 56.5 1090.66 57.136 1090.66 57.916V64H1089V58.078C1089 57.352 1088.8 56.815 1088.42 56.467C1088.04 56.113 1087.55 55.936 1086.94 55.936C1086.52 55.936 1086.13 56.005 1085.76 56.143C1085.4 56.275 1085.1 56.479 1084.87 56.755C1084.65 57.025 1084.53 57.367 1084.53 57.781V64H1082.88ZM1096.97 54.514C1097.64 54.514 1098.24 54.643 1098.77 54.901C1099.31 55.153 1099.74 55.513 1100.08 55.981C1100.42 56.449 1100.63 57.001 1100.72 57.637H1099.24C1099.19 57.313 1099.06 57.016 1098.86 56.746C1098.67 56.476 1098.41 56.26 1098.1 56.098C1097.78 55.936 1097.41 55.855 1096.98 55.855C1096.18 55.855 1095.53 56.143 1095.04 56.719C1094.54 57.295 1094.29 58.177 1094.29 59.365C1094.29 60.439 1094.52 61.3 1094.97 61.948C1095.44 62.59 1096.11 62.911 1097.01 62.911C1097.43 62.911 1097.8 62.83 1098.11 62.668C1098.43 62.5 1098.69 62.281 1098.88 62.011C1099.07 61.735 1099.19 61.441 1099.25 61.129H1100.7C1100.62 61.753 1100.41 62.293 1100.07 62.749C1099.73 63.205 1099.29 63.559 1098.75 63.811C1098.23 64.057 1097.63 64.18 1096.97 64.18C1096.14 64.18 1095.4 63.997 1094.75 63.631C1094.11 63.265 1093.6 62.725 1093.24 62.011C1092.87 61.297 1092.69 60.421 1092.69 59.383C1092.69 58.411 1092.85 57.562 1093.18 56.836C1093.52 56.104 1094 55.534 1094.64 55.126C1095.28 54.718 1096.06 54.514 1096.97 54.514ZM1105.32 64.117C1104.81 64.117 1104.4 64.048 1104.09 63.91C1103.79 63.772 1103.55 63.586 1103.38 63.352C1103.22 63.118 1103.11 62.851 1103.05 62.551C1102.99 62.245 1102.97 61.93 1102.97 61.606V50.626H1104.6V61.444C1104.6 61.912 1104.69 62.263 1104.87 62.497C1105.06 62.731 1105.32 62.86 1105.65 62.884L1106.15 62.893V63.973C1106.01 64.015 1105.87 64.048 1105.72 64.072C1105.57 64.102 1105.44 64.117 1105.32 64.117ZM1111.45 64.18C1110.96 64.174 1110.5 64.105 1110.07 63.973C1109.65 63.835 1109.27 63.634 1108.94 63.37C1108.61 63.106 1108.35 62.779 1108.16 62.389C1107.97 61.993 1107.88 61.534 1107.88 61.012V54.694H1109.54V60.841C1109.54 61.447 1109.73 61.939 1110.1 62.317C1110.48 62.695 1111.04 62.884 1111.8 62.884C1112.48 62.884 1113.03 62.707 1113.45 62.353C1113.87 61.993 1114.08 61.459 1114.08 60.751V54.694H1115.73V64H1114.41L1114.24 62.218C1114.13 62.686 1113.93 63.064 1113.65 63.352C1113.38 63.64 1113.06 63.853 1112.67 63.991C1112.3 64.123 1111.89 64.186 1111.45 64.18ZM1121.69 64.18C1120.48 64.18 1119.52 63.766 1118.82 62.938C1118.11 62.11 1117.75 60.901 1117.75 59.311C1117.75 58.345 1117.9 57.502 1118.18 56.782C1118.47 56.062 1118.89 55.504 1119.46 55.108C1120.02 54.712 1120.72 54.514 1121.56 54.514C1122.01 54.514 1122.4 54.571 1122.74 54.685C1123.09 54.799 1123.39 54.943 1123.64 55.117C1123.89 55.291 1124.1 55.471 1124.25 55.657C1124.41 55.843 1124.53 56.014 1124.61 56.17V50.626H1126.29V64H1125.02L1124.84 62.092C1124.78 62.272 1124.68 62.482 1124.55 62.722C1124.42 62.956 1124.23 63.187 1123.99 63.415C1123.75 63.637 1123.44 63.82 1123.06 63.964C1122.69 64.108 1122.23 64.18 1121.69 64.18ZM1121.98 62.902C1122.93 62.902 1123.6 62.617 1124 62.047C1124.41 61.471 1124.61 60.532 1124.61 59.23C1124.61 58.504 1124.51 57.886 1124.33 57.376C1124.16 56.866 1123.88 56.479 1123.51 56.215C1123.13 55.945 1122.64 55.81 1122.02 55.81C1121.25 55.81 1120.63 56.083 1120.15 56.629C1119.67 57.175 1119.43 58.042 1119.43 59.23C1119.43 60.394 1119.64 61.297 1120.08 61.939C1120.51 62.581 1121.15 62.902 1121.98 62.902ZM1130.22 59.734C1130.22 60.322 1130.32 60.856 1130.51 61.336C1130.71 61.81 1131.01 62.188 1131.4 62.47C1131.8 62.752 1132.31 62.893 1132.91 62.893C1133.5 62.893 1134.01 62.755 1134.44 62.479C1134.87 62.203 1135.14 61.804 1135.26 61.282H1136.84C1136.72 61.912 1136.47 62.443 1136.08 62.875C1135.69 63.307 1135.22 63.634 1134.67 63.856C1134.12 64.072 1133.54 64.18 1132.94 64.18C1132.07 64.18 1131.31 63.991 1130.65 63.613C1129.99 63.235 1129.47 62.692 1129.1 61.984C1128.73 61.276 1128.54 60.427 1128.54 59.437C1128.54 58.459 1128.71 57.601 1129.04 56.863C1129.38 56.125 1129.87 55.549 1130.5 55.135C1131.14 54.721 1131.92 54.514 1132.82 54.514C1133.69 54.514 1134.43 54.703 1135.04 55.081C1135.64 55.459 1136.1 55.993 1136.42 56.683C1136.73 57.367 1136.89 58.18 1136.89 59.122V59.734H1130.22ZM1130.23 58.609H1135.29C1135.29 58.075 1135.2 57.595 1135.02 57.169C1134.84 56.737 1134.56 56.398 1134.19 56.152C1133.83 55.9 1133.36 55.774 1132.81 55.774C1132.22 55.774 1131.74 55.915 1131.36 56.197C1130.98 56.473 1130.69 56.83 1130.5 57.268C1130.32 57.7 1130.23 58.147 1130.23 58.609ZM1142.53 64.18C1141.33 64.18 1140.37 63.766 1139.66 62.938C1138.96 62.11 1138.6 60.901 1138.6 59.311C1138.6 58.345 1138.74 57.502 1139.02 56.782C1139.31 56.062 1139.74 55.504 1140.3 55.108C1140.87 54.712 1141.57 54.514 1142.41 54.514C1142.85 54.514 1143.25 54.571 1143.59 54.685C1143.94 54.799 1144.24 54.943 1144.49 55.117C1144.74 55.291 1144.94 55.471 1145.1 55.657C1145.26 55.843 1145.38 56.014 1145.46 56.17V50.626H1147.13V64H1145.86L1145.68 62.092C1145.62 62.272 1145.53 62.482 1145.4 62.722C1145.26 62.956 1145.08 63.187 1144.84 63.415C1144.6 63.637 1144.29 63.82 1143.91 63.964C1143.54 64.108 1143.08 64.18 1142.53 64.18ZM1142.83 62.902C1143.77 62.902 1144.45 62.617 1144.85 62.047C1145.26 61.471 1145.46 60.532 1145.46 59.23C1145.45 58.504 1145.36 57.886 1145.18 57.376C1145.01 56.866 1144.73 56.479 1144.35 56.215C1143.98 55.945 1143.49 55.81 1142.87 55.81C1142.1 55.81 1141.48 56.083 1141 56.629C1140.52 57.175 1140.28 58.042 1140.28 59.23C1140.28 60.394 1140.49 61.297 1140.92 61.939C1141.36 62.581 1142 62.902 1142.83 62.902ZM1155.83 54.694V64H1154.22V54.694H1155.83ZM1155.87 50.995V52.723H1154.17V50.995H1155.87ZM1158.87 64V54.694H1160.48V56.044C1160.63 55.786 1160.83 55.543 1161.1 55.315C1161.37 55.087 1161.69 54.904 1162.07 54.766C1162.45 54.628 1162.89 54.559 1163.39 54.559C1163.98 54.559 1164.52 54.676 1165.01 54.91C1165.51 55.144 1165.91 55.51 1166.2 56.008C1166.5 56.5 1166.65 57.136 1166.65 57.916V64H1164.99V58.078C1164.99 57.352 1164.79 56.815 1164.41 56.467C1164.03 56.113 1163.54 55.936 1162.93 55.936C1162.51 55.936 1162.12 56.005 1161.75 56.143C1161.39 56.275 1161.09 56.479 1160.86 56.755C1160.64 57.025 1160.52 57.367 1160.52 57.781V64H1158.87ZM1178.15 55.909H1176.05V61.696C1176.05 62.026 1176.08 62.269 1176.15 62.425C1176.22 62.575 1176.34 62.671 1176.5 62.713C1176.67 62.755 1176.9 62.776 1177.18 62.776H1178.2V63.892C1178.09 63.934 1177.91 63.97 1177.68 64C1177.45 64.03 1177.17 64.045 1176.82 64.045C1176.18 64.045 1175.68 63.958 1175.33 63.784C1174.98 63.61 1174.73 63.352 1174.58 63.01C1174.45 62.668 1174.38 62.248 1174.38 61.75V55.909H1172.86V54.694H1174.42L1174.83 51.985H1176.05V54.685H1178.15V55.909ZM1180.54 64V50.626H1182.16V56.062C1182.32 55.804 1182.53 55.564 1182.79 55.342C1183.05 55.114 1183.37 54.931 1183.75 54.793C1184.13 54.649 1184.57 54.577 1185.07 54.577C1185.67 54.577 1186.22 54.691 1186.71 54.919C1187.21 55.141 1187.6 55.459 1187.88 55.873C1188.17 56.287 1188.32 56.779 1188.32 57.349V64H1186.65V57.682C1186.65 57.124 1186.46 56.695 1186.07 56.395C1185.7 56.089 1185.2 55.936 1184.59 55.936C1184.18 55.936 1183.79 56.005 1183.42 56.143C1183.05 56.275 1182.76 56.479 1182.53 56.755C1182.31 57.025 1182.2 57.37 1182.2 57.79V64H1180.54ZM1192.1 59.734C1192.1 60.322 1192.19 60.856 1192.39 61.336C1192.58 61.81 1192.88 62.188 1193.28 62.47C1193.68 62.752 1194.18 62.893 1194.78 62.893C1195.37 62.893 1195.88 62.755 1196.31 62.479C1196.74 62.203 1197.02 61.804 1197.14 61.282H1198.71C1198.6 61.912 1198.35 62.443 1197.96 62.875C1197.57 63.307 1197.1 63.634 1196.54 63.856C1195.99 64.072 1195.42 64.18 1194.82 64.18C1193.95 64.18 1193.18 63.991 1192.52 63.613C1191.86 63.235 1191.35 62.692 1190.97 61.984C1190.6 61.276 1190.42 60.427 1190.42 59.437C1190.42 58.459 1190.58 57.601 1190.92 56.863C1191.26 56.125 1191.74 55.549 1192.38 55.135C1193.02 54.721 1193.79 54.514 1194.69 54.514C1195.57 54.514 1196.31 54.703 1196.91 55.081C1197.52 55.459 1197.98 55.993 1198.29 56.683C1198.61 57.367 1198.77 58.18 1198.77 59.122V59.734H1192.1ZM1192.11 58.609H1197.17C1197.17 58.075 1197.08 57.595 1196.9 57.169C1196.72 56.737 1196.44 56.398 1196.07 56.152C1195.7 55.9 1195.24 55.774 1194.68 55.774C1194.1 55.774 1193.62 55.915 1193.23 56.197C1192.85 56.473 1192.57 56.83 1192.38 57.268C1192.19 57.7 1192.1 58.147 1192.11 58.609ZM1205.1 66.898V54.694H1206.75L1206.77 56.314C1206.88 56.122 1207.02 55.921 1207.18 55.711C1207.36 55.501 1207.57 55.306 1207.81 55.126C1208.07 54.946 1208.36 54.799 1208.69 54.685C1209.02 54.571 1209.4 54.514 1209.83 54.514C1210.57 54.514 1211.23 54.685 1211.79 55.027C1212.36 55.363 1212.81 55.879 1213.12 56.575C1213.44 57.271 1213.6 58.153 1213.6 59.221C1213.6 60.289 1213.44 61.192 1213.13 61.93C1212.83 62.662 1212.38 63.22 1211.8 63.604C1211.22 63.988 1210.52 64.18 1209.69 64.18C1209.28 64.18 1208.91 64.12 1208.59 64C1208.27 63.886 1207.99 63.736 1207.75 63.55C1207.52 63.358 1207.32 63.154 1207.16 62.938C1207 62.722 1206.87 62.515 1206.77 62.317V66.898H1205.1ZM1209.38 62.884C1210.15 62.884 1210.77 62.593 1211.26 62.011C1211.75 61.423 1211.99 60.511 1211.99 59.275C1211.99 58.213 1211.77 57.37 1211.32 56.746C1210.88 56.122 1210.23 55.81 1209.38 55.81C1208.52 55.81 1207.86 56.131 1207.42 56.773C1206.97 57.409 1206.75 58.243 1206.75 59.275C1206.75 59.941 1206.85 60.547 1207.05 61.093C1207.25 61.639 1207.54 62.074 1207.93 62.398C1208.32 62.722 1208.8 62.884 1209.38 62.884ZM1215.78 64V54.694H1217.37V56.485C1217.52 56.041 1217.74 55.675 1218.02 55.387C1218.31 55.093 1218.63 54.874 1218.99 54.73C1219.35 54.586 1219.73 54.514 1220.12 54.514C1220.26 54.514 1220.39 54.523 1220.53 54.541C1220.66 54.559 1220.76 54.589 1220.83 54.631V56.242C1220.74 56.2 1220.63 56.173 1220.48 56.161C1220.34 56.143 1220.23 56.134 1220.13 56.134C1219.76 56.11 1219.41 56.134 1219.09 56.206C1218.76 56.272 1218.48 56.389 1218.23 56.557C1217.99 56.725 1217.79 56.947 1217.65 57.223C1217.51 57.493 1217.44 57.823 1217.44 58.213V64H1215.78ZM1224.56 54.694V64H1222.95V54.694H1224.56ZM1224.6 50.995V52.723H1222.9V50.995H1224.6ZM1231.2 54.514C1231.86 54.514 1232.46 54.643 1233 54.901C1233.53 55.153 1233.97 55.513 1234.3 55.981C1234.65 56.449 1234.86 57.001 1234.94 57.637H1233.47C1233.41 57.313 1233.29 57.016 1233.09 56.746C1232.9 56.476 1232.64 56.26 1232.32 56.098C1232.01 55.936 1231.63 55.855 1231.21 55.855C1230.41 55.855 1229.76 56.143 1229.26 56.719C1228.77 57.295 1228.52 58.177 1228.52 59.365C1228.52 60.439 1228.74 61.3 1229.2 61.948C1229.66 62.59 1230.34 62.911 1231.23 62.911C1231.66 62.911 1232.03 62.83 1232.34 62.668C1232.66 62.5 1232.91 62.281 1233.11 62.011C1233.3 61.735 1233.42 61.441 1233.48 61.129H1234.92C1234.85 61.753 1234.64 62.293 1234.29 62.749C1233.95 63.205 1233.51 63.559 1232.98 63.811C1232.45 64.057 1231.86 64.18 1231.2 64.18C1230.36 64.18 1229.62 63.997 1228.98 63.631C1228.33 63.265 1227.83 62.725 1227.46 62.011C1227.1 61.297 1226.91 60.421 1226.91 59.383C1226.91 58.411 1227.08 57.562 1227.41 56.836C1227.75 56.104 1228.23 55.534 1228.87 55.126C1229.51 54.718 1230.29 54.514 1231.2 54.514ZM1238.38 59.734C1238.38 60.322 1238.48 60.856 1238.67 61.336C1238.87 61.81 1239.16 62.188 1239.56 62.47C1239.96 62.752 1240.46 62.893 1241.06 62.893C1241.66 62.893 1242.17 62.755 1242.59 62.479C1243.03 62.203 1243.3 61.804 1243.42 61.282H1245C1244.88 61.912 1244.63 62.443 1244.24 62.875C1243.85 63.307 1243.38 63.634 1242.83 63.856C1242.28 64.072 1241.7 64.18 1241.1 64.18C1240.23 64.18 1239.46 63.991 1238.8 63.613C1238.14 63.235 1237.63 62.692 1237.26 61.984C1236.88 61.276 1236.7 60.427 1236.7 59.437C1236.7 58.459 1236.87 57.601 1237.2 56.863C1237.54 56.125 1238.02 55.549 1238.66 55.135C1239.3 54.721 1240.07 54.514 1240.97 54.514C1241.85 54.514 1242.59 54.703 1243.2 55.081C1243.8 55.459 1244.26 55.993 1244.57 56.683C1244.89 57.367 1245.05 58.18 1245.05 59.122V59.734H1238.38ZM1238.39 58.609H1243.45C1243.45 58.075 1243.36 57.595 1243.18 57.169C1243 56.737 1242.72 56.398 1242.35 56.152C1241.98 55.9 1241.52 55.774 1240.96 55.774C1240.38 55.774 1239.9 55.915 1239.52 56.197C1239.14 56.473 1238.85 56.83 1238.66 57.268C1238.47 57.7 1238.38 58.147 1238.39 58.609Z" fill="black"/>
<defs>
<filter id="filter0_dd_32_998" x="0" y="0" width="459" height="162" filterUnits="userSpaceOnUse" color-interpolation-filters="sRGB">
<feFlood flood-opacity="0" result="BackgroundImageFix"/>
<feColorMatrix in="SourceAlpha" type="matrix" values="0 0 0 0 0 0 0 0 0 0 0 0 0 0 0 0 0 0 127 0" result="hardAlpha"/>
<feOffset dy="24"/>
<feGaussianBlur stdDeviation="16"/>
<feColorMatrix type="matrix" values="0 0 0 0 0.196487 0 0 0 0 0.196487 0 0 0 0 0.279476 0 0 0 0.08 0"/>
<feBlend mode="multiply" in2="BackgroundImageFix" result="effect1_dropShadow_32_998"/>
<feColorMatrix in="SourceAlpha" type="matrix" values="0 0 0 0 0 0 0 0 0 0 0 0 0 0 0 0 0 0 127 0" result="hardAlpha"/>
<feOffset dy="16"/>
<feGaussianBlur stdDeviation="8"/>
<feColorMatrix type="matrix" values="0 0 0 0 0.196487 0 0 0 0 0.196487 0 0 0 0 0.279476 0 0 0 0.08 0"/>
<feBlend mode="multiply" in2="effect1_dropShadow_32_998" result="effect2_dropShadow_32_998"/>
<feBlend mode="normal" in="SourceGraphic" in2="effect2_dropShadow_32_998" result="shape"/>
</filter>
<filter id="filter1_dd_32_998" x="432" y="0" width="472" height="162" filterUnits="userSpaceOnUse" color-interpolation-filters="sRGB">
<feFlood flood-opacity="0" result="BackgroundImageFix"/>
<feColorMatrix in="SourceAlpha" type="matrix" values="0 0 0 0 0 0 0 0 0 0 0 0 0 0 0 0 0 0 127 0" result="hardAlpha"/>
<feOffset dy="24"/>
<feGaussianBlur stdDeviation="16"/>
<feColorMatrix type="matrix" values="0 0 0 0 0.196487 0 0 0 0 0.196487 0 0 0 0 0.279476 0 0 0 0.08 0"/>
<feBlend mode="multiply" in2="BackgroundImageFix" result="effect1_dropShadow_32_998"/>
<feColorMatrix in="SourceAlpha" type="matrix" values="0 0 0 0 0 0 0 0 0 0 0 0 0 0 0 0 0 0 127 0" result="hardAlpha"/>
<feOffset dy="16"/>
<feGaussianBlur stdDeviation="8"/>
<feColorMatrix type="matrix" values="0 0 0 0 0.196487 0 0 0 0 0.196487 0 0 0 0 0.279476 0 0 0 0.08 0"/>
<feBlend mode="multiply" in2="effect1_dropShadow_32_998" result="effect2_dropShadow_32_998"/>
<feBlend mode="normal" in="SourceGraphic" in2="effect2_dropShadow_32_998" result="shape"/>
</filter>
<filter id="filter2_dd_32_998" x="877" y="0" width="459" height="162" filterUnits="userSpaceOnUse" color-interpolation-filters="sRGB">
<feFlood flood-opacity="0" result="BackgroundImageFix"/>
<feColorMatrix in="SourceAlpha" type="matrix" values="0 0 0 0 0 0 0 0 0 0 0 0 0 0 0 0 0 0 127 0" result="hardAlpha"/>
<feOffset dy="24"/>
<feGaussianBlur stdDeviation="16"/>
<feColorMatrix type="matrix" values="0 0 0 0 0.196487 0 0 0 0 0.196487 0 0 0 0 0.279476 0 0 0 0.08 0"/>
<feBlend mode="multiply" in2="BackgroundImageFix" result="effect1_dropShadow_32_998"/>
<feColorMatrix in="SourceAlpha" type="matrix" values="0 0 0 0 0 0 0 0 0 0 0 0 0 0 0 0 0 0 127 0" result="hardAlpha"/>
<feOffset dy="16"/>
<feGaussianBlur stdDeviation="8"/>
<feColorMatrix type="matrix" values="0 0 0 0 0.196487 0 0 0 0 0.196487 0 0 0 0 0.279476 0 0 0 0.08 0"/>
<feBlend mode="multiply" in2="effect1_dropShadow_32_998" result="effect2_dropShadow_32_998"/>
<feBlend mode="normal" in="SourceGraphic" in2="effect2_dropShadow_32_998" result="shape"/>
</filter>
</defs>
</svg>
